<?xml version="1.0" encoding="UTF-8"?> <svg xmlns="http://www.w3.org/2000/svg" width="400" height="99" viewBox="0 0 400 99" fill="none"><path fill-rule="evenodd" clip-rule="evenodd" d="M172.903 96.1875H187.362V0.355957H172.142V43.0745H171.761C171 42.0604 170.028 41.0041 168.844 39.9055C167.661 38.8069 166.244 37.7928 164.595 36.8632C162.947 35.9336 161.023 35.1519 158.825 34.5181C156.626 33.8843 154.132 33.5674 151.342 33.5674C147.029 33.5674 143.055 34.3913 139.42 36.0392C135.784 37.6872 132.655 39.9477 130.034 42.821C127.413 45.6942 125.384 49.0745 123.946 52.9619C122.509 56.8492 121.79 61.0323 121.79 65.5112C121.79 69.9902 122.488 74.1944 123.883 78.124C125.278 82.0536 127.265 85.4761 129.844 88.3916C132.423 91.3072 135.551 93.6311 139.229 95.3635C142.907 97.0959 147.072 97.9621 151.722 97.9621C156.034 97.9621 160.072 97.0325 163.834 95.1734C167.597 93.3142 170.535 90.61 172.649 87.0607H172.903V96.1875ZM138.342 72.6098C137.623 70.2436 137.264 67.8774 137.264 65.5112C137.264 63.1449 137.623 60.7999 138.342 58.4759C139.06 56.152 140.138 54.0604 141.576 52.2012C143.013 50.3421 144.831 48.8421 147.029 47.7012C149.228 46.5604 151.807 45.9899 154.766 45.9899C157.556 45.9899 160.051 46.5815 162.249 47.7646C164.448 48.9477 166.329 50.4688 167.893 52.328C169.457 54.1872 170.641 56.2998 171.444 58.6661C172.248 61.0323 172.649 63.3985 172.649 65.7647C172.649 68.1309 172.248 70.476 171.444 72.7999C170.641 75.1239 169.457 77.2155 167.893 79.0746C166.329 80.9338 164.448 82.4338 162.249 83.5746C160.051 84.7155 157.556 85.2859 154.766 85.2859C151.807 85.2859 149.228 84.6944 147.029 83.5113C144.831 82.3282 143.013 80.807 141.576 78.9479C140.138 77.0887 139.06 74.976 138.342 72.6098ZM248.217 20.4476C252.022 21.9265 255.108 24.2716 257.475 27.4829L269.651 17.849C267.875 15.4828 265.719 13.4546 263.183 11.7645C260.646 10.0743 257.94 8.65882 255.066 7.51796C252.191 6.3771 249.189 5.53204 246.061 4.98273C242.932 4.43343 239.93 4.15879 237.056 4.15879C230.122 4.15879 223.696 5.25737 217.777 7.45458C211.859 9.65178 206.722 12.7785 202.368 16.8349C198.013 20.8913 194.589 25.8138 192.094 31.6026C189.6 37.3914 188.353 43.8773 188.353 51.0604C188.353 58.0746 189.536 64.476 191.904 70.2648C194.271 76.0536 197.569 81.0395 201.797 85.2226C206.024 89.4057 211.077 92.6592 216.953 94.9832C222.83 97.3072 229.277 98.4692 236.295 98.4692C243.989 98.4692 250.711 97.0959 256.461 94.3494C257.926 93.6496 259.333 92.8771 260.683 92.0319C261.32 92.5982 261.996 93.1172 262.711 93.5888C264.951 95.0677 267.403 96.1241 270.067 96.7579C272.73 97.3917 275.288 97.7086 277.74 97.7086C282.052 97.7086 285.899 96.8424 289.282 95.11C292.664 93.3776 295.116 91.1593 296.638 88.455H297.018V96.1875H311.223V89.073C313.988 91.7423 317.342 93.8391 321.285 95.3635C325.767 97.0959 330.375 97.9621 335.11 97.9621C338.407 97.9621 341.599 97.6029 344.685 96.8846C347.772 96.1663 350.477 95.0043 352.803 93.3987C355.128 91.793 356.988 89.7015 358.383 87.124C359.778 84.5465 360.476 81.3986 360.476 77.6803C360.476 74.7225 359.884 72.2084 358.7 70.138C357.516 68.0676 355.973 66.3352 354.071 64.9408C352.168 63.5464 350.055 62.4267 347.729 61.5816C345.404 60.7365 343.1 60.0605 340.817 59.5534C336.505 58.5393 333.228 57.5464 330.988 56.5745C328.747 55.6027 327.627 53.9337 327.627 51.5675C327.627 49.2013 328.641 47.5111 330.671 46.497C332.7 45.4829 334.941 44.9759 337.393 44.9759C340.183 44.9759 342.762 45.6308 345.129 46.9407C347.497 48.2506 349.357 49.7928 350.71 51.5675L359.161 44.0959V47.5111H369.814V75.9057C369.814 78.8634 370.089 81.631 370.639 84.2085C371.188 86.786 372.203 89.0677 373.683 91.0536C375.162 93.0396 377.171 94.6029 379.707 95.7438C382.244 96.8847 385.541 97.4551 389.6 97.4551C391.291 97.4551 393.067 97.3072 394.927 97.0114C396.787 96.7156 398.393 96.3142 399.746 95.8072L399.239 83.8916C398.309 84.3142 397.252 84.6311 396.068 84.8423C394.884 85.0536 393.785 85.1592 392.771 85.1592C389.388 85.1592 387.211 84.2719 386.239 82.4972C385.267 80.7226 384.78 78.4832 384.78 75.7789V47.5111H400V35.3421H384.78V17.7222H369.814V35.3421H359.161V41.176C356.9 38.8659 354.062 37.0902 350.646 35.8491C346.461 34.3279 342.17 33.5674 337.773 33.5674C334.729 33.5674 331.77 33.9477 328.895 34.7082C326.02 35.4688 323.441 36.6308 321.158 38.1942C318.875 39.7576 317.036 41.7646 315.641 44.2153C314.246 46.666 313.549 49.5815 313.549 52.9618C313.549 55.8351 314.056 58.2436 315.07 60.1872C316.085 62.1309 317.438 63.7577 319.129 65.0675C320.82 66.3774 322.744 67.4337 324.9 68.2366C327.056 69.0394 329.276 69.6943 331.558 70.2014C336.209 71.3 339.697 72.3986 342.022 73.4972C344.347 74.5958 345.51 76.4127 345.51 78.9479C345.51 80.3 345.214 81.4409 344.622 82.3705C344.03 83.3 343.248 84.0395 342.276 84.5888C341.303 85.1381 340.246 85.5395 339.105 85.793C337.963 86.0465 336.843 86.1733 335.744 86.1733C332.446 86.1733 329.445 85.455 326.739 84.0183C324.033 82.5817 321.835 80.7648 320.144 78.5676L311.223 86.9189V59.1732C311.223 56.1309 310.822 53.0886 310.018 50.0464C309.215 47.0041 307.799 44.2576 305.77 41.8069C303.74 39.3561 300.971 37.3702 297.462 35.8491C293.953 34.328 289.493 33.5674 284.082 33.5674C279.431 33.5674 274.844 34.3702 270.32 35.9759C265.797 37.5815 261.802 39.9899 258.335 43.2012L266.198 52.4548C268.143 50.5111 270.595 48.8633 273.555 47.5111C276.514 46.159 279.6 45.483 282.813 45.483C286.618 45.483 289.895 46.3914 292.643 48.2083C295.391 50.0252 296.765 52.8351 296.765 56.6379V58.1591C292.03 58.1591 287.189 58.3915 282.243 58.8563C277.296 59.3211 272.794 60.2718 268.735 61.7084C264.677 63.145 261.358 65.2154 258.779 67.9197C256.476 70.3346 255.201 73.4909 254.955 77.3885C253.286 78.8941 251.379 80.1956 249.231 81.293C245.511 83.1944 241.241 84.1451 236.422 84.1451C231.771 84.1451 227.586 83.3423 223.865 81.7367C220.145 80.131 216.953 77.8705 214.29 74.9549C211.626 72.0394 209.576 68.5535 208.138 64.4971C206.701 60.4408 205.982 55.9619 205.982 51.0604C205.982 46.4125 206.722 42.1027 208.202 38.1308C209.681 34.1589 211.795 30.6942 214.543 27.7364C217.291 24.7786 220.568 22.4547 224.373 20.7645C228.178 19.0744 232.405 18.2293 237.056 18.2293C240.691 18.2293 244.412 18.9687 248.217 20.4476ZM293.34 68.4268H296.765V70.5817C296.765 75.3986 295.412 79.2014 292.706 81.9902C290 84.779 286.026 86.1733 280.784 86.1733C279.516 86.1733 278.247 86.0466 276.979 85.793C275.711 85.5395 274.569 85.117 273.555 84.5254C272.54 83.9339 271.716 83.1522 271.081 82.1803C270.447 81.2085 270.13 80.0043 270.13 78.5676C270.13 76.2859 270.891 74.4902 272.413 73.1803C273.935 71.8704 275.838 70.8563 278.121 70.138C280.404 69.4197 282.898 68.9549 285.604 68.7437C288.309 68.5324 290.888 68.4268 293.34 68.4268ZM101.925 35.342H87.3393V96.1874H102.559V63.6098C102.559 62.5112 102.77 61.0323 103.193 59.1731C103.616 57.314 104.419 55.4971 105.603 53.7224C106.787 51.9478 108.435 50.4266 110.549 49.159C112.663 47.8914 115.453 47.2576 118.92 47.2576C119.596 47.2576 120.294 47.2998 121.013 47.3844C121.731 47.4689 122.598 47.6379 123.613 47.8914V33.9477C123.105 33.7786 122.514 33.673 121.837 33.6308C121.161 33.5885 120.527 33.5674 119.935 33.5674C115.876 33.5674 112.325 34.666 109.281 36.8632C106.237 39.0604 103.87 41.9336 102.178 45.4829H101.925V35.342ZM69.3223 8.27856C67.5044 10.0955 66.5955 12.2293 66.5955 14.68C66.5955 17.1307 67.5044 19.2645 69.3223 21.0814C71.1402 22.8984 73.4443 23.8068 76.2346 23.8068C79.0249 23.8068 81.3712 22.9406 83.2737 21.2082C85.1761 19.4758 86.1273 17.2998 86.1273 14.68C86.1273 12.0603 85.1761 9.88421 83.2737 8.1518C81.3712 6.41939 79.0249 5.55319 76.2346 5.55319C73.4443 5.55319 71.1402 6.46164 69.3223 8.27856ZM83.9712 35.3421H68.7515V96.1875H83.9712V35.3421ZM35.0052 6.44053H0V96.1875H32.3418C36.5695 96.1875 40.7337 95.7438 44.8346 94.8565C48.9355 93.9692 52.5712 92.5114 55.742 90.4832C58.9128 88.455 61.4705 85.772 63.4153 82.4339C65.36 79.0958 66.3324 74.9761 66.3324 70.0747C66.3324 63.9901 64.5145 59.131 60.8787 55.4971C57.2428 51.8633 52.5924 49.6661 46.9273 48.652C51.5778 47.2154 55.3404 44.8492 58.2152 41.5534C61.0901 38.2576 62.5275 34.0745 62.5275 29.004C62.5275 24.9477 61.7242 21.4829 60.1177 18.6096C58.5111 15.7363 56.4185 13.3913 53.8396 11.5744C51.2607 9.75744 48.3224 8.44759 45.0248 7.64476C41.7272 6.84194 38.3874 6.44053 35.0052 6.44053ZM30.1857 42.9477H15.9806V19.6236H28.7905C34.8784 19.6236 39.3597 20.4687 42.2346 22.1589C45.1094 23.849 46.5468 26.7222 46.5468 30.7786C46.5468 34.666 45.1517 37.666 42.3614 39.7787C39.5711 41.8914 35.5126 42.9477 30.1857 42.9477ZM15.9806 82.7508H30.3125C32.3418 82.7508 34.5402 82.6029 36.9077 82.3071C39.2752 82.0113 41.4524 81.3987 43.4395 80.4691C45.4265 79.5395 47.0753 78.1874 48.3858 76.4127C49.6964 74.6381 50.3517 72.2719 50.3517 69.3141C50.3517 64.5816 48.7452 61.2859 45.5322 59.4267C42.3191 57.5675 37.4573 56.638 30.9467 56.638H15.9806V82.7508Z" fill="white"></path></svg> 