<?xml version="1.0" encoding="utf-8"?>
<!-- Generator: Adobe Illustrator 27.3.1, SVG Export Plug-In . SVG Version: 6.00 Build 0)  -->
<svg version="1.1" id="Layer_1" xmlns="http://www.w3.org/2000/svg" xmlns:xlink="http://www.w3.org/1999/xlink" x="0px" y="0px"
	 viewBox="0 0 18 18" style="enable-background:new 0 0 18 18;" xml:space="preserve">
<g>
	<path d="M0.1,9.9c0.1-0.3,0.3-0.6,0.4-0.9c0-0.1,0.1-0.2,0.2-0.2c0.8-0.5,1.7-0.6,2.6-0.8c0.5-0.1,1-0.3,1.5-0.6
		C5.5,6.9,6.3,6.5,7,6.2C7.6,6,8.2,5.9,8.7,5.9c2-0.1,4-0.1,6,0c0.5,0,1,0.1,1.5,0.1c0,0,0.1,0,0.1,0.1c0,0.1,0,0.1,0,0.2
		c-0.1,0.1-0.1,0.1,0,0.2c0.6,0.7,1,1.5,1.2,2.4c0.1,0.2,0.1,0.5,0.1,0.7c0,0.1,0.1,0.2,0.1,0.2c0.2,0.2,0.3,0.4,0.1,0.7
		c0,0,0,0.1,0,0.2c0,0.2-0.2,0.4-0.4,0.4c-0.4,0-0.7,0-1.1,0.1c-0.1,0-0.1,0-0.1-0.1c0-0.8-0.6-1.4-1.2-1.5c-0.8-0.1-1.5,0.3-1.7,1
		c-0.1,0.2-0.1,0.3,0,0.5c0,0.1,0,0.2-0.2,0.2c-0.7,0-1.3,0-2,0.1c-2,0.1-4,0.1-6,0.1c-0.1,0-0.1,0-0.2,0c-0.1,0-0.1,0-0.1-0.1
		C5.1,10.6,4.6,9.9,4,9.7c-0.6-0.3-1.4-0.1-1.9,0.4c-0.3,0.3-0.4,0.7-0.3,1.1c0,0.1,0,0.1-0.1,0.1c-0.3-0.1-0.7-0.1-1-0.1
		c-0.2,0-0.3-0.1-0.5-0.1c-0.1,0-0.2-0.1-0.1-0.2c0.1-0.1,0-0.3-0.1-0.4C0.1,10.2,0.1,10.1,0.1,9.9z M11.2,8C11.2,8,11.2,8,11.2,8
		c0.5,0,1,0,1.4-0.1c0.1,0,0.1,0,0.1-0.1c-0.1-0.5-0.1-1-0.2-1.4c0-0.1,0-0.2-0.2-0.2c-0.8,0-1.6,0-2.5,0c-0.1,0-0.2,0-0.2,0.1
		c0,0.5,0,1.1,0,1.6c0,0.1,0,0.1,0.2,0.1C10.4,8.1,10.8,8,11.2,8z M9,7.2c0-0.3,0-0.5,0-0.8c0-0.1,0-0.1-0.1-0.1c-0.3,0-0.7,0-1,0.1
		C7.3,6.5,6.8,6.8,6.2,7.1C5.9,7.2,5.8,7.4,5.9,7.7c0,0.1,0,0.1,0.1,0.1c0.2,0,0.4,0.1,0.5,0.3c0,0.1,0.1,0.1,0.2,0.1
		c0.4,0,0.8,0,1.2-0.1c0.3,0,0.6,0,0.9,0C9,8.1,9,8.1,9,7.9C9,7.7,9,7.4,9,7.2z M14.8,7.8c0.3,0,0.7,0,1,0c0.3,0,0.4-0.2,0.3-0.5
		c-0.1-0.2-0.2-0.5-0.4-0.6c-0.2-0.2-0.4-0.4-0.7-0.4c-0.5,0-0.9,0-1.4-0.1c-0.1,0-0.2,0-0.2,0.2c0.1,0.5,0.1,0.9,0.1,1.4
		c0,0.1,0,0.1,0.2,0.1C14.1,7.9,14.4,7.9,14.8,7.8z M5.4,7.8C5.4,7.8,5.4,7.8,5.4,7.8c0-0.1,0-0.2,0-0.2c0,0-0.1,0-0.1,0.1
		C5.1,7.7,5,7.8,4.8,7.9C4.7,8,4.7,8,4.7,8.1c0,0.1,0.1,0.1,0.2,0.1C5.2,8.3,5.5,8.1,5.4,7.8z"/>
	<path d="M14.8,9.7c0.8,0,1.3,0.6,1.3,1.3c0,0.7-0.7,1.2-1.4,1.2c-0.7,0-1.3-0.6-1.3-1.3C13.5,10.2,14.1,9.7,14.8,9.7z M14.3,11.1
		c0-0.1-0.1-0.1-0.2-0.1c-0.1,0-0.2-0.1-0.2,0.1c0,0.1,0.1,0.3,0.2,0.3C14.1,11.4,14.3,11.2,14.3,11.1z M15.4,11.1
		c-0.1,0-0.2,0-0.2,0.1c0,0,0.2,0.3,0.2,0.2c0.1-0.1,0.1-0.2,0.1-0.3C15.5,11,15.4,11.1,15.4,11.1z M15.4,10.8
		c0-0.1,0.2,0.1,0.2-0.1c0-0.1,0-0.2-0.1-0.3c0,0-0.2,0.2-0.2,0.2C15.2,10.9,15.3,10.8,15.4,10.8z M14.2,10.3c0.2,0,0.2,0.3,0.4,0.2
		c0.1,0,0.1-0.3,0-0.3C14.5,10.1,14.4,10.3,14.2,10.3z M14.6,11.5c0-0.1,0-0.2-0.1-0.2c-0.1,0-0.2,0.1-0.3,0.2c0,0,0.2,0.2,0.3,0.1
		C14.7,11.7,14.6,11.6,14.6,11.5z M14.1,10.8c0.1,0,0.2,0,0.2-0.1c0,0-0.2-0.3-0.2-0.2c-0.1,0.1-0.1,0.2-0.1,0.3
		C13.9,10.9,14.1,10.8,14.1,10.8z M14.9,11.5c0,0-0.1,0.2,0.1,0.2c0.1,0,0.2,0,0.3-0.1c0,0-0.2-0.2-0.3-0.2
		C14.8,11.3,14.9,11.4,14.9,11.5z M14.9,10.4c0,0.1,0,0.2,0.1,0.2c0,0,0.3-0.2,0.2-0.2c-0.1-0.1-0.2-0.1-0.3-0.1
		C14.8,10.2,14.9,10.3,14.9,10.4z"/>
	<path d="M3.4,9.7c0.7,0,1.3,0.5,1.3,1.2c0,0.6-0.4,1.1-1,1.3c-0.7,0.2-1.4-0.2-1.6-0.9c-0.2-0.7,0.3-1.5,1.1-1.6
		C3.3,9.7,3.3,9.7,3.4,9.7z M3.5,11.5c0,0-0.1,0.2,0.1,0.2c0.1,0,0.3,0,0.3-0.1c0-0.1-0.1-0.2-0.2-0.2C3.5,11.3,3.5,11.4,3.5,11.5z
		 M3.5,10.4c0,0.1,0,0.2,0.1,0.2c0.1,0,0.2-0.1,0.2-0.2c0-0.1-0.2-0.1-0.3-0.1C3.4,10.2,3.5,10.3,3.5,10.4z M3.3,10.4
		c0,0,0.1-0.2-0.1-0.2c-0.1,0-0.3,0-0.3,0.1c0,0.1,0.1,0.2,0.2,0.2C3.3,10.6,3.3,10.4,3.3,10.4z M2.8,11.1c0,0-0.2-0.1-0.2,0.1
		c0,0.1,0,0.2,0.1,0.3c0,0,0.2-0.2,0.2-0.2C3,11,2.9,11.1,2.8,11.1z M3.3,11.5c0-0.1,0-0.2-0.1-0.2c-0.1,0-0.2,0.1-0.2,0.2
		c0,0.1,0.2,0.1,0.3,0.1C3.3,11.7,3.2,11.6,3.3,11.5z M4.2,11.1c0-0.1-0.1-0.1-0.1-0.1c-0.1,0-0.2-0.1-0.3,0.1c0,0,0.2,0.3,0.2,0.2
		C4.1,11.3,4.2,11.2,4.2,11.1z M4,10.8c0.1,0,0.2,0.1,0.2-0.1c0-0.1,0-0.2-0.2-0.3c0,0-0.2,0.2-0.2,0.2C3.8,10.9,3.9,10.8,4,10.8z
		 M2.8,10.8c0.1,0,0.2,0,0.2-0.1c0-0.1-0.1-0.2-0.2-0.2c-0.1,0-0.2,0.2-0.1,0.3C2.6,10.9,2.7,10.8,2.8,10.8z"/>
</g>
</svg>
