<?xml version="1.0" encoding="utf-8"?>
<!-- Generator: Adobe Illustrator 27.4.0, SVG Export Plug-In . SVG Version: 6.00 Build 0)  -->
<svg version="1.1" id="Layer_1" xmlns="http://www.w3.org/2000/svg" xmlns:xlink="http://www.w3.org/1999/xlink" x="0px" y="0px"
	 viewBox="0 0 1718.5 586.9" style="enable-background:new 0 0 1718.5 586.9;" xml:space="preserve">
<style type="text/css">
	.st0{fill:none;stroke:#000000;stroke-width:6;stroke-miterlimit:10;}
</style>
<path class="st0" d="M-3.5,510.1c0.4-0.7,1.7-1,2.6-1.3c23.1-9.4,46.1-19.1,70.7-24.1c20.1-4.1,39.7-9.9,59.8-14
	c13.8-2.8,28-4.1,42-6c6.1-0.8,12.2-1.6,18.3-2.2c17.9-1.6,35.5,1.5,53.2,3.9c18.5,2.5,34.6,10.6,49.2,21.6
	c6.2,4.6,11.4,10.6,17.2,15.7c12.7,11,25.6,21.8,38.4,32.6c1.8,1.5,3.6,3,5,4.8c7,8.7,14.7,16.7,24.2,22.9c3.9,2.5,7.7,5.5,10.7,9
	c6.7,8,15.8,5.8,22.8,1c7.3-5,11-4.9,16.9,2.1c0.9,1,1.8,2,2.8,2.9c3.6,3.2,6.4,2.8,8.9-1.4c3.4-5.6,5.9-6.7,11.9-4.3
	c4.8,2,8.2-1.3,12.1-2.7c0.8-0.3,1.3-2.6,1.1-3.9c-1.3-11.2-2.2-22.5-4.2-33.7c-1.8-10.1-5-19.9-7.3-30c-2.4-10.6-1.1-21,4.3-30.5
	c1.7-3,4.8-5.4,7.8-7.5c9.6-6.7,20.4-7.9,31.5-5.5c14.3,3,28.7,5.8,42.7,9.9c12,3.5,24,8,35.2,13.4c15.4,7.5,30.2,16,47,20.2
	c9.4,2.4,18.1,7.4,27.4,10.6c17.4,6.1,35.2,10,53.8,10c12.9,0,24-4.8,33.8-12.9c6.2-5.1,12.6-9.9,18.5-15.2c2.3-2,3.8-5,5.4-7.7
	c3.4-5.9,6.3-12.1,9.9-17.8c7.3-11.5,9.4-23.8,7.4-37.1c-1-7.1-0.9-14.3-1.8-21.4c-0.6-4.7-2.3-9.2-3.5-13.8c-0.7-2.7-2-5.5-1.9-8.2
	c0.7-13.9-5.8-25.6-12.1-37c-8.3-15.1-17.7-29.7-27.4-44c-10.8-16-21.9-31.8-33.9-46.8c-8.3-10.3-18.1-19.4-27.8-28.5
	c-16.2-15.1-32.2-30.4-49.3-44.4c-18.9-15.4-40.5-26.7-63.3-35.8c-8.2-3.2-15.9-7.5-23.9-11.2c-2.6-1.2-5.4-1.6-8.1-2.6
	c-3.8-1.4-7.4-3.1-11.1-4.7c-1.2-0.5-2.4-1.7-3.5-1.6c-8.6,0.3-17.2,0.4-25.7,1.5c-6.7,0.9-13.4,2.7-19.8,5
	c-14.4,5.2-25.7,14.3-33.8,27.4c-3.3,5.3-7.7,10.1-10.8,15.5c-5.5,9.8-10.4,20-15.4,30c-7.2,14.2-8.8,29.5-9.5,45.1
	c-0.5,10.5-1.3,21,3.1,31c3,6.7,6.3,13.1,12.9,17.2c11.6,7.1,23.2,14.3,34.8,21.4c10.9,6.7,21.6,13.6,32.7,19.9
	c4.2,2.4,8.6,4.7,13.1,6.4c1.9,0.7,3.7,1.3,5.6,1.7l14.8,5.8c5,2.3,9.8,5.3,15.1,6.7c18.5,4.7,37.1,8.9,55.6,13.3
	c1.5,0.3,2.9,0.9,4.3,1.2c15.3,3.5,30.9,5.3,46.3,1.2c11.7-3.1,23.5-6.4,32.2-15.9c4.8-5.2,5-9.9-1-13.7
	c-12.9-8.1-26.7-14-42.2-15.1c-9.8-0.7-19.4,0.3-29.2,1.8c-18.1,2.8-36.8,2.2-54.5,8.4c-8.9,3.1-17.7,6.4-26.5,9.6L482.3,369
	c-15.3,3.8-30.7,7.6-46,11.3c-1.9,0.5-4,0.3-6,0.4c-18.6,0.5-37.2,1-55.8,1.4l-26.3,1.7c-4.3,1-9.1,1.8-12.5,4.3
	c-13.4,10-20,23.9-21.7,41.2c0.8,14.2,6.5,27.4,14.2,39.7c5,8,11.6,15,17,22.7c5.6,7.9,11.6,14.4,22,16.4c9.6,1.8,16.1,1.4,19-5.9
	c2.7-6.9,5.3-14.9,4.5-22.1c-2.3-20.3-8.8-39.5-19.9-57c-1.6-2.5-2.9-5.3-4.2-7.9c-4.8-9.5-9.4-19.1-14.3-28.5l-9.5-15.5
	c-2.3-4.4-4.5-8.9-7-13.2c-12.6-21.6-17.1-45.1-16.9-69.9c0.2-22.2,5.5-43.5,10.7-64.8c4.2-17.5,13.2-32.7,23.4-47
	c11.3-15.8,23-31.4,35.9-46c16.3-18.5,35.8-32.9,58.8-42.9c14.7-6.4,30-10.1,45.3-13.5c24.4-5.3,48.9-9.8,73.6-13.6
	c9.7-1.5,19.9-0.7,29.8-0.2c13.3,0.7,26.5,2,39.8,3.2c18.2,1.5,36.5,3.1,54.7,4.7c9.4,0.8,19,1,28.3,2.9c18.3,3.6,36.7,7,53.9,14.7
	c7.2,3.2,14.3,6.3,21.4,9.6c10.7,5,18.7,12.4,19.6,25c0.9,12.7,1.2,25.5,1.8,38.3c0.1,1.3-0.1,2.7,0,4c0.7,5.5,5.2,7.7,9.2,3.9
	c4.3-4.1,8.4-8.7,11.5-13.7c7.1-11.7,16.3-21.5,26.4-30.5c3-2.6,7.8-4,11.9-4.3c10.7-0.9,21.5-1.3,32.3-1.2c4.2,0,8.3,2.1,12.5,3.2
	c7.2,1.9,14.4,3.7,21.6,5.8c11.9,3.5,23.2,1.3,33.9-4c11.5-5.6,22.4-12.3,34.1-17.5c15.8-7.1,32-11.8,49.8-7.2
	c16,4.1,32.1,7.6,46.8,15.5c8.2,4.4,15.7,10.1,23.9,14.4c7.3,3.8,15.1,6.9,23,9.5c3,1,7.1,0.3,10-1.1c6.7-3,12.3-7.7,16.1-14.4
	c1.4-2.6,3.4-5,5.5-7c6.5-6.2,10.4-13.8,12.7-22.3c2.5-9,9.5-14.6,15.4-21c2.6-2.8,5.6-5.1,8.2-7.9c7.8-8.4,14.6-18.1,26-21.8
	c10.3-3.3,16.4-3.2,21.8,4c2.6,3.5,3.4,8.5,4.6,12.9c0.8,2.9,0.6,6,1.2,8.9c0.7,3.4,3,5.1,6.3,3.1c3.1-1.9,6.4-4,8.4-6.9
	c14.2-19.7,32.2-35.1,54-45.4c8.8-4.1,19.1-5.4,28.9-7c10.3-1.6,20.8-2.4,31.3-2.8c18.3-0.7,36.1,2,52.8,10.1
	c5.1,2.4,10.4,4.5,15.7,6.4c9.3,3.3,16.7,9.5,24.1,15.6c2.8,2.3,5.5,4.9,8.6,6.8c13,8.1,23.9,18.5,33.4,30.3
	c3.8,4.8,7,10.1,10.2,15.4c13.5,22.9,25.2,46.3,28.6,73.4c1.8,15.1,0.5,29.9,0.6,44.8c0.1,16.4-4.9,31.2-11.5,45.5
	c-4,8.7-10.1,16.1-16.3,23.7c-15.9,19.5-35.6,34.3-55.3,49.3c-14.8,11.3-32.1,17.5-49.8,22.2c-14.9,3.9-28.9,9.3-39.7,20.6
	c-4.2,4.4-6.8,10.2-10.7,14.9c-5.4,6.4-10.7,13.3-17.2,18.4c-13.8,10.9-30.1,15.9-47.7,16.6c-6.8,0.3-13.7,0.3-20.4-0.6
	c-6.8-0.9-13.8-2.5-20.1-5.1c-22.3-9.2-45-12.6-68.7-6.9c-14.8,3.6-25.7-2.6-35.3-12.9c-7.1-7.6-11.2-16.6-14-26.6
	c-2.7-9.6-6.6-18.8-10.2-28.1l-5-20.1c-1.7-16.4-4.7-32.8-3.9-49.1c1.1-24.5,3.9-49.3,15.9-71.5c3.1-5.7,7.7-11,12.5-15.4
	c5.9-5.3,16.9-1.3,18.3,7.5c3.5,20.9,9.3,41.9,5.5,63.4c-3,16.5-6.4,33.1-17.2,46.8c-2,2.6-2.9,6-4.8,8.7c-2.7,3.9-5.4,7.9-8.8,11.2
	l-18.8,18.2c-5.8,5.5-11.1,11.6-17.2,16.7c-5.2,4.3-11,7.9-16.9,11.2c-5.1,2.9-10.5,5.1-15.8,8.4l-41.3,12.9
	c-9.3,1.6-18.7,3.4-28.1,4.3c-16.8,1.5-33.7,2.9-50.6,3.5c-9.6,0.3-19.8,2.6-29-2.3c-5-2.7-9.8-6.1-14-9.9c-1.6-1.5-1.9-5.4-1.3-7.8
	c3.6-13.9,13.4-21.7,26.9-24.4c17.3-3.4,34.8-4.2,52-0.2c8.2,1.9,16,5.6,23.7,8.9c9.1,4,18.1,8.4,27.1,12.7l34.8,3.3
	c5.6-0.2,11.2,0.1,16.5-1.3c16.4-4.4,30.7,0,43.7,9.7c7.5,5.6,14.6,12,21.3,18.6c6.2,6.2,2.5,17.7-6.3,20.7
	c-2.6,0.9-5.4,1.3-9.3,2.2c6.8,1.9,12.5,3.4,18.1,5.1c3.9,1.2,8.1,2.6,8.2,7.5c0.2,5.2-2.8,8.7-7.5,10.8c-5.3,2.4-4.8,2.2-1.6,7.3
	c1.4,2.2,0.8,5.9,0.7,8.9c-0.1,2.7-0.5,5.5-1.4,8.1c-1.1,3-2.1,6.8-4.4,8.3c-7.3,4.6-15.1,8.3-24.2,8.4c-13.3,0.1-26.6,1.5-39.7,0.5
	c-9.3-0.7-18.4-4.2-27.5-6.8c-8.1-2.3-16.1-5.1-24.1-7.9c-11.8-4-23.4-3.2-35.4-0.1c-12.5,3.2-25.3,5.5-38,8.1
	c-17.9,3.6-36.1,5.5-53,13.3c-2.5,1.1-5.5,1.2-8.3,1.7c-12.8,2-25.5,4.4-38.4,5.9c-8.4,0.9-16.9,0.4-25.3,0.4l-18.5-4.7
	c-16.6-5.8-26.5-17.8-31.6-34c-5.6-17.6-6.7-35.8-4-53.9c2-13.6,6.4-26.8,9.2-40.3c3.5-16.9,9.5-32.8,17.5-48.1
	c1.8-3.5,2.5-7.6,4.3-11.1c6.7-12.8,13.1-25.8,20.9-37.9c4.7-7.3,11.6-13.2,17.7-19.6c8.6-9.1,17.1-18.2,26-26.9
	c3.9-3.8,8.4-7.2,13-10c8.9-5.4,18.3-2.1,21.9,7.5c1.6,4.2,2.5,8.6,3.2,13c4.4,25.4-4.1,47.9-15.8,69.7
	c-8.9,16.5-19.4,31.6-32.1,45.4c-5.8,6.3-9.2,14.9-13.6,22.4c-3.1,5.3-6.7,10.4-9.3,15.9c-4.2,8.8-8.5,17.7-11.2,27
	c-3.4,11.8-6.3,23.9-7.4,36.1c-1,11.1,0.6,22.5,1.5,33.8l5.5,21.2c3.8,11.3,13.1,15,23.3,18c8.1,2.4,16.1,5.1,24,8.1
	c8.4,3.3,16.8,6.2,26.1,6.1c3.6,0,7.2,1.1,10.9,1.4c10.1,0.8,20.3,0.8,30.3,2.4c25.6,4.3,51.2-0.6,76.8,0.1c9,0.3,18,0.8,26.9,0.4
	c8.4-0.4,16.8-1.7,25.2-3c10-1.6,20.1-3.3,29.9-5.5c5.6-1.3,11.1-3.4,16.4-5.6c22.6-9.5,45.3-18.8,66.4-31.8c9.3-5.7,20-8.9,30-13.5
	c17.3-8,34.6-16.2,51.9-24.2c5-2.3,10.1-4.3,15.4-5.7c11.2-3,22.5-5.7,33.9-8.1c20.5-4.3,41.3-7.3,61.5-12.7
	c10.2-2.7,19.9-8.5,29-14.3c9.4-6,18.7-12.9,26.4-20.9c7.6-7.9,13.4-17.7,19.8-26.8c9.3-13.1,16.8-27.4,28-39.4
	c10.6-11.4,18.9-24.9,29.4-36.4c15.2-16.6,34.1-27.9,56.4-31.6c12.4-2.1,25.2-1.8,37.8-1.6c8.9,0.1,17.8,1.7,26.7,2.8
	c4.5,0.5,8.9,1.3,13.3,2c14.6,2.4,28.9,5.7,41.9,13"/>
</svg>
