<?xml version="1.0" encoding="utf-8"?>
<!-- Generator: Adobe Illustrator 27.3.1, SVG Export Plug-In . SVG Version: 6.00 Build 0)  -->
<svg version="1.1" id="Calque_1" xmlns="http://www.w3.org/2000/svg" xmlns:xlink="http://www.w3.org/1999/xlink" x="0px" y="0px"
	 viewBox="0 0 824 241.4" style="enable-background:new 0 0 824 241.4;" xml:space="preserve">
<style type="text/css">
	.st0{fill:#7E5E3C;}
	.st1{fill:#EF9B34;stroke:#336A6F;stroke-width:5.04;stroke-miterlimit:10;}
</style>
<g>
	<path class="st0" d="M177.4,229.3c-1.1-4,0.4-8.7,4.4-14.1c0.5-0.7,1.2-1.6,2.1-2.8c0.9-1.2,1.8-2.4,2.7-3.5
		c0.9-1.2,1.6-1.9,2.2-2.1c-0.6-1.4-1.3-2.4-2.2-3.1c-0.8-0.7-1.7-0.9-2.7-0.7c-0.9,0.2-1.9,0.8-2.9,1.7c-1.1,0.9-1.8,1.7-2.3,2.6
		c-0.7,1.1-1.2,1.7-1.5,1.8c-0.7,0.2-1.5,0.1-2.4-0.3c-0.9-0.4-1.4-1-1.6-1.8c-0.3-1.1,0.2-2.3,1.6-3.5c1.3-1.3,3-2.5,4.9-3.9
		c1.9-1.3,3.4-2.1,4.4-2.4c2.2-0.6,4.3-0.2,6.2,1.2c1.9,1.4,3.8,3.7,5.7,7c1.7,2.6,3.2,6.5,4.5,11.6c0.6,2.3,0.9,4.5,1,6.8
		c0.1,1.4,0,2.2-0.3,2.6c-0.2,0.3-0.6,0.6-1.2,1c-0.5,0.3-1,0.5-1.5,0.6c-1.1,0.3-2,0.3-2.8,0c-0.8-0.3-1.3-0.9-1.5-1.7l-0.3-2.3
		c-0.9,1.8-2.3,3.5-4.2,5c-1.9,1.5-3.8,2.5-5.8,3C180.3,232.9,178.1,232,177.4,229.3z M190.6,211.5c-5.2,5.6-7.3,9.9-6.5,13
		c0.3,1.1,1,1.5,2.2,1.2c1.7-0.4,3.2-1.8,4.5-4c0.3-0.5,0.7-1,1.2-1.5c0.5-0.5,0.8-0.8,0.9-0.8l0,0
		C192,215.9,191.2,213.3,190.6,211.5z"/>
	<path class="st0" d="M205.8,200.6c-0.2,0.1-0.6,0.2-1.1,0.4c-0.9,0.3-1.6,0.5-2.1,0.6c-0.6,0.1-1.1,0-1.7-0.3
		c-0.6-0.4-0.9-0.8-1-1.3c-0.2-0.8-0.1-1.6,0.2-2.2c0.3-0.6,0.8-1,1.5-1.2c0.3-0.1,0.8-0.2,1.4-0.5c0.5-0.2,0.9-0.4,1.2-0.4
		c-0.3-1.4-0.9-3.4-1.9-5.7c-0.7-1.8-1.2-3.2-1.4-4c-0.2-1-0.1-1.9,0.5-2.7s1.3-1.3,2.4-1.5c1.2-0.3,2.2-0.2,3.1,0.2
		c0.9,0.4,1.4,1,1.6,1.8c0.1,0.4,0.4,1.3,0.9,3c0.9,3,1.5,5.2,1.8,6.4c0.2-0.1,0.6-0.3,0.9-0.5c0.6-0.4,1.1-0.6,1.5-0.7
		c0.8-0.2,1.5,0,2.1,0.4c0.6,0.5,1.1,1.1,1.2,1.9c0.1,0.4,0.1,0.8,0,1.2c-0.1,0.4-0.2,0.7-0.5,1c-0.2,0.3-1.4,0.9-3.5,1.8
		c0.2,0.8,0.6,2.6,1.4,5.4c0.8,2.9,1.3,4.8,1.6,5.7c0.4,1,1,3.1,1.8,6.2c0.9,3.1,1.4,5,1.5,5.8c0.2,0.7,0,1.5-0.6,2.3
		s-1.2,1.3-2.1,1.5c-1.2,0.3-2.3,0.2-3.3-0.1c-0.5-0.2-0.8-0.4-1.1-0.7c-0.3-0.3-0.8-1.6-1.4-3.8c-1-3.7-1.7-6.5-2.2-8.5
		c-0.2-1.1-0.9-3.5-1.9-7.3C206.3,202.5,205.9,201.1,205.8,200.6z"/>
	<path class="st0" d="M225.8,196.5c-0.2,0.1-0.6,0.2-1.1,0.3c-0.9,0.3-1.6,0.5-2.1,0.5c-0.6,0.1-1.1,0-1.7-0.4
		c-0.5-0.4-0.9-0.8-1-1.3c-0.2-0.8-0.1-1.6,0.2-2.2s0.8-1,1.5-1.1c0.3-0.1,0.8-0.2,1.4-0.4c0.5-0.2,0.9-0.4,1.2-0.4
		c-0.3-1.5-0.8-3.4-1.7-5.8c-0.7-1.8-1.1-3.2-1.2-4.1c-0.2-1,0-1.9,0.6-2.7c0.6-0.8,1.4-1.2,2.5-1.4c1.2-0.2,2.2-0.1,3,0.3
		c0.9,0.4,1.4,1.1,1.5,1.9c0.1,0.4,0.3,1.3,0.8,3c0.8,3,1.4,5.2,1.6,6.5c0.2-0.1,0.6-0.3,0.9-0.5c0.6-0.4,1.1-0.6,1.5-0.7
		c0.8-0.1,1.5,0,2.1,0.5c0.6,0.5,1,1.1,1.2,1.9c0.1,0.4,0.1,0.8,0,1.2c-0.1,0.4-0.3,0.7-0.5,1c-0.2,0.3-1.4,0.9-3.6,1.7
		c0.1,0.8,0.6,2.6,1.3,5.5s1.2,4.8,1.5,5.8c0.3,1.1,0.9,3.1,1.6,6.3s1.2,5.1,1.4,5.9c0.1,0.7-0.1,1.5-0.6,2.3s-1.2,1.3-2.1,1.4
		c-1.2,0.2-2.3,0.2-3.3-0.2c-0.4-0.2-0.8-0.4-1.1-0.7c-0.3-0.3-0.7-1.6-1.3-3.8c-0.9-3.7-1.5-6.6-1.9-8.6c-0.2-1.1-0.8-3.5-1.7-7.4
		C226.2,198.3,225.8,196.9,225.8,196.5z"/>
	<path class="st0" d="M265.9,190.3c0.1,0.8-0.1,1.6-0.6,2.4c-0.5,0.8-1.1,1.3-1.7,1.4c-2.3,0.4-3.6,0-3.9-1.2
		c-0.4-1.2-0.7-2-1.1-2.4s-0.9-0.6-1.6-0.5c-1.2,0.2-2.9,2.4-5.2,6.7c0.4,1.6,1,4,2,7c0.9,3,1.8,5.6,2.7,7.6
		c0.7,1.6,1.1,2.6,1.2,3.2c0.1,0.7-0.2,1.3-1.1,1.9c-0.8,0.6-1.6,1-2.4,1.1c-0.9,0.1-1.8,0.1-2.7-0.1c-0.8-0.2-1.4-0.6-1.7-1.1
		c-0.4-0.9-1.1-2.7-1.9-5.4c-0.8-2.7-1.4-4.9-1.8-6.6c-0.2-0.6-0.6-2.2-1.4-4.7c-1.3-4.1-2-6.7-2.2-7.7c-0.3-1.8-0.2-3.2,0.3-4.1
		c0.5-0.9,1.5-1.4,2.9-1.6c1.1-0.2,2-0.1,2.8,0.3c0.8,0.4,1.2,0.9,1.3,1.5c0.1,0.4,0.2,1.1,0.3,2c0.1,0.8,0.2,1.3,0.2,1.7
		c1.2-2.6,2.5-4.6,3.9-5.9c1.4-1.3,3.1-2.1,5.1-2.4C262.9,183,265.1,185.3,265.9,190.3z"/>
	<path class="st0" d="M271.3,210c-0.5-4.1,1.6-8.6,6.2-13.3c0.6-0.6,1.4-1.4,2.5-2.5c1.1-1.1,2.1-2.1,3.2-3.1c1-1,1.9-1.6,2.4-1.8
		c-0.4-1.5-1-2.6-1.7-3.4c-0.7-0.8-1.6-1.1-2.5-1c-0.9,0.1-2,0.5-3.1,1.3c-1.2,0.7-2,1.5-2.6,2.2c-0.8,1-1.4,1.6-1.7,1.6
		c-0.7,0.1-1.5-0.1-2.3-0.7c-0.8-0.5-1.2-1.2-1.3-2c-0.1-1.1,0.5-2.2,2-3.3c1.5-1.1,3.3-2.1,5.4-3.2c2.1-1,3.7-1.6,4.7-1.7
		c2.3-0.3,4.3,0.4,6,2c1.7,1.6,3.3,4.2,4.7,7.7c1.3,2.8,2.2,6.9,2.9,12.1c0.3,2.3,0.3,4.6,0.1,6.9c-0.1,1.4-0.3,2.2-0.6,2.5
		c-0.3,0.3-0.7,0.6-1.3,0.8c-0.6,0.2-1.1,0.4-1.5,0.4c-1.1,0.1-2,0-2.7-0.4s-1.2-1-1.3-1.9l0-2.3c-1.1,1.7-2.7,3.2-4.8,4.4
		c-2.1,1.2-4.1,1.9-6.1,2.2C273.7,213.9,271.7,212.8,271.3,210z M286.9,194.1c-5.9,4.9-8.6,8.9-8.2,12c0.1,1.1,0.8,1.6,2,1.4
		c1.7-0.2,3.4-1.3,5-3.4c0.4-0.4,0.8-0.9,1.4-1.3c0.6-0.4,0.9-0.7,1-0.7l0,0C287.7,198.7,287.3,196,286.9,194.1z"/>
	<path class="st0" d="M301.9,189.8c-0.6,0.1-1.2-0.2-1.7-0.7s-0.8-1.1-0.8-1.7c0-0.3,0.2-1,0.8-2c0.3-0.5,0.5-0.9,0.5-1.1l-0.6-4.1
		c-0.1-1.3,0.2-2.3,1-3.2c0.8-0.8,1.8-1.3,3.3-1.4c0.9-0.1,1.7,0.1,2.5,0.5c0.8,0.4,1.2,0.9,1.3,1.5c0.6-1.1,1.5-1.7,2.8-1.8
		c1.6-0.1,3.9,0.7,6.7,2.4c2.8,1.7,5.2,3.8,7.1,6.2c1.9,2.4,2.9,4.8,3.1,7.1c0.2,2.5-1,5.4-3.7,8.8c-2.7,3.4-6.5,6.9-11.4,10.5
		c-0.1,0.1-0.2,0.2-0.2,0.2c1.3,8.7,1.9,13.3,1.9,13.8c0.1,1-0.2,1.8-0.9,2.6c-0.7,0.7-1.5,1.2-2.5,1.2c-2.7,0.2-4.2-1.3-4.5-4.7
		c-0.1-0.7-0.1-2.1-0.3-4.1c-0.1-2.7-0.2-4.6-0.3-5.9c-0.2-2.2-0.9-6.5-2.2-13.1C302.7,195.3,302,191.5,301.9,189.8z M308.9,185.8
		c0.1,1,0.2,2.5,0.5,4.4c0.2,2,0.4,3.7,0.5,4.9c0.1,1.4,0.5,3.8,1.1,7.2c0.3,1.7,0.5,2.8,0.5,3.2c0.7-0.1,1.8-0.9,3.3-2.6
		c1.5-1.7,2.7-3.5,3.6-5.3c0.9-1.8,1.2-3.4,1.1-4.8c-0.1-1.6-0.7-3.2-1.5-5c-0.9-1.7-1.9-3.2-3.2-4.5c-1.2-1.3-2.2-1.9-3-1.8
		c-0.9,0.1-1.6,0.6-2.1,1.6C309,183.9,308.8,184.9,308.9,185.8z"/>
	<path class="st0" d="M358.2,192.2c0.1,1.6-2.3,4.4-7.2,8.6c-0.2,0.1-0.5,0.4-1,0.9c-4.2,3.8-6.7,5.7-7.8,5.7
		c-2.1,0.1-3.9-1-5.4-3.4c-1.5-2.4-2.4-5.1-2.6-8.2l-0.1-1.2c-0.3,0.2-0.8,0.3-1.5,0.3c-0.3,0-0.6-0.2-1-0.6s-0.5-0.9-0.5-1.3
		c-0.1-1,0.1-1.7,0.4-2.1c0.3-0.5,1-1,2.1-1.5c-0.2-2.6,0-5,0.4-7.4c0.5-2.3,1.1-4.3,2.1-5.9c0.9-1.6,1.8-2.4,2.6-2.5
		c2.2-0.1,4.3,0.1,6.4,0.8c2.1,0.7,3.8,1.6,5.3,2.9c1.5,1.3,2.2,2.4,2.3,3.5c0.1,1.3,0,2.2-0.2,2.8c-0.2,0.6-0.6,1.2-1.2,1.7
		c-0.6,0.5-2.3,1.7-5.3,3.6c-2.9,1.8-4.6,3-5,3.3l0.1,1.7c0.1,1.7,0.4,3.1,1,4.3c0.6,1.2,1.2,1.8,1.8,1.8c1-0.1,2.8-1.6,5.4-4.6
		c2.1-2.4,3.4-3.9,4.1-4.4s1.3-0.9,1.9-0.9C357.2,190,358.1,190.7,358.2,192.2z M342.3,179.6c-0.4,0-0.8,0.9-1.2,2.5
		c-0.4,1.6-0.5,3-0.4,4.1c0.3-0.2,1.1-0.6,2.2-1.2c1.9-1,3-1.7,3.4-2c0-0.8-0.5-1.6-1.3-2.4C344.2,179.9,343.3,179.6,342.3,179.6z"
		/>
	<path class="st0" d="M371.3,200.1c1.2,0,3.1-0.3,5.7-0.7c2.6-0.5,5.3-1.2,8.1-2.2c2-0.7,3.3-1.1,4-1.1c1.4,0,2.1,1,2.2,3.2
		c0,0.8-0.3,1.6-0.9,2.3c-0.6,0.8-1.6,1.3-2.9,1.7c-1.3,0.4-3.4,0.8-6,1.3c-6.7,1.2-11.8,1.8-15.5,1.9c-2.7,0.1-4.1-0.6-4.1-2.1
		c0-1.4,1.4-5.4,4.4-12.1c0.7-1.6,1.2-2.6,1.3-3.1c0.5-1.3,1.4-3,2.8-5.3c1.3-2.3,2.3-3.9,3-4.9c-0.6,0-2,0.3-4.3,0.8
		c-3.2,0.7-5.3,1.1-6.5,1.1c-1,0-1.8-0.2-2.5-0.7s-1.1-1-1.1-1.7c0-1.1,0.2-2,0.7-2.6c0.5-0.7,1.1-1,1.9-1c3.8-0.1,8.5-1,14-2.6
		c2.1-0.6,3.4-0.9,3.9-0.9c2.5-0.1,3.8,0.6,3.9,2c0,0.7-1.2,3.4-3.7,8.1c-1.5,2.8-2.5,4.7-2.8,5.6c-0.1,0.3-0.6,1.4-1.3,3.1
		C372.9,195.6,371.5,198.9,371.3,200.1z"/>
	<path class="st0" d="M397.9,186.3c0-0.9,0.3-1.7,1-2.6c0.7-0.9,1.4-1.4,2.3-1.4c0.6,0,2.3-0.2,5.3-0.6c1.7-0.3,2.9-0.4,3.5-0.5
		c0.6-0.1,1.8-0.2,3.5-0.5c2.6-0.4,4.2-0.6,4.9-0.6c1,0,1.9,0.4,2.6,1c0.7,0.7,1,1.5,1,2.3c0,0.9-0.3,1.7-0.8,2.5
		c-0.6,0.8-1.3,1.2-2.2,1.2c-3.4,0-7.4,0.5-12,1.5c-3.5,0.8-5.4,1.2-5.9,1.2c-0.9,0-1.6-0.4-2.1-1.1
		C398.2,187.9,397.9,187.1,397.9,186.3z"/>
	<path class="st0" d="M432.6,161.4c0.1-4.4,1.8-6.5,5.1-6.4c1.1,0,2,0.3,2.9,0.8c0.8,0.5,1.2,1.2,1.2,2.2c0,0.5-0.1,1.4-0.2,2.9
		c-0.2,2.6-0.4,4.6-0.4,6.2c0,1.3,0.3,5.1,1.1,11.3c0.6,4.9,0.9,8,1,9.3c0.1,2.1,0.5,5.4,1.4,10c0.5,2.9,0.8,4.6,0.7,5.3
		c0,1-0.4,1.9-1.1,2.4c-0.7,0.6-1.7,0.8-2.9,0.8c-1.4,0-2.6-0.3-3.5-0.8c-0.9-0.5-1.4-1.2-1.4-2c0-0.6-0.1-2.1-0.4-4.5
		c-0.5-5-0.8-8.9-0.9-11.5c-0.1-1.7-0.5-5-1.1-9.8C433,169.9,432.6,164.6,432.6,161.4z"/>
	<path class="st0" d="M475.9,193.2c-0.1,1.6-2.8,4.2-8.1,7.8c-0.2,0.1-0.5,0.4-1.1,0.8c-4.5,3.3-7.3,4.9-8.3,4.9
		c-2.1-0.1-3.7-1.4-5-4c-1.3-2.5-1.8-5.3-1.7-8.4l0.1-1.2c-0.4,0.1-0.9,0.2-1.5,0.1c-0.3,0-0.6-0.3-0.9-0.7
		c-0.3-0.5-0.4-0.9-0.4-1.4c0-1,0.2-1.6,0.6-2.1c0.3-0.4,1.1-0.9,2.3-1.3c0.1-2.6,0.5-5,1.2-7.3c0.7-2.2,1.6-4.1,2.7-5.6
		c1.1-1.5,2-2.2,2.8-2.2c2.2,0.1,4.3,0.6,6.3,1.5c2,0.9,3.6,2,5,3.4c1.3,1.4,2,2.6,1.9,3.7c-0.1,1.3-0.2,2.2-0.5,2.8
		c-0.3,0.6-0.7,1.1-1.3,1.6c-0.6,0.5-2.5,1.5-5.6,3c-3.1,1.5-4.8,2.4-5.3,2.8l-0.1,1.8c-0.1,1.7,0.1,3.1,0.5,4.4s1,1.9,1.6,1.9
		c1,0.1,3-1.3,5.8-4c2.3-2.2,3.8-3.5,4.6-4s1.4-0.7,2-0.7C475.1,190.9,476,191.7,475.9,193.2z M461.5,179c-0.4,0-0.9,0.8-1.4,2.3
		c-0.5,1.6-0.8,2.9-0.9,4.1c0.4-0.2,1.1-0.5,2.3-1c2-0.8,3.2-1.3,3.6-1.6c0-0.8-0.3-1.6-1-2.5C463.3,179.5,462.5,179.1,461.5,179z"
		/>
	<path class="st0" d="M504.6,198.6c-0.1,1.9-0.9,3.7-2.3,5.3c-1.4,1.6-3.2,2.9-5.5,3.9c-2.2,1-4.3,1.4-6.3,1.2
		c-3.1-0.2-5.5-0.9-7.3-2s-2.5-2.6-2.4-4.4c0.2-2.1,0.7-3.7,1.7-5c1-1.2,2.2-1.8,3.5-1.7c1,0.1,1.8,0.4,2.4,1.1
		c0.7,0.6,1,1.3,0.9,1.9c-0.1,1.3-0.4,2.1-1,2.3c-0.6,0.3-1,0.8-1,1.5c0,0.4,0.3,0.8,0.9,1c0.6,0.3,1.4,0.5,2.3,0.5
		c1.9,0.1,3.5-0.2,4.7-1.1c1.3-0.9,1.9-1.9,2-3.2c0.3-4.1-2.5-6.4-8.5-6.9c-2-0.2-4-0.2-6-0.3c-0.6,0-0.9,0-1.1,0
		c-0.9-0.1-1.7-0.6-2.4-1.5s-1-2-0.9-3.3c0.1-1.4,1.1-3.3,2.9-5.5c1.8-2.3,3.9-4.1,6.1-5.5c2.2-1.4,4.2-2.1,5.8-1.9
		c1.2,0.1,2.2,0.5,3.1,1.3s1.5,1.8,2,3.1c0.5,1.3,0.7,2.4,0.6,3.4c0,0.7-0.4,1.3-1.1,1.9c-0.7,0.6-1.4,0.8-2.4,0.8
		c-1.8-0.1-2.9-0.7-3.1-1.8c-0.1-0.4-0.3-0.8-0.6-1.2c-0.3-0.4-0.6-0.6-0.9-0.6c-1.2-0.1-2.3,0.4-3.3,1.3c-1,1-1.6,1.9-1.7,2.9
		c0,0.4,0.1,0.6,0.4,0.8c0.3,0.2,1,0.3,2,0.3c0.2,0,0.6,0,1.2,0.1c1.4,0.1,2.5,0.2,3.4,0.2c1.5,0.1,3.2,0.7,5.4,1.8
		c2.1,1.1,3.7,2.4,4.7,4C504.3,194.9,504.7,196.7,504.6,198.6z"/>
	<path class="st0" d="M536.9,187.7c-0.2,0-0.6,0-1.1,0c-1,0-1.7-0.1-2.1-0.1c-0.6-0.1-1.1-0.4-1.5-0.9c-0.4-0.5-0.6-1-0.5-1.5
		c0.1-0.9,0.4-1.5,0.9-2c0.5-0.5,1.1-0.7,1.8-0.6c0.3,0,0.8,0,1.5,0c0.6-0.1,1-0.1,1.3,0c0.2-1.5,0.2-3.5,0.1-6
		c-0.1-2-0.1-3.4,0-4.2c0.1-1,0.6-1.8,1.3-2.4s1.7-0.8,2.8-0.6c1.2,0.1,2.1,0.6,2.8,1.2c0.7,0.7,1,1.4,0.9,2.2
		c0,0.4-0.1,1.4-0.2,3.1c-0.1,3.2-0.2,5.4-0.4,6.6c0.3,0,0.6-0.1,1-0.2c0.6-0.2,1.2-0.2,1.6-0.2c0.8,0.1,1.4,0.5,1.9,1.1
		c0.5,0.6,0.6,1.4,0.5,2.2c0,0.4-0.2,0.8-0.4,1.1c-0.2,0.3-0.5,0.6-0.8,0.8s-1.6,0.4-3.9,0.5c-0.1,0.8-0.2,2.6-0.5,5.6
		s-0.3,4.9-0.4,5.9c0,1.1-0.1,3.3-0.3,6.5c-0.2,3.2-0.4,5.2-0.5,6c-0.1,0.7-0.5,1.4-1.3,2c-0.8,0.6-1.6,0.8-2.4,0.7
		c-1.3-0.2-2.3-0.5-3.1-1.2c-0.4-0.3-0.6-0.7-0.8-1c-0.2-0.4-0.2-1.7,0-4c0.3-3.8,0.5-6.7,0.8-8.8c0.1-1.1,0.3-3.6,0.7-7.5
		C536.8,189.6,536.9,188.2,536.9,187.7z"/>
	<path class="st0" d="M551.7,201.5c0.5-3.3,1.8-6.5,3.9-9.8c2.1-3.2,4.4-5.6,7-7.1c0.2-0.1,0.5-0.3,0.8-0.7c0.6-0.7,1.2-0.9,2-0.8
		c0.6,0.1,1.3,0.3,2,0.7c0.7,0.3,1.3,0.6,1.9,0.6c1.7,0.3,3.5,1.2,5.2,2.9c1.8,1.7,3,3.7,3.7,6.2c0.7,2.4,0.9,5,0.5,7.9
		c-0.5,3.1-1.6,5.8-3.3,8.3c-1.8,2.4-4,4.3-6.7,5.6c-2.7,1.3-5.2,1.8-7.5,1.4c-3.6-0.5-6.2-2.1-7.9-4.8
		C551.6,209.2,551,205.8,551.7,201.5z M562.9,211.3c1.5,0.2,3-0.7,4.6-2.6c1.6-2,2.7-4.3,3-7c0.4-2.8,0.3-5.5-0.3-8.1
		c-0.6-2.6-1.5-4-2.5-4.1c-1.2-0.2-2.7,1.1-4.4,3.8c-1.7,2.7-2.8,5.7-3.3,8.9c-0.4,2.7-0.3,4.8,0.2,6.4S561.6,211.2,562.9,211.3z"/>
	<path class="st0" d="M592.4,188.3c2.7,0.5,3.9,1.9,3.5,4.2c-0.1,0.5-0.4,1.8-0.8,3.8c-0.7,3-1.1,5-1.4,6.2
		c-1.5,8.2-1.1,12.4,1.1,12.9c2.1,0.4,4.2-0.4,6.1-2.4c1.9-2,3.2-4.4,3.7-7.3c0.5-2.8,0.6-5.9,0.2-9.2c-0.2-1.4-0.2-2.4-0.1-2.9
		c0.2-0.9,0.8-1.6,1.8-2.1c1.1-0.6,2.2-0.7,3.5-0.5c1.5,0.3,2.4,0.9,2.8,1.9c0.4,1,0.2,4.8-0.6,11.4c-0.5,3.8-0.7,7.6-0.8,11.4
		c0,2.1-0.2,3.6-0.4,4.7c-0.2,0.8-0.7,1.5-1.6,2.1c-0.9,0.5-1.6,0.8-2.3,0.6c-1.3-0.2-2.3-0.6-3.1-1.2c-0.4-0.3-0.7-0.7-0.9-1.2
		c-0.1-0.4-0.1-2.1,0.1-5c-2.3,2.1-4.8,3.7-7.5,4.7c-2.7,1-5.1,1.3-7.2,1c-1.9-0.4-3.2-1.9-4-4.6c-0.7-2.7-0.7-6.4,0-11
		c0.1-0.8,0.4-2.5,0.8-5.2c0.8-5.1,1.2-8,1.4-8.9c0.2-1.3,0.8-2.2,1.8-2.8S590.9,188.1,592.4,188.3z"/>
	<path class="st0" d="M642.5,220.5c-0.4,1.9-1.4,3.5-3,4.9c-1.6,1.4-3.6,2.4-6,3c-2.4,0.6-4.5,0.7-6.4,0.3c-3-0.7-5.3-1.7-6.9-3.1
		c-1.6-1.4-2.1-2.9-1.8-4.7c0.5-2,1.3-3.6,2.4-4.7c1.2-1.1,2.4-1.4,3.7-1.2c1,0.2,1.7,0.7,2.3,1.4s0.8,1.4,0.6,2
		c-0.3,1.3-0.7,2-1.3,2.1c-0.7,0.2-1.1,0.6-1.2,1.3c-0.1,0.4,0.2,0.8,0.8,1.2c0.6,0.4,1.3,0.7,2.2,0.9c1.9,0.4,3.5,0.3,4.9-0.4
		c1.4-0.7,2.2-1.6,2.5-2.8c0.9-4.1-1.6-6.7-7.4-8c-2-0.4-3.9-0.8-5.9-1.1c-0.6-0.1-0.9-0.2-1.1-0.2c-0.9-0.2-1.6-0.8-2.1-1.8
		c-0.5-1-0.7-2.2-0.4-3.4c0.3-1.4,1.5-3.1,3.7-5.1c2.1-2,4.4-3.5,6.8-4.6c2.4-1.1,4.4-1.5,6-1.1c1.2,0.3,2.2,0.8,2.9,1.7
		c0.7,0.9,1.3,2,1.6,3.4c0.3,1.4,0.3,2.5,0.1,3.5c-0.1,0.7-0.6,1.2-1.3,1.7c-0.7,0.5-1.6,0.6-2.4,0.4c-1.8-0.4-2.7-1.1-2.8-2.2
		c0-0.4-0.2-0.8-0.4-1.3c-0.2-0.4-0.5-0.7-0.8-0.7c-1.1-0.3-2.3,0-3.4,0.8c-1.2,0.8-1.8,1.7-2.1,2.7c-0.1,0.4,0,0.7,0.3,0.9
		c0.3,0.2,0.9,0.4,1.9,0.6c0.2,0,0.5,0.1,1.2,0.2c1.4,0.3,2.5,0.5,3.3,0.7c1.4,0.3,3.1,1.2,5,2.6c1.9,1.4,3.3,3,4.1,4.7
		C642.8,216.8,643,218.6,642.5,220.5z"/>
	<path class="st0" d="M668.6,236.1c0.3-0.9,1-1.7,2-2.2c1.1-0.5,2.1-0.6,3.2-0.3c1,0.3,1.7,1.1,2.2,2.4c0.5,1.3,0.6,2.5,0.3,3.5
		c-0.2,0.7-0.8,1.3-1.7,1.6s-1.9,0.3-3,0C668.9,240.4,667.9,238.7,668.6,236.1z M679.8,225.5c-0.4,1.2-0.9,2.2-1.7,2.8
		c-0.8,0.6-1.7,0.8-2.6,0.5c-0.9-0.3-1.8-0.8-2.5-1.7c-0.7-0.9-1-1.6-0.7-2.4c0.1-0.4,0.6-1.9,1.4-4.5c1.5-4.8,2.4-7.8,2.8-9.2
		c0.4-1.3,1.2-4.7,2.5-10.4c0.9-3.8,1.4-6.1,1.6-6.6c0.3-1.1,1-2,2-2.7c1-0.7,2-0.9,3-0.6c2.6,0.7,3.4,2.7,2.5,5.8
		c-0.1,0.2-0.2,0.7-0.5,1.5c-0.9,2.9-1.6,5.4-2.3,7.5c-0.9,3.2-2.2,7.9-3.8,14C680.6,222.7,680.1,224.7,679.8,225.5z"/>
</g>
<g>
	<g>
		<path class="st1" d="M73.9,75.3l21.5,70.6l-3.2,0.8c-2.1,0.6-4.8,1.2-8.1,1.9c-3.3,0.7-6.3,1.3-9,1.6c-2.7,0.4-4.8,0.4-6.2,0.2
			L47.6,83.1l-33,9l-4.9-21L93,43.5l7.3,22.7L73.9,75.3z"/>
		<path class="st1" d="M109,37l8.7,37.3l7.5-1.5L116,37.9l29.1-3.5l29.5,118.8l-22.1,3.9l-21.3-61.3l-8.8-0.6l10.8,57l-25.5,5.5
			L84.2,55.2l-9.7-0.4l-3.1-13.6L109,37z"/>
		<path class="st1" d="M188.4,119.9l57.3-5.6l3,23.6l-79.8,7.5l-16.3-81.2l-7.4,2.5l-2.4-26l64.4-19.4l4.8,23.4l-36.4,11.6l3.3,16.8
			l36-11.6l4.2,19.3l-36.3,12.5L188.4,119.9z"/>
		<path class="st1" d="M282.9,131.8l-9.3-82.3l-7.6,1.8l-0.2-26.1l65.8-13.9l2.8,23.7l-37.3,8.5l1.9,17l28-6.2l2.5,19.6l-28.4,7.1
			l6.1,49.2c-1.3,0.3-3.5,0.6-6.6,1.1c-3.1,0.5-5.9,0.8-8.5,1C288,132.7,285,132.5,282.9,131.8z"/>
		<path class="st1" d="M370.2,11.5l56.3,128.8l-22.9,2.7l-26.7-59.3l-14.4-2l-21.6,48l-28.3,1.9L370.2,11.5z M363.2,68.7l13,1.6
			l-5.8-21L363.2,68.7z"/>
		<path class="st1" d="M439.6,64.4c-1.3,1.3-2.8,2.6-4.4,4c-1.6,1.4-2.6,2.3-3.2,2.7l6.2,40.1l-19,4.5L409.8,44
			c-0.2,0-0.6,0.3-1.3,1c-0.6,0.6-1.4,1.6-2.5,2.7c-1,1.2-1.6,1.8-1.8,2c-0.1,0-0.4-0.8-1-2.4c-0.6-1.6-1.3-3.8-2.3-6.6
			c-0.9-2.8-2-6-3.2-9.4c-1.2-3.4-2-5.6-2.4-6.5c4.5-1.4,8.6-2.6,12.6-3.8c3.9-1.2,8.1-2.2,12.4-3.3c4.3-1,8.5-1.8,12.4-2.4
			c3.9-0.6,7.8-0.8,11.6-0.7c3,0.1,5.7,0.4,8.2,0.9c2.5,0.5,4.8,1.3,7,2.4c2.2,1.1,4.1,2.6,5.8,4.4c1.7,1.8,3.1,3.9,4.1,6.4
			c0.3,0.7,0.5,1.7,0.5,2.8c0,1.8-0.6,3.7-1.8,5.9c-1.1,2.1-2.6,4.3-4.4,6.7c-1.8,2.4-3.9,4.8-6.1,7.3c2,0.3,3.9,1.8,5.7,4.5
			c1.8,2.7,3.1,5.9,3.9,9.6l8.3,48.8l-16.7,3.2l-11.1-44.8c-0.2-0.6-0.6-1.6-1.2-2.9c-0.6-1.3-1.4-2.5-2.4-3.8
			c-1-1.3-2.1-1.9-3.4-1.9C440.5,64.2,440.2,64.2,439.6,64.4z M427,39.1l2.7,16.2c2.4-0.5,5.2-2.5,8.2-6.1c3.1-3.6,4.6-6.5,4.7-8.7
			c0-1.1-0.4-1.8-1.3-2.1c-3.7-1-6.2-1.6-7.5-1.6C431.5,36.8,429.2,37.5,427,39.1z"/>
		<path class="st1" d="M589,130l-27-1.1l-5.9-12.4l-8,15.4l-17.5-1.5l-10-97.8l31.3,6.6l2.3,33.2l7.5-11.4l6.8,16.1l10-50l31.1,1.1
			L589,130z"/>
		<path class="st1" d="M626.1,123l56.4,11.8l-4.2,23.4l-78.4-16.7l8.8-82.4l-7.8,0.1l5.5-25.5l67.2,0.8l-2.4,23.8l-38.3,0.2l-1.9,17
			l37.8-0.3L667.1,95l-38.4,1.1L626.1,123z"/>
		<path class="st1" d="M671.9,51.6c5.8-7.7,15.1-10.2,27.8-7.5c6.7,1.4,13.5,3.8,20.5,7.3c7,3.4,15.2,7.9,24.7,13.3
			c-1.2,1.6-3.8,5.7-7.9,12.4c-4.1,6.6-6.2,9.9-6.5,9.8c-0.2-0.3-1.7-1.6-4.3-3.9c-2.7-2.2-5.6-4.5-8.8-6.7
			c-3.2-2.2-5.9-3.7-8.1-4.4c-1-0.3-3.2-1.4-6.7-3.1c-3.5-1.8-6.1-2.9-7.9-3.2c-1.6-0.3-3-0.3-4,0.2c-1.7,0.7-2.7,1.8-3,3.2
			c-0.3,1.3,0,2.8,0.9,4.6c0.9,1.8,2.2,3.6,3.8,5.5c1.6,1.9,3.5,3.8,5.6,5.8c2.1,1.9,4.2,3.7,6.3,5.4c4.3,3.4,7.9,6.9,10.8,10.7
			c2.9,3.8,5,7.4,6.3,10.8c1.3,3.4,2.1,6.8,2.4,10.1c0.3,3.3,0.1,6.3-0.5,9.1c-0.7,3.3-1.9,6.1-3.7,8.5c-3.2,4.2-7.1,6.8-11.7,8
			c-4.7,1.2-9.9,1.2-15.8-0.1c-3.4-0.7-7.1-1.9-11.1-3.4c-4.1-1.6-7.9-3.3-11.6-5.2c-3.7-1.9-7.6-4-11.6-6.3
			c-4.1-2.3-7.6-4.3-10.7-6.1c0.8-1,2.1-3,4-6c1.9-3,3.5-5.6,4.9-7.9c1.3-2.2,2.6-4.2,3.6-5.8c1.1-1.7,1.7-2.5,1.8-2.5
			c0.8,1,3.8,3.5,9,7.5c5.1,4,9.2,6.5,12.3,7.5c1.1,0.4,3,1.2,5.6,2.5c2.6,1.3,4.4,2.2,5.3,2.7s2.1,0.8,3.5,1.1c1.6,0.3,3,0.3,4-0.2
			c1.9-0.8,2.9-1.9,3.2-3.2c0.6-2.9-2.4-7.2-9-12.7c-4.1-3.4-8.5-7.8-13.1-13.3c-4.7-5.5-8.5-11.5-11.5-18.1
			c-3-6.6-3.9-12.7-2.7-18.3C668.7,56.8,670,54.1,671.9,51.6z"/>
		<path class="st1" d="M783.7,91l-16.2,72l-3.2-0.9c-2.1-0.6-4.8-1.4-8-2.4c-3.2-1-6.1-2-8.7-3c-2.6-1-4.4-2-5.5-2.9L757,84.7
			l-33.1-8.4l6.1-20.7l86.1,17.2L811.2,96L783.7,91z"/>
	</g>
</g>
</svg>
