<?xml version="1.0" encoding="utf-8"?>
<!-- Generator: Adobe Illustrator 27.3.1, SVG Export Plug-In . SVG Version: 6.00 Build 0)  -->
<svg version="1.1" id="Layer_1" xmlns="http://www.w3.org/2000/svg" xmlns:xlink="http://www.w3.org/1999/xlink" x="0px" y="0px"
	 viewBox="0 0 591.7 190.1" style="enable-background:new 0 0 591.7 190.1;" xml:space="preserve">
<style type="text/css">
	.st0{fill:none;}
	.st1{fill:none;stroke:#BB8A6A;stroke-width:2.088;stroke-miterlimit:10;}
	.st2{fill:#9E511F;}
</style>
<g>
	<path class="st0" d="M61.9,194.1c117.5-60.8,344.3-60.8,471.9,2"/>
	<path class="st1" d="M85,179.2c-1.2-3.4-0.4-7.5,2.6-12.4c0.4-0.6,0.9-1.5,1.6-2.6c0.7-1.1,1.4-2.2,2-3.2c0.7-1.1,1.2-1.7,1.7-2
		c-0.6-1.1-1.3-2-2.1-2.5c-0.8-0.5-1.6-0.6-2.3-0.4c-0.8,0.3-1.5,0.8-2.4,1.7c-0.8,0.8-1.4,1.6-1.8,2.4c-0.5,1-0.9,1.6-1.1,1.7
		c-0.6,0.2-1.3,0.2-2.1-0.1s-1.3-0.8-1.5-1.4c-0.3-0.9,0-2,1-3.1s2.3-2.4,3.9-3.7s2.8-2.1,3.6-2.4c1.9-0.7,3.7-0.5,5.4,0.5
		c1.8,1,3.6,2.9,5.4,5.6c1.6,2.1,3.2,5.3,4.8,9.6c0.7,1.9,1.2,3.8,1.4,5.7c0.2,1.2,0.2,1.9,0,2.2c-0.2,0.3-0.5,0.6-0.9,0.9
		c-0.4,0.3-0.8,0.5-1.2,0.7c-0.9,0.3-1.7,0.4-2.4,0.2c-0.7-0.2-1.2-0.6-1.4-1.4l-0.5-1.9c-0.6,1.6-1.7,3.2-3.2,4.6
		c-1.5,1.4-3.1,2.4-4.7,3C87.8,182,85.8,181.4,85,179.2z M95,162.9c-4,5.2-5.5,9.1-4.6,11.7c0.3,0.9,1,1.2,2,0.8
		c1.4-0.5,2.6-1.8,3.5-3.8c0.2-0.4,0.5-0.9,0.9-1.4c0.4-0.5,0.7-0.7,0.7-0.8l0,0C96.5,166.5,95.6,164.3,95,162.9z"/>
	<path class="st1" d="M107.3,152.4c-0.2,0.1-0.5,0.2-0.9,0.4c-0.8,0.3-1.3,0.5-1.7,0.7c-0.5,0.1-1,0.1-1.5-0.2
		c-0.5-0.3-0.8-0.6-0.9-1c-0.2-0.7-0.2-1.3,0-1.9c0.2-0.6,0.6-0.9,1.2-1.1c0.3-0.1,0.7-0.3,1.2-0.5c0.4-0.2,0.8-0.4,1-0.5
		c-0.4-1.2-1-2.8-2-4.8c-0.7-1.5-1.2-2.6-1.4-3.4c-0.3-0.8-0.2-1.6,0.2-2.3s1.1-1.2,2-1.5c1-0.3,1.9-0.3,2.6,0
		c0.8,0.3,1.3,0.8,1.5,1.4c0.1,0.3,0.4,1.1,0.9,2.5c1,2.5,1.7,4.3,2,5.4c0.2-0.1,0.5-0.3,0.8-0.5c0.5-0.4,0.9-0.6,1.2-0.7
		c0.6-0.2,1.3-0.1,1.9,0.2c0.6,0.3,1,0.9,1.2,1.5c0.1,0.3,0.1,0.7,0.1,1c-0.1,0.3-0.2,0.6-0.3,0.9c-0.2,0.3-1.1,0.9-2.9,1.8
		c0.2,0.6,0.7,2.2,1.6,4.6c0.9,2.4,1.5,4,1.8,4.8c0.4,0.9,1,2.6,2,5.2c0.9,2.6,1.5,4.2,1.7,4.9c0.2,0.6,0.1,1.3-0.3,2
		c-0.4,0.7-1,1.2-1.7,1.4c-1,0.3-2,0.4-2.8,0.2c-0.4-0.1-0.7-0.3-1-0.5c-0.3-0.2-0.8-1.3-1.4-3.2c-1.1-3.1-1.9-5.5-2.4-7.2
		c-0.3-0.9-1-3-2.1-6.1C107.8,153.9,107.4,152.7,107.3,152.4z"/>
	<path class="st1" d="M124.2,147.5c-0.2,0.1-0.5,0.2-0.9,0.3c-0.8,0.3-1.4,0.5-1.8,0.6c-0.5,0.1-1,0.1-1.5-0.2
		c-0.5-0.3-0.8-0.6-0.9-1.1c-0.2-0.7-0.2-1.3,0.1-1.9s0.7-0.9,1.2-1.1c0.3-0.1,0.7-0.2,1.2-0.5c0.4-0.2,0.8-0.4,1-0.4
		c-0.3-1.2-0.9-2.9-1.8-4.9c-0.7-1.5-1.1-2.7-1.3-3.4c-0.2-0.9-0.1-1.6,0.3-2.3c0.4-0.7,1.1-1.2,2-1.4c1-0.3,1.9-0.2,2.6,0.1
		c0.8,0.3,1.2,0.8,1.4,1.5c0.1,0.3,0.4,1.1,0.9,2.5c0.9,2.6,1.5,4.4,1.8,5.4c0.2-0.1,0.5-0.2,0.8-0.5c0.5-0.3,0.9-0.6,1.3-0.7
		c0.7-0.2,1.3-0.1,1.8,0.3c0.6,0.4,1,0.9,1.1,1.6c0.1,0.3,0.1,0.7,0,1c-0.1,0.3-0.2,0.6-0.4,0.9c-0.2,0.3-1.2,0.8-3,1.7
		c0.2,0.7,0.6,2.2,1.4,4.6c0.8,2.4,1.3,4,1.6,4.9c0.3,0.9,0.9,2.6,1.8,5.3c0.8,2.6,1.4,4.3,1.5,4.9c0.2,0.6,0,1.3-0.4,2
		c-0.4,0.7-1,1.2-1.7,1.4c-1.1,0.3-2,0.3-2.8,0c-0.4-0.1-0.7-0.3-1-0.6c-0.3-0.2-0.7-1.3-1.3-3.2c-1-3.1-1.7-5.5-2.2-7.3
		c-0.2-0.9-0.9-3-1.9-6.2C124.7,149,124.3,147.8,124.2,147.5z"/>
	<path class="st1" d="M158.4,140c0.1,0.7,0,1.4-0.4,2.1c-0.4,0.7-0.8,1.2-1.4,1.3c-1.9,0.4-3.1,0.2-3.4-0.8c-0.4-1-0.7-1.7-1.1-2
		c-0.4-0.3-0.8-0.4-1.4-0.3c-1,0.2-2.4,2.2-4.1,6c0.4,1.4,1.1,3.4,2.1,5.9c1,2.6,1.9,4.7,2.7,6.4c0.7,1.3,1,2.2,1.2,2.7
		c0.1,0.6-0.1,1.1-0.8,1.7s-1.3,0.9-2,1.1c-0.8,0.2-1.6,0.2-2.3,0c-0.7-0.2-1.3-0.4-1.6-0.8c-0.4-0.7-1-2.3-1.9-4.5
		c-0.8-2.3-1.5-4.1-1.9-5.5c-0.2-0.6-0.7-1.9-1.5-4c-1.3-3.4-2.1-5.6-2.3-6.5c-0.3-1.6-0.3-2.7,0.1-3.5c0.4-0.8,1.2-1.3,2.4-1.6
		c0.9-0.2,1.7-0.2,2.4,0.1c0.7,0.3,1.1,0.7,1.2,1.2c0.1,0.4,0.2,1,0.3,1.7c0.1,0.7,0.2,1.1,0.3,1.4c0.9-2.3,1.9-4,3.1-5.2
		c1.2-1.2,2.6-2,4.3-2.4C155.5,133.8,157.5,135.7,158.4,140z"/>
	<path class="st1" d="M164,156.6c-0.6-3.5,1-7.4,4.8-11.7c0.5-0.5,1.1-1.3,2-2.3c0.9-1,1.7-1.9,2.6-2.8c0.9-0.9,1.5-1.5,2-1.6
		c-0.4-1.2-1-2.2-1.6-2.8s-1.4-0.9-2.2-0.8c-0.8,0.1-1.7,0.5-2.6,1.2c-1,0.7-1.7,1.4-2.2,2c-0.7,0.9-1.1,1.4-1.4,1.5
		c-0.6,0.1-1.3,0-2-0.5c-0.7-0.4-1.1-1-1.2-1.7c-0.2-0.9,0.4-1.9,1.6-2.9c1.2-1,2.7-2,4.5-3c1.8-1,3.1-1.6,3.9-1.7
		c2-0.3,3.7,0.1,5.3,1.5c1.6,1.3,3,3.5,4.4,6.4c1.2,2.4,2.2,5.8,3,10.3c0.3,2,0.5,3.9,0.4,5.9c0,1.2-0.2,1.9-0.4,2.2
		c-0.2,0.3-0.6,0.5-1.1,0.7c-0.5,0.2-0.9,0.4-1.3,0.4c-0.9,0.2-1.7,0.1-2.4-0.2s-1-0.8-1.2-1.6l-0.1-2c-0.9,1.5-2.2,2.8-3.9,3.9
		c-1.7,1.1-3.4,1.8-5.2,2.1C166.3,159.8,164.4,158.9,164,156.6z M176.7,142.3c-4.8,4.4-7,8-6.5,10.7c0.2,1,0.8,1.3,1.8,1.2
		c1.5-0.3,2.8-1.3,4.1-3.1c0.3-0.4,0.7-0.8,1.2-1.2c0.5-0.4,0.8-0.6,0.8-0.6l0,0C177.6,146.2,177.1,143.8,176.7,142.3z"/>
	<path class="st1" d="M189.5,138c-0.5,0.1-1-0.1-1.5-0.5s-0.7-0.9-0.8-1.5c0-0.3,0.2-0.9,0.6-1.7c0.2-0.4,0.4-0.8,0.4-1l-0.6-3.5
		c-0.1-1.1,0.1-2,0.7-2.7c0.6-0.7,1.5-1.2,2.8-1.3c0.8-0.1,1.5,0,2.2,0.4s1.1,0.8,1.2,1.3c0.4-0.9,1.2-1.5,2.3-1.6
		c1.4-0.2,3.4,0.4,5.9,1.8c2.5,1.4,4.6,3.1,6.3,5.1s2.7,4,2.9,6c0.3,2.1-0.7,4.7-2.9,7.7c-2.2,3-5.3,6.2-9.4,9.5
		c-0.1,0.1-0.2,0.1-0.2,0.1c1.4,7.5,2.1,11.4,2.2,11.8c0.1,0.8-0.1,1.6-0.7,2.2c-0.5,0.7-1.3,1-2.1,1.2c-2.3,0.3-3.6-1-4-3.9
		c-0.1-0.6-0.2-1.8-0.4-3.5c-0.2-2.3-0.4-4-0.5-5.1c-0.2-1.9-1-5.6-2.4-11.1C190.4,142.6,189.7,139.4,189.5,138z M195.4,134.3
		c0.1,0.9,0.3,2.1,0.5,3.7c0.3,1.7,0.5,3.1,0.6,4.2c0.2,1.2,0.6,3.3,1.2,6.1c0.3,1.5,0.5,2.4,0.6,2.7c0.6-0.1,1.5-0.9,2.7-2.4
		s2.2-3.1,2.9-4.7c0.7-1.6,0.9-3,0.8-4.2c-0.2-1.3-0.7-2.7-1.5-4.2c-0.8-1.5-1.8-2.7-2.9-3.8c-1.1-1.1-2-1.5-2.6-1.5
		c-0.8,0.1-1.3,0.6-1.8,1.4C195.4,132.6,195.3,133.5,195.4,134.3z"/>
	<path class="st1" d="M238,138.2c0.1,1.3-1.9,3.9-6,7.6c-0.1,0.1-0.4,0.4-0.9,0.8c-3.5,3.3-5.6,5.1-6.5,5.1
		c-1.8,0.2-3.4-0.8-4.7-2.8c-1.4-2-2.2-4.3-2.4-6.9l-0.1-1.1c-0.3,0.1-0.7,0.2-1.2,0.3c-0.3,0-0.5-0.2-0.9-0.5
		c-0.3-0.4-0.5-0.7-0.5-1.1c-0.1-0.8,0-1.4,0.3-1.8c0.2-0.4,0.8-0.9,1.8-1.4c-0.2-2.2-0.1-4.3,0.2-6.3c0.3-2,0.9-3.7,1.6-5.1
		c0.8-1.4,1.5-2.1,2.1-2.2c1.9-0.2,3.7,0,5.5,0.5c1.8,0.5,3.3,1.3,4.6,2.3c1.3,1,2,2,2.1,2.9c0.1,1.1,0.1,1.9-0.1,2.4
		c-0.2,0.5-0.5,1-0.9,1.5c-0.5,0.5-1.9,1.6-4.4,3.2c-2.4,1.7-3.8,2.7-4.2,3l0.1,1.5c0.1,1.4,0.5,2.7,1,3.7c0.5,1,1,1.5,1.6,1.5
		c0.9-0.1,2.4-1.4,4.5-4.1c1.7-2.1,2.8-3.4,3.4-3.9c0.6-0.5,1.1-0.8,1.6-0.8C237.1,136.4,237.9,136.9,238,138.2z M224,127.9
		c-0.4,0-0.7,0.8-0.9,2.2c-0.3,1.4-0.4,2.6-0.3,3.6c0.3-0.2,0.9-0.6,1.8-1.1c1.6-0.9,2.6-1.5,2.9-1.8c-0.1-0.7-0.5-1.4-1.2-2
		C225.7,128.1,224.9,127.8,224,127.9z"/>
	<path class="st1" d="M249.4,144.7c1-0.1,2.7-0.3,4.9-0.8c2.2-0.4,4.5-1.1,6.9-2c1.7-0.7,2.8-1,3.4-1c1.2-0.1,1.9,0.8,2,2.7
		c0,0.7-0.2,1.3-0.7,2c-0.5,0.7-1.3,1.2-2.5,1.5s-2.9,0.8-5.2,1.2c-5.7,1.1-10.1,1.8-13.3,1.9c-2.3,0.1-3.5-0.5-3.6-1.7
		c-0.1-1.2,1.1-4.7,3.5-10.5c0.6-1.4,0.9-2.3,1.1-2.7c0.4-1.1,1.2-2.6,2.3-4.6s1.9-3.4,2.5-4.3c-0.5,0-1.7,0.3-3.7,0.8
		c-2.7,0.7-4.6,1-5.6,1.1c-0.9,0-1.6-0.1-2.2-0.5c-0.6-0.4-0.9-0.9-1-1.4c-0.1-0.9,0.1-1.7,0.5-2.3c0.4-0.6,0.9-0.9,1.6-0.9
		c3.3-0.2,7.3-1,12-2.5c1.8-0.6,2.9-0.9,3.4-0.9c2.2-0.1,3.3,0.4,3.4,1.7c0,0.6-1,3-3,7.1c-1.2,2.5-2,4.1-2.3,4.8
		c-0.1,0.3-0.5,1.2-1.1,2.7C250.8,140.8,249.7,143.7,249.4,144.7z"/>
	<path class="st1" d="M272.1,132.4c0-0.7,0.3-1.5,0.8-2.3c0.6-0.8,1.2-1.2,2-1.2c0.5,0,2-0.2,4.5-0.6c1.5-0.2,2.5-0.4,3-0.5
		c0.5-0.1,1.5-0.2,3-0.5c2.2-0.4,3.6-0.6,4.2-0.6c0.9,0,1.6,0.3,2.2,0.9c0.6,0.6,0.9,1.2,0.9,2c0,0.8-0.2,1.5-0.7,2.2
		c-0.5,0.7-1.1,1-1.8,1c-2.9,0-6.4,0.5-10.3,1.5c-3,0.7-4.7,1.1-5,1.1c-0.7,0-1.4-0.3-1.9-0.9C272.4,133.8,272.1,133.1,272.1,132.4z
		"/>
	<path class="st1" d="M301.9,110.6c0.1-3.8,1.5-5.6,4.4-5.6c0.9,0,1.7,0.2,2.5,0.7c0.7,0.4,1.1,1,1.1,1.9c0,0.4-0.1,1.2-0.1,2.5
		c-0.2,2.2-0.3,4-0.3,5.3c0,1.1,0.3,4.4,1,9.7c0.5,4.2,0.8,6.9,0.9,8c0.1,1.8,0.5,4.6,1.2,8.6c0.5,2.5,0.7,4,0.7,4.5
		c0,0.9-0.3,1.6-1,2.1c-0.6,0.5-1.4,0.7-2.5,0.7c-1.2,0-2.2-0.2-3-0.7c-0.8-0.4-1.2-1-1.2-1.7c0-0.5-0.1-1.8-0.3-3.9
		c-0.5-4.3-0.8-7.6-0.9-9.9c-0.1-1.5-0.4-4.3-1-8.4C302.2,117.9,301.8,113.3,301.9,110.6z"/>
	<path class="st1" d="M339.3,137.8c-0.1,1.4-2.4,3.6-6.9,6.7c-0.1,0.1-0.5,0.3-1,0.7c-3.9,2.8-6.3,4.2-7.2,4.2
		c-1.8-0.1-3.2-1.2-4.3-3.4s-1.6-4.6-1.4-7.2l0-1.1c-0.3,0.1-0.7,0.1-1.3,0.1c-0.3,0-0.5-0.2-0.8-0.6c-0.2-0.4-0.4-0.8-0.3-1.2
		c0-0.8,0.2-1.4,0.5-1.8c0.3-0.4,1-0.7,2-1.1c0.1-2.2,0.5-4.3,1-6.2s1.4-3.5,2.3-4.8c0.9-1.3,1.8-1.9,2.4-1.9
		c1.9,0.1,3.7,0.5,5.4,1.3c1.7,0.8,3.1,1.7,4.3,2.9c1.1,1.2,1.7,2.3,1.7,3.2c-0.1,1.1-0.2,1.9-0.4,2.4s-0.6,1-1.1,1.4
		c-0.5,0.4-2.1,1.3-4.8,2.6c-2.6,1.3-4.2,2.1-4.5,2.4l-0.1,1.5c-0.1,1.4,0.1,2.7,0.5,3.8c0.4,1.1,0.8,1.6,1.3,1.7
		c0.9,0,2.5-1.1,5-3.4c2-1.9,3.3-3,3.9-3.4c0.6-0.4,1.2-0.6,1.7-0.6C338.7,135.8,339.4,136.5,339.3,137.8z M326.9,125.6
		c-0.4,0-0.8,0.7-1.2,2c-0.5,1.4-0.7,2.5-0.8,3.5c0.3-0.1,1-0.4,2-0.8c1.7-0.7,2.7-1.1,3.1-1.4c0-0.7-0.3-1.4-0.9-2.1
		C328.5,126,327.7,125.7,326.9,125.6z"/>
	<path class="st1" d="M364,142.6c-0.1,1.7-0.8,3.2-2,4.6s-2.8,2.5-4.7,3.3c-1.9,0.8-3.7,1.1-5.4,1c-2.7-0.2-4.7-0.8-6.2-1.8
		c-1.5-1-2.2-2.3-2.1-3.8c0.1-1.8,0.6-3.2,1.5-4.3c0.9-1,1.9-1.5,3-1.4c0.8,0.1,1.5,0.4,2.1,0.9c0.6,0.6,0.8,1.1,0.8,1.7
		c-0.1,1.1-0.4,1.8-0.9,2c-0.6,0.2-0.9,0.7-0.9,1.3c0,0.3,0.2,0.6,0.8,0.9s1.2,0.4,2,0.5c1.6,0.1,3-0.2,4.1-0.9
		c1.1-0.7,1.7-1.6,1.8-2.7c0.3-3.6-2.1-5.5-7.3-6c-1.7-0.1-3.4-0.2-5.1-0.3c-0.5,0-0.8,0-1,0c-0.8-0.1-1.5-0.5-2-1.3
		c-0.6-0.8-0.8-1.8-0.7-2.8c0.1-1.2,0.9-2.8,2.5-4.7c1.6-1.9,3.3-3.5,5.3-4.7c1.9-1.2,3.6-1.8,5-1.6c1,0.1,1.9,0.5,2.7,1.1
		c0.7,0.6,1.3,1.5,1.7,2.7s0.6,2.1,0.5,2.9c0,0.6-0.4,1.1-0.9,1.6c-0.6,0.5-1.3,0.7-2,0.7c-1.6-0.1-2.5-0.6-2.7-1.5
		c-0.1-0.4-0.2-0.7-0.5-1s-0.5-0.5-0.8-0.5c-1-0.1-1.9,0.3-2.8,1.1s-1.4,1.7-1.4,2.5c0,0.3,0.1,0.6,0.4,0.7s0.8,0.2,1.7,0.3
		c0.1,0,0.5,0,1,0.1c1.2,0.1,2.2,0.1,2.9,0.2c1.2,0.1,2.8,0.6,4.6,1.6c1.8,1,3.2,2.1,4.1,3.5C363.7,139.4,364.1,140.9,364,142.6z"/>
	<path class="st1" d="M392,133.7c-0.2,0-0.5,0-1,0c-0.8,0-1.4-0.1-1.8-0.1c-0.5-0.1-0.9-0.3-1.3-0.8c-0.3-0.5-0.5-0.9-0.4-1.3
		c0.1-0.7,0.4-1.3,0.8-1.7c0.4-0.4,1-0.6,1.6-0.5c0.3,0,0.7,0,1.3,0c0.5,0,0.9,0,1.1,0c0.2-1.3,0.2-3,0.2-5.2c0-1.7,0-2.9,0.1-3.7
		c0.1-0.9,0.5-1.5,1.2-2c0.7-0.5,1.5-0.6,2.4-0.5c1,0.1,1.8,0.5,2.4,1.1c0.6,0.6,0.8,1.2,0.7,1.9c0,0.3-0.1,1.2-0.2,2.6
		c-0.2,2.7-0.3,4.6-0.5,5.7c0.2,0,0.5,0,0.9-0.1c0.6-0.1,1-0.2,1.4-0.1c0.7,0.1,1.2,0.4,1.6,1c0.4,0.6,0.5,1.2,0.4,1.9
		c0,0.3-0.2,0.7-0.3,0.9s-0.4,0.5-0.7,0.7c-0.3,0.2-1.4,0.3-3.4,0.4c-0.1,0.7-0.3,2.3-0.5,4.8c-0.2,2.5-0.4,4.2-0.4,5.1
		c0,0.9-0.2,2.8-0.4,5.6c-0.2,2.8-0.4,4.5-0.5,5.1c-0.1,0.6-0.5,1.2-1.1,1.7c-0.7,0.5-1.4,0.7-2.1,0.6c-1.1-0.2-1.9-0.5-2.6-1.1
		c-0.3-0.3-0.5-0.6-0.7-0.9c-0.2-0.3-0.1-1.5,0-3.5c0.3-3.3,0.6-5.8,0.8-7.5c0.1-0.9,0.4-3.1,0.7-6.5
		C391.8,135.3,391.9,134,392,133.7z"/>
	<path class="st1" d="M404.4,145.7c0.5-2.8,1.7-5.5,3.6-8.3c1.9-2.7,4-4.7,6.2-5.9c0.2-0.1,0.4-0.3,0.7-0.6c0.5-0.6,1.1-0.8,1.8-0.7
		c0.5,0.1,1.1,0.3,1.7,0.6c0.6,0.3,1.1,0.5,1.6,0.6c1.5,0.3,2.9,1.1,4.4,2.6c1.5,1.5,2.5,3.3,3.1,5.4c0.6,2.1,0.6,4.3,0.2,6.8
		c-0.5,2.6-1.5,5-3.1,7s-3.6,3.6-5.9,4.6c-2.3,1-4.5,1.4-6.5,1c-3-0.5-5.3-2-6.6-4.3C404.2,152.4,403.8,149.4,404.4,145.7z
		 M413.8,154.5c1.3,0.2,2.6-0.5,4.1-2.1c1.5-1.6,2.4-3.6,2.8-5.9c0.4-2.4,0.4-4.7-0.1-7c-0.5-2.2-1.2-3.4-2.1-3.6
		c-1-0.2-2.3,0.9-3.9,3.2c-1.6,2.3-2.6,4.8-3.1,7.6c-0.4,2.3-0.4,4.1,0,5.5C412,153.5,412.7,154.3,413.8,154.5z"/>
	<path class="st1" d="M440,135.6c2.3,0.5,3.3,1.8,2.8,3.7c-0.1,0.5-0.4,1.5-0.9,3.2c-0.7,2.5-1.2,4.3-1.4,5.3
		c-1.6,7-1.4,10.7,0.5,11.1c1.8,0.4,3.6-0.2,5.3-1.8c1.7-1.6,2.9-3.7,3.5-6.2c0.5-2.4,0.7-5,0.5-7.9c-0.1-1.2-0.1-2,0-2.5
		c0.2-0.7,0.7-1.3,1.6-1.8c0.9-0.4,1.9-0.5,3-0.3c1.3,0.3,2,0.9,2.4,1.7c0.3,0.9,0,4.1-0.9,9.8c-0.5,3.2-0.9,6.5-1.1,9.8
		c-0.1,1.8-0.3,3.1-0.5,4c-0.2,0.7-0.6,1.3-1.4,1.7s-1.4,0.6-2,0.5c-1.1-0.3-2-0.6-2.6-1.2c-0.4-0.3-0.6-0.7-0.7-1s0-1.8,0.3-4.3
		c-2,1.7-4.2,3-6.6,3.8s-4.4,1-6.2,0.6c-1.6-0.4-2.7-1.7-3.3-4.1c-0.5-2.4-0.4-5.5,0.4-9.5c0.1-0.6,0.4-2.1,0.8-4.4
		c0.8-4.3,1.3-6.9,1.5-7.6c0.2-1.1,0.8-1.9,1.7-2.4S438.7,135.3,440,135.6z"/>
	<path class="st1" d="M481.8,165.4c-0.5,1.6-1.4,3-2.8,4.1c-1.4,1.1-3.2,1.9-5.3,2.3c-2.1,0.4-3.9,0.4-5.5,0c-2.6-0.7-4.5-1.7-5.8-3
		c-1.3-1.3-1.7-2.6-1.3-4.1c0.5-1.7,1.3-3,2.3-3.9s2.1-1.1,3.2-0.8c0.8,0.2,1.4,0.7,1.9,1.3c0.4,0.6,0.6,1.2,0.4,1.8
		c-0.3,1.1-0.7,1.7-1.2,1.8c-0.6,0.1-1,0.5-1.1,1.1c-0.1,0.3,0.1,0.7,0.6,1s1.1,0.6,1.8,0.8c1.6,0.4,3,0.4,4.2-0.1
		c1.2-0.5,2-1.3,2.3-2.3c1-3.4-1-5.9-6-7.3c-1.7-0.5-3.3-0.9-5-1.2c-0.5-0.1-0.8-0.2-0.9-0.2c-0.8-0.2-1.3-0.8-1.7-1.7
		c-0.4-0.9-0.5-1.9-0.2-2.9c0.3-1.2,1.5-2.6,3.4-4.2c1.9-1.6,4-2.8,6.1-3.6c2.1-0.8,3.9-1,5.2-0.6c1,0.3,1.8,0.8,2.4,1.6
		c0.6,0.8,1,1.8,1.2,3c0.2,1.2,0.2,2.2-0.1,3c-0.2,0.6-0.6,1-1.2,1.4c-0.7,0.4-1.4,0.5-2.1,0.2c-1.5-0.4-2.3-1.1-2.3-2
		c0-0.4-0.1-0.7-0.3-1.1s-0.4-0.6-0.7-0.7c-1-0.3-2-0.1-3,0.6s-1.7,1.4-1.9,2.2c-0.1,0.3,0,0.6,0.2,0.8c0.2,0.2,0.8,0.4,1.6,0.6
		c0.1,0,0.5,0.1,1,0.2c1.2,0.3,2.1,0.6,2.8,0.8c1.2,0.3,2.6,1.2,4.2,2.4c1.6,1.3,2.7,2.7,3.3,4.2S482.3,163.7,481.8,165.4z"/>
	<path class="st1" d="M503.2,180.4c0.3-0.8,0.9-1.4,1.9-1.7c1-0.4,1.9-0.4,2.8,0c0.8,0.3,1.4,1.1,1.7,2.2c0.3,1.2,0.3,2.2,0,3
		c-0.2,0.6-0.8,1-1.6,1.2c-0.8,0.2-1.7,0.2-2.5-0.2C503.1,184,502.4,182.5,503.2,180.4z M513.5,172.1c-0.4,1-1,1.8-1.7,2.3
		c-0.7,0.5-1.5,0.6-2.3,0.3c-0.8-0.3-1.5-0.8-2-1.6c-0.5-0.8-0.7-1.5-0.5-2.1c0.1-0.3,0.6-1.6,1.5-3.8c1.6-4,2.6-6.5,3-7.7
		c0.4-1.1,1.4-4,2.9-8.7c1-3.2,1.7-5.1,1.8-5.6c0.4-0.9,1-1.6,1.9-2.2c0.9-0.5,1.8-0.6,2.6-0.3c2.1,0.8,2.7,2.5,1.7,5.1
		c-0.1,0.2-0.2,0.6-0.5,1.3c-1,2.4-1.8,4.5-2.5,6.2c-1,2.7-2.5,6.6-4.3,11.8C514.4,169.7,513.8,171.4,513.5,172.1z"/>
</g>
<g>
	<path class="st0" d="M-61.8,147.9c173.2-89.6,507.7-89.6,695.8,3"/>
	<path class="st2" d="M52.3,53l15,50.8l-2.3,0.6c-1.5,0.4-3.5,0.8-5.8,1.3c-2.4,0.5-4.5,0.9-6.5,1.1c-2,0.2-3.5,0.3-4.5,0.1
		L33.4,58.4L9.6,64.7L6.2,49.6l60-19.3l5.1,16.3L52.3,53z"/>
	<path class="st2" d="M77.6,25.7l6.1,26.8l5.4-1l-6.4-25.1l20.9-2.3l20.5,85.4l-15.9,2.7l-15-44.1l-6.3-0.4l7.4,40.9L76,112.4
		L59.7,38.7l-7-0.3l-2.2-9.8L77.6,25.7z"/>
	<path class="st2" d="M134.2,85.6l41.2-3.8l2,17l-57.3,5l-11.3-58.4l-5.3,1.7l-1.6-18.7L148.2,15l3.3,16.8L125.3,40l2.3,12.1
		l25.9-8.2l2.9,13.9l-26.1,8.8L134.2,85.6z"/>
	<path class="st2" d="M202,94.6l-6.4-59.1l-5.5,1.3l0-18.7l47.3-9.7l1.9,17l-26.8,5.9l1.3,12.2l20.1-4.3l1.7,14.1l-20.4,5l4.2,35.3
		c-0.9,0.2-2.5,0.4-4.7,0.8c-2.2,0.3-4.3,0.6-6.1,0.7C205.6,95.2,203.4,95.1,202,94.6z"/>
	<path class="st2" d="M265.1,8.6l39.9,92.7l-16.4,1.8l-18.9-42.6L259.3,59l-15.7,34.4l-20.3,1.3L265.1,8.6z M259.8,49.6l9.3,1.2
		l-4.1-15.1L259.8,49.6z"/>
	<path class="st2" d="M314.7,46.8c-1,0.9-2,1.9-3.2,2.8s-1.9,1.6-2.3,1.9l4.3,28.8L300,83.5L293.4,32c-0.2,0-0.5,0.2-0.9,0.7
		c-0.4,0.5-1,1.1-1.8,2c-0.7,0.8-1.2,1.3-1.3,1.4c-0.1,0-0.3-0.6-0.7-1.7c-0.4-1.1-0.9-2.7-1.6-4.8c-0.7-2-1.4-4.3-2.2-6.8
		c-0.8-2.5-1.4-4-1.7-4.7c3.2-1,6.2-1.8,9-2.7c2.8-0.8,5.8-1.6,8.9-2.3c3.1-0.7,6.1-1.3,8.9-1.7c2.8-0.4,5.6-0.5,8.3-0.5
		c2.1,0.1,4.1,0.3,5.8,0.7c1.8,0.4,3.4,1,5,1.8c1.6,0.8,3,1.9,4.2,3.2s2.2,2.8,2.9,4.6c0.2,0.5,0.4,1.2,0.3,2c0,1.3-0.5,2.7-1.3,4.2
		c-0.8,1.5-1.9,3.1-3.2,4.8s-2.8,3.4-4.4,5.2c1.4,0.2,2.8,1.3,4.1,3.2c1.3,2,2.2,4.3,2.7,6.9l5.8,35l-12,2.3l-7.8-32.2
		c-0.1-0.5-0.4-1.1-0.8-2.1c-0.4-0.9-1-1.8-1.7-2.7c-0.7-0.9-1.5-1.4-2.4-1.4C315.4,46.6,315.1,46.7,314.7,46.8z M305.7,28.5
		l1.9,11.6c1.7-0.3,3.7-1.8,5.9-4.3s3.3-4.6,3.4-6.2c0-0.8-0.3-1.3-0.9-1.5c-2.7-0.8-4.4-1.2-5.4-1.2
		C309,26.9,307.4,27.5,305.7,28.5z"/>
	<path class="st2" d="M421.7,94.4l-19.4-0.9l-4.2-8.9l-5.8,11l-12.6-1.1L373,24.2l22.5,4.8l1.5,23.9l5.5-8.1l4.8,11.6l7.4-35.8
		l22.3,0.9L421.7,94.4z"/>
	<path class="st2" d="M448.3,89.6l40.4,8.7l-3.1,16.8l-56.2-12.3l6.7-59.1l-5.6,0.1l4.1-18.3l48.2,0.8l-1.9,17.1l-27.5,0L452,55.6
		l27.2,0l-1.4,14.1l-27.6,0.6L448.3,89.6z"/>
	<path class="st2" d="M481.5,38.6c4.2-5.5,10.9-7.2,20-5.2c4.8,1,9.7,2.8,14.7,5.3c5,2.5,10.9,5.7,17.7,9.7
		c-0.8,1.2-2.8,4.1-5.7,8.8s-4.5,7.1-4.7,7c-0.2-0.2-1.2-1.2-3.1-2.8c-1.9-1.6-4-3.2-6.3-4.9c-2.3-1.6-4.2-2.7-5.8-3.2
		c-0.7-0.2-2.3-1-4.8-2.3c-2.5-1.3-4.3-2.1-5.6-2.4c-1.2-0.3-2.1-0.2-2.8,0.1c-1.2,0.5-1.9,1.3-2.1,2.3c-0.2,0.9,0,2,0.6,3.3
		c0.6,1.3,1.5,2.6,2.7,4c1.2,1.4,2.5,2.8,4,4.2c1.5,1.4,3,2.7,4.5,3.9c3.1,2.4,5.6,5,7.7,7.7c2.1,2.7,3.5,5.3,4.5,7.8
		s1.5,4.9,1.7,7.2c0.2,2.4,0,4.5-0.4,6.5c-0.5,2.3-1.4,4.4-2.7,6.1c-2.3,3-5.1,4.9-8.5,5.7c-3.4,0.8-7.1,0.8-11.3-0.1
		c-2.4-0.5-5.1-1.4-8-2.5c-2.9-1.2-5.7-2.4-8.3-3.8s-5.4-2.9-8.3-4.6c-2.9-1.7-5.4-3.1-7.6-4.4c0.6-0.7,1.5-2.1,2.9-4.3
		c1.4-2.2,2.5-4,3.5-5.6c1-1.6,1.9-3,2.6-4.2c0.8-1.2,1.2-1.8,1.3-1.8c0.6,0.7,2.7,2.6,6.4,5.4c3.7,2.9,6.6,4.7,8.8,5.4
		c0.8,0.3,2.1,0.9,4,1.8c1.9,1,3.1,1.6,3.8,2c0.7,0.3,1.5,0.6,2.5,0.8c1.2,0.3,2.1,0.2,2.8-0.1c1.3-0.6,2.1-1.4,2.3-2.3
		c0.5-2.1-1.7-5.1-6.4-9.1c-2.9-2.4-6-5.6-9.4-9.6c-3.3-4-6.1-8.3-8.2-13c-2.1-4.7-2.7-9.1-1.9-13.2
		C479.2,42.3,480.1,40.3,481.5,38.6z"/>
	<path class="st2" d="M561.6,67.4l-12,51.6l-2.3-0.6c-1.5-0.4-3.4-1-5.7-1.8c-2.3-0.7-4.4-1.5-6.2-2.2c-1.8-0.8-3.1-1.5-4-2.1
		l11.1-49.5l-23.7-6.2l4.5-14.9l61.7,12.8l-3.6,16.7L561.6,67.4z"/>
</g>
<g>
</g>
<g>
</g>
<g>
</g>
<g>
</g>
<g>
</g>
<g>
</g>
</svg>
