<?xml version="1.0" encoding="utf-8"?>
<!-- Generator: Adobe Illustrator 27.3.1, SVG Export Plug-In . SVG Version: 6.00 Build 0)  -->
<svg version="1.1" id="Layer_1" xmlns="http://www.w3.org/2000/svg" xmlns:xlink="http://www.w3.org/1999/xlink" x="0px" y="0px"
	 viewBox="0 0 300 300" style="enable-background:new 0 0 300 300;" xml:space="preserve">
<style type="text/css">
	.st0{fill:#336A6F;}
</style>
<g>
	<path class="st0" d="M6.9,164.3c1.3-5.5,5.3-9.8,6.9-15.2c0.4-1.4,1.7-2.6,3.3-3.5c13.1-7.6,27.8-9.8,42.1-12.7
		c8.6-1.8,16.1-5.4,23.5-9.8c11.6-6.8,23.4-13.1,35.8-18.2c8.7-3.6,17.9-4.1,27.1-4.7c32.2-2.2,64.4-0.8,96.7,0.2
		c7.8,0.2,15.5,1.5,23.3,2.1c0.7,0.1,1.7-0.2,1.8,0.9c0.1,0.9,0.4,2-0.7,2.5c-2,0.9-0.8,1.7,0,2.6c9.7,11.2,15.5,24.4,19.2,38.6
		c1,3.9,1.8,7.8,2,11.8c0.1,1.6,1.4,2.6,2.3,3.8c2.6,3.2,4.1,6.6,1.9,10.7c-0.4,0.8-0.2,1.8-0.3,2.7c-0.6,4-3.1,6.3-7.1,6.5
		c-5.7,0.2-11.4,0.3-16.9,1.5c-1.3,0.3-1.8,0-1.7-1.5c0.4-13.1-9.3-21.8-20-23.5c-12.6-2-23.8,4.8-27.4,16.3
		c-0.8,2.7-1.2,5.5-0.7,8.3c0.5,2.4-0.5,2.6-2.4,2.6c-10.6,0.2-21.2,0.6-31.9,0.8c-31.9,0.8-63.9,1.6-95.8,2.4c-1.1,0-2.2,0-3.4,0
		c-1.2,0-1.7-0.4-1.3-1.7c4-11.5-3.3-22.8-12.6-27c-10-4.5-22.5-1.9-29.7,6.8c-4.1,5-5.7,10.8-4.6,17.3c0.3,1.7,0.2,2.3-1.8,2
		c-5.4-0.9-10.8-1.7-16.3-2.3c-3-0.4-5.6-2-8.6-2.3C8.3,182,7,180.7,7.7,179c1-2.4-0.1-4.3-0.8-6.3C6.9,169.9,6.9,167.1,6.9,164.3z
		 M185.5,134.2C185.5,134.3,185.5,134.3,185.5,134.2c7.6-0.3,15.2-0.8,22.9-1.1c1.7-0.1,2.2-0.5,2-2.3c-0.9-7.7-1.7-15.4-2.5-23.1
		c-0.2-1.7-0.6-2.4-2.5-2.4c-13.1,0-26.2,0-39.4-0.1c-1.7,0-2.5,0.4-2.4,2.3c0.1,8.5,0.1,17,0,25.4c0,1.9,0.6,2.4,2.4,2.3
		C172.5,134.9,179,134.6,185.5,134.2z M150.5,120.9c0-4.4,0-8.7,0-13.1c0-1.4-0.2-2.1-1.9-1.9c-5.5,0.6-11,0.6-16.3,1.8
		c-9.7,2.2-18.3,7.2-27.2,11.4c-4.6,2.2-6.3,5.1-5.5,9.9c0.2,1.5,0.4,2.3,2.2,2.3c3.4,0,6.1,1.6,7.6,4.7c0.7,1.4,1.6,1.8,3.1,1.7
		c6.5-0.4,13-0.7,19.5-1c4.9-0.2,9.9-0.4,14.8-0.6c3.8-0.2,3.8-0.2,3.8-3.8C150.5,128.6,150.5,124.8,150.5,120.9z M242.5,131.5
		c5.6-0.2,11.1-0.5,16.7-0.8c4.2-0.2,6.3-3.4,4.6-7.3c-1.6-3.7-3.4-7.3-6.1-10.2c-3.1-3.4-6.8-6.1-11.7-6.4
		c-7.5-0.4-15.1-0.5-22.6-0.9c-2.2-0.1-2.7,0.5-2.5,2.6c0.9,7.3,1.6,14.6,2.3,21.9c0.2,1.7,0.8,2.2,2.5,2.1
		C231.4,132,237,131.8,242.5,131.5z M92.3,131c0-0.5,0.1-0.9,0-1.4c-0.1-0.7,0.4-1.6-0.4-2c-0.8-0.4-1.3,0.5-1.9,0.8
		c-2.4,1.6-4.8,3.2-7.2,4.8c-1,0.7-1.7,1.6-1.3,2.8c0.3,1.3,1.4,1.9,2.7,2.1C88.7,138.9,93.1,135.2,92.3,131z"/>
	<path class="st0" d="M242.5,161.5c12.1,0.6,20.9,9.5,20.5,20.6c-0.5,10.5-10.7,19.5-21.7,18.9c-11.7-0.6-21-9.8-20.5-20.2
		C221.3,169.6,231,160.9,242.5,161.5z M235.4,184.4c-0.2-1.6-1.4-1.7-2.5-1.4c-1.3,0.3-3.1-1.1-3.8,0.9c-0.4,1.1,1.7,4.4,2.4,4.4
		C232.1,188.2,235.3,185,235.4,184.4z M252,182.9c-1.4,0.3-3.1-0.6-3.6,1.4c-0.2,0.7,3.4,4.3,3.9,3.9c1.5-0.9,2.3-2.6,2.3-4.2
		C254.7,182,252.8,183.4,252,182.9z M252,179.6c0.5-1,2.7,1.2,2.6-1.2c0-1.6-0.7-3.2-2.3-4.1c-0.4-0.2-3.9,3.2-3.8,3.7
		C248.7,180.2,250.5,179.3,252,179.6z M233.7,171.6c2.4,0.8,2.9,4.5,5.8,3c1.4-0.8,1.1-4.2,0.3-4.8
		C237.9,168.4,236,170.2,233.7,171.6z M240.1,190.7c-0.3-1.3,0.5-3.4-1.6-3.3c-1.8,0.1-2.9,2-4.1,3.4c-0.4,0.5,3.2,2.6,4.6,2.4
		C240.9,193,239.6,191.5,240.1,190.7z M231.9,179.5c1.4-0.3,3.2,0.7,3.4-1.6c0.1-0.6-3.5-4-3.8-3.8c-1.6,0.9-2.3,2.6-2.3,4.2
		C229.1,180.7,231.2,178.8,231.9,179.5z M243.7,190.6c0.7,0.5-1,2.5,1.1,2.5c1.7,0,3.5-0.6,4.6-2.1c0.3-0.4-3.5-3.8-4.1-3.7
		C243.4,187.6,243.8,189.1,243.7,190.6z M243.7,171.8c0.2,1.4-0.6,3.2,1.7,3.3c0.7,0,4.3-3.2,4-3.6c-1.1-1.4-2.7-2-4.4-2.1
		C242.7,169.1,244.3,171,243.7,171.8z"/>
	<path class="st0" d="M60,161.5c11.8,0.3,20.5,8.2,21.2,18.9c0.6,9.4-6.1,17.6-16.3,20.1c-10.5,2.5-22.1-3.8-25-13.7
		c-3.4-11.6,4.7-23.5,16.9-25C58,161.6,59.2,161.5,60,161.5z M62,190.7c0.5,0.7-1,2.6,1.2,2.4c1.7-0.2,4.2-0.6,4.2-2.3
		c0-1.4-2.1-3.3-3.9-3.5C61.5,187.1,62.1,189.2,62,190.7z M62,171.7c0.2,1.4-0.5,3.5,1.6,3.3c1.8-0.2,3.8-2,3.9-3.4
		c0-1.7-2.5-2-4.2-2.2C61.1,169.1,62.4,171,62,171.7z M58.3,171.7c-0.5-0.7,1-2.6-1.3-2.4c-1.7,0.2-4.2,0.5-4.2,2.2
		c0,1.4,2,3.2,3.9,3.4C58.9,175.2,58.1,173.1,58.3,171.7z M50.2,182.9c-0.8,0.7-2.8-1-2.8,1.2c0,1.6,0.8,3.2,2.3,4.1
		c0.4,0.2,3.9-3.2,3.9-3.8C53.4,182.3,51.6,183.1,50.2,182.9z M58.3,190.7c-0.2-1.4,0.5-3.5-1.6-3.3c-1.8,0.2-3.9,2.1-3.9,3.5
		c0,1.7,2.6,2.1,4.2,2.3C59.2,193.3,57.8,191.4,58.3,190.7z M73,184.1c-0.1-1.7-1.4-1.2-2.2-1.1c-1.4,0.2-3.3-1-4,1.3
		c-0.2,0.6,3.3,4.3,3.8,4C72.2,187.4,72.4,185.7,73,184.1z M70.2,179.5c0.8-0.6,2.7,1,2.7-1c0-1.7-0.6-3.5-2.4-4.4
		c-0.5-0.2-3.8,3.3-3.8,3.8C67.1,180.2,68.8,179.2,70.2,179.5z M50.2,179.6c1.2-0.5,3.5,0.6,3.3-1.5c-0.2-1.8-2.2-3.6-3.7-3.7
		c-1.8-0.1-2.4,2.5-2.4,4.1C47.4,180.5,49.4,178.9,50.2,179.6z"/>
</g>
</svg>
