<?xml version="1.0" encoding="utf-8"?>
<!-- Generator: Adobe Illustrator 16.0.0, SVG Export Plug-In . SVG Version: 6.00 Build 0)  -->
<!DOCTYPE svg PUBLIC "-//W3C//DTD SVG 1.1//EN" "http://www.w3.org/Graphics/SVG/1.1/DTD/svg11.dtd">
<svg version="1.1" id="Calque_1" xmlns="http://www.w3.org/2000/svg" xmlns:xlink="http://www.w3.org/1999/xlink" x="0px" y="0px"
	 width="824px" height="241.388px" viewBox="0 0 824 241.388" enable-background="new 0 0 824 241.388" xml:space="preserve">
<g>
	<g>
		<path fill="#833219" d="M177.353,229.345c-1.062-4.034,0.392-8.72,4.362-14.054c0.489-0.671,1.186-1.607,2.091-2.807
			c0.904-1.199,1.807-2.381,2.71-3.542c0.901-1.162,1.629-1.864,2.181-2.109c-0.613-1.392-1.343-2.433-2.19-3.122
			c-0.847-0.688-1.732-0.911-2.654-0.669c-0.899,0.237-1.879,0.797-2.941,1.68c-1.062,0.885-1.831,1.733-2.306,2.55
			c-0.663,1.135-1.167,1.748-1.512,1.84c-0.715,0.188-1.503,0.075-2.364-0.34c-0.862-0.414-1.395-1.014-1.602-1.797
			c-0.285-1.084,0.232-2.255,1.552-3.516c1.32-1.259,2.955-2.546,4.901-3.859c1.947-1.313,3.416-2.102,4.408-2.363
			c2.236-0.588,4.318-0.193,6.248,1.185c1.928,1.379,3.821,3.724,5.678,7.03c1.658,2.646,3.157,6.516,4.499,11.611
			c0.595,2.26,0.944,4.521,1.047,6.788c0.069,1.387-0.02,2.242-0.268,2.566c-0.247,0.324-0.644,0.645-1.189,0.96
			c-0.545,0.316-1.038,0.532-1.476,0.646c-1.061,0.279-1.981,0.27-2.763-0.029c-0.782-0.3-1.285-0.877-1.51-1.73l-0.34-2.277
			c-0.897,1.84-2.286,3.493-4.167,4.963c-1.882,1.469-3.813,2.465-5.796,2.986C180.263,232.906,178.063,232.043,177.353,229.345z
			 M190.638,211.537c-5.158,5.598-7.334,9.93-6.527,12.997c0.286,1.084,1.016,1.471,2.192,1.161c1.66-0.438,3.159-1.769,4.496-3.994
			c0.295-0.471,0.708-0.963,1.24-1.474c0.531-0.509,0.831-0.773,0.901-0.791l0.009,0.035
			C192.021,215.943,191.25,213.299,190.638,211.537z"/>
		<path fill="#833219" d="M205.839,200.644c-0.228,0.075-0.593,0.191-1.095,0.351c-0.912,0.298-1.599,0.498-2.065,0.602
			c-0.583,0.127-1.15,0.015-1.704-0.34c-0.554-0.354-0.885-0.775-0.992-1.265c-0.185-0.839-0.125-1.571,0.175-2.199
			c0.301-0.628,0.801-1.019,1.5-1.173c0.325-0.07,0.79-0.233,1.393-0.489c0.533-0.238,0.928-0.388,1.184-0.443
			c-0.317-1.442-0.946-3.356-1.884-5.736c-0.718-1.821-1.171-3.161-1.36-4.022c-0.22-1.001-0.062-1.89,0.475-2.667
			s1.341-1.284,2.413-1.521c1.164-0.256,2.182-0.174,3.056,0.244c0.873,0.418,1.397,1.023,1.571,1.814
			c0.077,0.35,0.367,1.336,0.871,2.958c0.932,3.018,1.536,5.155,1.813,6.411c0.245-0.102,0.551-0.267,0.917-0.494
			c0.554-0.364,1.052-0.597,1.495-0.695c0.768-0.168,1.477-0.024,2.126,0.43c0.649,0.456,1.063,1.092,1.243,1.906
			c0.087,0.396,0.085,0.781-0.002,1.154c-0.089,0.373-0.247,0.707-0.476,1.002c-0.229,0.294-1.403,0.894-3.522,1.799
			c0.169,0.769,0.641,2.582,1.416,5.438c0.775,2.857,1.316,4.764,1.625,5.721c0.352,1.047,0.955,3.123,1.81,6.23
			c0.854,3.108,1.366,5.047,1.535,5.815c0.159,0.722-0.027,1.488-0.556,2.301s-1.213,1.31-2.051,1.494
			c-1.234,0.271-2.327,0.243-3.277-0.085c-0.453-0.169-0.828-0.403-1.126-0.704c-0.298-0.3-0.753-1.567-1.367-3.801
			c-1-3.661-1.723-6.505-2.169-8.531c-0.235-1.07-0.857-3.509-1.865-7.316C206.299,202.459,205.931,201.062,205.839,200.644z"/>
		<path fill="#833219" d="M225.759,196.462c-0.23,0.066-0.599,0.174-1.105,0.317c-0.919,0.272-1.613,0.452-2.081,0.54
			c-0.586,0.112-1.15-0.019-1.694-0.389c-0.543-0.37-0.862-0.801-0.955-1.292c-0.161-0.844-0.08-1.575,0.239-2.193
			s0.831-0.994,1.533-1.129c0.328-0.062,0.797-0.211,1.408-0.448c0.54-0.224,0.938-0.36,1.196-0.408
			c-0.276-1.453-0.848-3.383-1.717-5.79c-0.665-1.84-1.079-3.193-1.242-4.06c-0.191-1.007-0.008-1.892,0.552-2.652
			c0.56-0.762,1.378-1.244,2.456-1.449c1.171-0.222,2.187-0.11,3.047,0.333c0.861,0.443,1.367,1.063,1.518,1.859
			c0.067,0.352,0.328,1.346,0.784,2.981c0.844,3.044,1.386,5.197,1.626,6.463c0.249-0.096,0.558-0.251,0.93-0.468
			c0.565-0.35,1.07-0.566,1.515-0.651c0.773-0.146,1.477,0.018,2.113,0.491c0.636,0.475,1.032,1.121,1.187,1.941
			c0.076,0.398,0.063,0.782-0.036,1.152c-0.1,0.371-0.268,0.7-0.505,0.988c-0.236,0.287-1.427,0.854-3.572,1.696
			c0.146,0.772,0.565,2.599,1.256,5.477s1.177,4.801,1.457,5.767c0.322,1.056,0.864,3.147,1.627,6.279s1.219,5.084,1.365,5.856
			c0.138,0.727-0.07,1.487-0.623,2.284c-0.553,0.797-1.25,1.274-2.094,1.434c-1.242,0.236-2.333,0.175-3.274-0.18
			c-0.448-0.183-0.815-0.428-1.104-0.736c-0.289-0.31-0.708-1.59-1.255-3.84c-0.894-3.688-1.534-6.552-1.92-8.591
			c-0.204-1.076-0.755-3.532-1.651-7.366C226.165,198.289,225.839,196.883,225.759,196.462z"/>
		<path fill="#833219" d="M265.918,190.342c0.122,0.777-0.065,1.585-0.561,2.423c-0.496,0.839-1.062,1.308-1.698,1.407
			c-2.261,0.355-3.565-0.031-3.911-1.16c-0.354-1.176-0.731-1.967-1.133-2.374c-0.402-0.407-0.933-0.56-1.592-0.456
			c-1.178,0.186-2.904,2.41-5.178,6.678c0.376,1.63,1.032,3.965,1.968,7.003c0.935,3.039,1.842,5.588,2.721,7.646
			c0.679,1.559,1.063,2.622,1.152,3.187c0.104,0.659-0.249,1.301-1.056,1.921c-0.807,0.621-1.612,0.996-2.412,1.122
			c-0.943,0.147-1.837,0.101-2.683-0.141c-0.847-0.241-1.428-0.603-1.745-1.084c-0.431-0.896-1.05-2.688-1.857-5.373
			c-0.808-2.685-1.417-4.877-1.829-6.574c-0.151-0.65-0.628-2.23-1.431-4.735c-1.294-4.091-2.024-6.668-2.19-7.729
			c-0.289-1.836-0.181-3.187,0.323-4.051c0.504-0.862,1.474-1.408,2.911-1.633c1.083-0.17,2.01-0.068,2.781,0.306
			c0.77,0.374,1.204,0.867,1.3,1.479c0.07,0.446,0.163,1.121,0.281,2.019c0.098,0.781,0.174,1.336,0.225,1.667
			c1.185-2.6,2.489-4.554,3.912-5.864c1.424-1.309,3.125-2.119,5.103-2.43C262.924,183.029,265.124,185.278,265.918,190.342z"/>
		<path fill="#833219" d="M271.333,209.983c-0.509-4.142,1.563-8.587,6.217-13.338c0.575-0.599,1.392-1.432,2.45-2.499
			c1.058-1.066,2.112-2.115,3.163-3.145c1.05-1.029,1.866-1.628,2.446-1.796c-0.42-1.462-1.003-2.591-1.749-3.388
			c-0.747-0.797-1.593-1.139-2.54-1.021c-0.923,0.112-1.97,0.536-3.142,1.268c-1.171,0.732-2.048,1.472-2.628,2.215
			c-0.81,1.036-1.392,1.576-1.747,1.619c-0.734,0.09-1.5-0.127-2.296-0.655c-0.798-0.525-1.246-1.192-1.344-1.997
			c-0.137-1.111,0.534-2.202,2.012-3.272c1.478-1.069,3.27-2.125,5.376-3.164c2.106-1.04,3.668-1.622,4.686-1.746
			c2.295-0.282,4.306,0.39,6.031,2.015c1.725,1.627,3.285,4.204,4.678,7.731c1.286,2.845,2.25,6.882,2.892,12.112
			c0.285,2.32,0.326,4.608,0.123,6.867c-0.119,1.384-0.322,2.219-0.611,2.507c-0.289,0.287-0.725,0.552-1.308,0.791
			c-0.583,0.24-1.1,0.388-1.549,0.442c-1.089,0.134-2,0-2.734-0.402s-1.155-1.042-1.262-1.917l-0.031-2.303
			c-1.137,1.701-2.735,3.153-4.798,4.354c-2.062,1.204-4.111,1.929-6.146,2.179C273.735,213.903,271.672,212.752,271.333,209.983z
			 M286.897,194.129c-5.866,4.852-8.606,8.851-8.22,11.999c0.137,1.112,0.809,1.593,2.016,1.445
			c1.704-0.209,3.368-1.326,4.993-3.352c0.355-0.428,0.831-0.858,1.427-1.292c0.595-0.433,0.928-0.654,1-0.663l0.004,0.035
			C287.673,198.682,287.266,195.957,286.897,194.129z"/>
		<path fill="#833219" d="M301.878,189.842c-0.618,0.056-1.176-0.164-1.675-0.658s-0.777-1.074-0.837-1.738
			c-0.029-0.333,0.235-0.991,0.794-1.975c0.29-0.504,0.473-0.868,0.549-1.09l-0.585-4.149c-0.114-1.281,0.206-2.333,0.958-3.153
			c0.753-0.821,1.842-1.296,3.267-1.422c0.878-0.078,1.719,0.093,2.523,0.512c0.803,0.419,1.231,0.926,1.284,1.519
			c0.551-1.077,1.479-1.676,2.785-1.791c1.639-0.146,3.882,0.654,6.73,2.399c2.848,1.746,5.217,3.82,7.106,6.226
			c1.89,2.405,2.937,4.76,3.142,7.062c0.22,2.471-1.021,5.411-3.721,8.822c-2.701,3.413-6.487,6.927-11.359,10.543
			c-0.134,0.108-0.213,0.163-0.237,0.165c1.257,8.744,1.905,13.342,1.945,13.794c0.086,0.974-0.202,1.831-0.866,2.571
			c-0.665,0.741-1.507,1.157-2.528,1.249c-2.684,0.239-4.174-1.316-4.472-4.665c-0.063-0.713-0.147-2.068-0.254-4.07
			c-0.118-2.67-0.233-4.635-0.344-5.894c-0.193-2.161-0.938-6.511-2.238-13.05C302.683,195.264,302.027,191.529,301.878,189.842z
			 M308.883,185.845c0.092,1.046,0.246,2.503,0.46,4.375c0.229,2.038,0.397,3.663,0.505,4.874c0.127,1.425,0.496,3.821,1.106,7.189
			c0.322,1.743,0.5,2.805,0.535,3.184c0.665-0.059,1.753-0.938,3.265-2.641c1.512-1.703,2.695-3.466,3.551-5.289
			c0.855-1.823,1.221-3.436,1.096-4.837c-0.139-1.568-0.652-3.221-1.536-4.962c-0.885-1.74-1.947-3.25-3.186-4.527
			c-1.238-1.278-2.227-1.885-2.962-1.819c-0.879,0.078-1.593,0.596-2.142,1.555C309.027,183.905,308.796,184.871,308.883,185.845z"
			/>
		<path fill="#833219" d="M358.159,192.159c0.091,1.57-2.308,4.446-7.199,8.624c-0.16,0.129-0.501,0.424-1.023,0.884
			c-4.151,3.754-6.739,5.66-7.762,5.72c-2.07,0.12-3.869-1.016-5.394-3.411c-1.525-2.394-2.376-5.114-2.554-8.162l-0.073-1.249
			c-0.349,0.164-0.833,0.263-1.451,0.301c-0.31,0.017-0.633-0.196-0.969-0.643c-0.336-0.447-0.517-0.884-0.542-1.312
			c-0.056-0.951,0.065-1.656,0.36-2.116c0.295-0.459,1.011-0.974,2.149-1.541c-0.152-2.594-0.002-5.045,0.448-7.353
			c0.45-2.306,1.142-4.263,2.075-5.871c0.933-1.605,1.792-2.433,2.578-2.479c2.19-0.128,4.319,0.142,6.388,0.81
			c2.069,0.667,3.838,1.627,5.309,2.878c1.47,1.253,2.237,2.414,2.299,3.484c0.074,1.262,0.003,2.197-0.212,2.806
			c-0.215,0.61-0.6,1.188-1.153,1.733c-0.553,0.547-2.305,1.741-5.254,3.586c-2.901,1.841-4.556,2.952-4.963,3.334l0.102,1.749
			c0.098,1.667,0.432,3.104,1.004,4.313c0.572,1.208,1.155,1.794,1.75,1.759c1.023-0.06,2.81-1.584,5.357-4.575
			c2.058-2.389,3.429-3.866,4.112-4.431c0.683-0.565,1.322-0.866,1.917-0.9C357.172,189.996,358.072,190.684,358.159,192.159z
			 M342.311,179.65c-0.429,0.026-0.823,0.854-1.18,2.487c-0.359,1.633-0.505,3.009-0.44,4.128c0.346-0.211,1.075-0.612,2.187-1.202
			c1.876-0.993,3.019-1.657,3.43-1.992c-0.047-0.808-0.476-1.596-1.284-2.36C344.213,179.946,343.31,179.592,342.311,179.65z"/>
		<path fill="#833219" d="M371.274,200.076c1.215-0.035,3.127-0.283,5.738-0.742c2.61-0.458,5.296-1.183,8.057-2.171
			c2.006-0.727,3.331-1.1,3.975-1.118c1.406-0.041,2.142,1.034,2.207,3.226c0.023,0.787-0.271,1.56-0.88,2.315
			c-0.61,0.758-1.589,1.33-2.937,1.716c-1.348,0.386-3.364,0.81-6.045,1.27c-6.669,1.151-11.826,1.781-15.472,1.89
			c-2.693,0.079-4.062-0.631-4.106-2.134c-0.041-1.381,1.414-5.408,4.366-12.079c0.716-1.596,1.162-2.634,1.338-3.116
			c0.512-1.255,1.431-3.035,2.758-5.341c1.327-2.305,2.334-3.933,3.022-4.885c-0.596,0.02-2.02,0.287-4.27,0.807
			c-3.152,0.714-5.323,1.088-6.514,1.124c-1.001,0.029-1.849-0.196-2.542-0.677s-1.051-1.042-1.069-1.686
			c-0.033-1.097,0.186-1.979,0.655-2.65c0.469-0.669,1.097-1.016,1.883-1.039c3.837-0.113,8.498-0.979,13.984-2.595
			c2.081-0.611,3.396-0.924,3.944-0.94c2.55-0.076,3.846,0.603,3.889,2.031c0.021,0.739-1.199,3.447-3.66,8.123
			c-1.515,2.836-2.45,4.688-2.805,5.557c-0.133,0.339-0.58,1.366-1.34,3.081C372.942,195.579,371.549,198.923,371.274,200.076z"/>
		<path fill="#833219" d="M397.891,186.274c0.002-0.858,0.338-1.738,1.008-2.644c0.67-0.904,1.434-1.356,2.292-1.354
			c0.572,0.001,2.325-0.21,5.259-0.633c1.74-0.258,2.897-0.422,3.471-0.491c0.619-0.071,1.775-0.235,3.469-0.493
			c2.553-0.424,4.174-0.635,4.866-0.633c1.048,0.002,1.899,0.351,2.554,1.043c0.654,0.693,0.98,1.469,0.979,2.326
			c-0.002,0.907-0.284,1.746-0.846,2.521c-0.563,0.773-1.285,1.159-2.166,1.157c-3.387-0.008-7.394,0.495-12.021,1.51
			c-3.482,0.778-5.438,1.167-5.867,1.167c-0.858-0.002-1.572-0.374-2.143-1.113C398.174,187.897,397.889,187.109,397.891,186.274z"
			/>
		<path fill="#833219" d="M432.646,161.45c0.125-4.385,1.832-6.53,5.121-6.438c1.072,0.031,2.024,0.29,2.857,0.78
			c0.834,0.488,1.236,1.21,1.209,2.163c-0.014,0.477-0.078,1.429-0.189,2.856c-0.24,2.568-0.383,4.64-0.428,6.213
			c-0.037,1.312,0.32,5.066,1.073,11.265c0.599,4.931,0.917,8.017,0.954,9.258c0.06,2.053,0.513,5.394,1.359,10.021
			c0.514,2.877,0.762,4.638,0.744,5.281c-0.029,1.049-0.404,1.861-1.125,2.436c-0.721,0.577-1.677,0.848-2.869,0.812
			c-1.405-0.039-2.561-0.306-3.464-0.796c-0.904-0.49-1.381-1.153-1.429-1.99c-0.007-0.597-0.131-2.103-0.372-4.519
			c-0.524-5.047-0.832-8.896-0.923-11.547c-0.093-1.743-0.465-5.01-1.116-9.8C433.025,169.904,432.557,164.573,432.646,161.45z"/>
		<path fill="#833219" d="M475.9,193.174c-0.077,1.57-2.77,4.173-8.078,7.807c-0.172,0.111-0.543,0.367-1.111,0.77
			c-4.527,3.289-7.305,4.909-8.327,4.859c-2.073-0.102-3.74-1.423-4.999-3.968c-1.262-2.543-1.818-5.338-1.671-8.387l0.062-1.25
			c-0.364,0.125-0.857,0.173-1.476,0.143c-0.31-0.015-0.608-0.262-0.894-0.741c-0.289-0.479-0.422-0.934-0.4-1.362
			c0.046-0.952,0.24-1.642,0.584-2.066c0.342-0.425,1.109-0.859,2.301-1.303c0.125-2.595,0.535-5.017,1.23-7.262
			c0.693-2.246,1.59-4.118,2.689-5.616c1.098-1.498,2.041-2.229,2.826-2.19c2.191,0.106,4.279,0.602,6.266,1.486
			c1.986,0.884,3.645,2.026,4.973,3.427c1.328,1.402,1.966,2.639,1.915,3.709c-0.062,1.264-0.232,2.186-0.512,2.77
			c-0.278,0.582-0.723,1.116-1.331,1.6c-0.609,0.484-2.477,1.485-5.605,3.004c-3.082,1.522-4.846,2.449-5.291,2.786l-0.086,1.751
			c-0.08,1.666,0.1,3.132,0.539,4.395s0.957,1.908,1.552,1.938c1.024,0.05,2.963-1.276,5.815-3.979
			c2.301-2.156,3.82-3.479,4.561-3.968s1.408-0.72,2.004-0.69C475.15,190.917,475.971,191.697,475.9,193.174z M461.476,179.046
			c-0.429-0.021-0.909,0.761-1.438,2.347c-0.531,1.586-0.824,2.938-0.877,4.057c0.365-0.172,1.133-0.492,2.302-0.962
			c1.972-0.787,3.181-1.325,3.622-1.614c0.04-0.81-0.302-1.638-1.024-2.484C463.337,179.543,462.477,179.094,461.476,179.046z"/>
		<path fill="#833219" d="M504.595,198.604c-0.144,1.926-0.911,3.698-2.3,5.314c-1.388,1.618-3.206,2.905-5.452,3.86
			c-2.248,0.956-4.334,1.362-6.26,1.218c-3.091-0.232-5.509-0.914-7.252-2.049s-2.548-2.605-2.414-4.413
			c0.156-2.092,0.729-3.747,1.716-4.964c0.988-1.217,2.16-1.775,3.514-1.674c0.977,0.073,1.793,0.428,2.449,1.062
			c0.658,0.636,0.964,1.274,0.916,1.916c-0.099,1.308-0.43,2.071-0.996,2.293c-0.643,0.262-0.99,0.763-1.045,1.499
			c-0.031,0.404,0.271,0.75,0.909,1.036c0.636,0.287,1.394,0.464,2.272,0.529c1.902,0.142,3.484-0.224,4.744-1.098
			c1.261-0.874,1.938-1.929,2.031-3.165c0.309-4.138-2.532-6.43-8.523-6.879c-2.021-0.151-4.012-0.239-5.97-0.267
			c-0.572-0.019-0.942-0.034-1.107-0.047c-0.904-0.067-1.698-0.569-2.381-1.505s-0.978-2.033-0.883-3.294
			c0.106-1.427,1.075-3.272,2.907-5.539c1.83-2.265,3.857-4.11,6.08-5.533c2.223-1.425,4.166-2.074,5.831-1.95
			c1.212,0.091,2.25,0.51,3.114,1.256s1.541,1.777,2.029,3.094c0.486,1.314,0.695,2.448,0.623,3.399
			c-0.05,0.666-0.407,1.29-1.072,1.874c-0.666,0.584-1.449,0.842-2.353,0.773c-1.831-0.137-2.863-0.728-3.096-1.773
			c-0.088-0.412-0.279-0.81-0.575-1.19c-0.293-0.38-0.596-0.583-0.904-0.604c-1.164-0.089-2.262,0.355-3.291,1.331
			c-1.029,0.975-1.581,1.949-1.653,2.924c-0.028,0.382,0.118,0.649,0.442,0.805c0.322,0.155,0.983,0.271,1.981,0.346
			c0.167,0.012,0.56,0.029,1.18,0.052c1.429,0.083,2.546,0.155,3.355,0.216c1.45,0.108,3.233,0.714,5.351,1.817
			c2.117,1.103,3.697,2.446,4.737,4.029C504.292,194.887,504.74,196.654,504.595,198.604z"/>
		<path fill="#833219" d="M536.933,187.747c-0.238-0.005-0.622-0.015-1.148-0.031c-0.957-0.019-1.674-0.057-2.146-0.114
			c-0.593-0.07-1.091-0.365-1.498-0.882c-0.404-0.518-0.578-1.024-0.519-1.522c0.103-0.852,0.399-1.523,0.892-2.018
			c0.491-0.493,1.093-0.696,1.803-0.611c0.33,0.04,0.823,0.04,1.477-0.002c0.582-0.05,1.003-0.06,1.264-0.028
			c0.177-1.467,0.215-3.479,0.114-6.038c-0.078-1.954-0.063-3.369,0.043-4.245c0.122-1.018,0.564-1.805,1.328-2.362
			c0.764-0.557,1.69-0.769,2.778-0.638c1.185,0.143,2.118,0.556,2.805,1.237c0.687,0.684,0.981,1.429,0.884,2.231
			c-0.042,0.355-0.093,1.383-0.153,3.08c-0.115,3.156-0.25,5.373-0.403,6.65c0.266-0.015,0.608-0.07,1.027-0.163
			c0.644-0.163,1.19-0.218,1.641-0.163c0.781,0.095,1.403,0.463,1.866,1.106c0.462,0.645,0.644,1.381,0.544,2.209
			c-0.047,0.402-0.176,0.767-0.382,1.089c-0.208,0.323-0.468,0.587-0.78,0.789s-1.619,0.381-3.919,0.536
			c-0.095,0.782-0.246,2.648-0.457,5.601c-0.211,2.953-0.33,4.933-0.355,5.937c-0.012,1.104-0.128,3.264-0.346,6.479
			c-0.219,3.216-0.375,5.214-0.469,5.995c-0.089,0.734-0.517,1.397-1.284,1.989c-0.769,0.592-1.578,0.836-2.43,0.734
			c-1.256-0.151-2.276-0.539-3.066-1.161c-0.372-0.31-0.647-0.654-0.829-1.037c-0.184-0.383-0.195-1.729-0.037-4.038
			c0.263-3.787,0.519-6.711,0.768-8.77c0.13-1.089,0.348-3.596,0.653-7.521C536.77,189.612,536.884,188.173,536.933,187.747z"/>
		<path fill="#833219" d="M551.677,201.465c0.477-3.256,1.767-6.506,3.868-9.753c2.104-3.246,4.442-5.607,7.021-7.086
			c0.233-0.11,0.496-0.336,0.787-0.679c0.554-0.666,1.233-0.94,2.037-0.822c0.612,0.09,1.276,0.319,1.994,0.689
			c0.696,0.344,1.316,0.555,1.858,0.635c1.723,0.252,3.466,1.224,5.229,2.916c1.764,1.693,3.013,3.743,3.743,6.151
			c0.732,2.409,0.89,5.027,0.476,7.858c-0.454,3.091-1.568,5.843-3.343,8.258c-1.777,2.414-4.005,4.269-6.689,5.562
			c-2.683,1.292-5.193,1.768-7.528,1.427c-3.562-0.523-6.187-2.106-7.87-4.75C551.575,209.227,551.047,205.759,551.677,201.465z
			 M562.879,211.348c1.463,0.214,3.011-0.655,4.646-2.608c1.637-1.952,2.652-4.285,3.05-6.999c0.412-2.807,0.302-5.503-0.332-8.091
			c-0.632-2.587-1.479-3.958-2.542-4.113c-1.201-0.176-2.672,1.097-4.408,3.817c-1.735,2.722-2.84,5.688-3.311,8.895
			c-0.39,2.666-0.322,4.803,0.2,6.409S561.604,211.16,562.879,211.348z"/>
		<path fill="#833219" d="M592.371,188.329c2.742,0.502,3.903,1.902,3.484,4.201c-0.1,0.54-0.382,1.81-0.845,3.809
			c-0.686,2.953-1.138,5.026-1.357,6.223c-1.495,8.162-1.116,12.448,1.134,12.86c2.135,0.392,4.169-0.394,6.104-2.354
			c1.934-1.96,3.169-4.406,3.707-7.338c0.51-2.791,0.587-5.855,0.229-9.193c-0.159-1.386-0.188-2.35-0.09-2.888
			c0.159-0.868,0.768-1.581,1.828-2.139c1.06-0.557,2.223-0.72,3.489-0.488c1.478,0.271,2.417,0.898,2.819,1.88
			c0.4,0.982,0.213,4.785-0.562,11.404c-0.453,3.795-0.727,7.601-0.818,11.412c-0.041,2.078-0.158,3.644-0.352,4.699
			c-0.155,0.845-0.676,1.536-1.562,2.077c-0.887,0.54-1.646,0.753-2.279,0.636c-1.312-0.239-2.343-0.646-3.086-1.219
			c-0.444-0.348-0.738-0.735-0.877-1.16c-0.142-0.426-0.102-2.098,0.118-5.015c-2.276,2.104-4.768,3.666-7.476,4.685
			c-2.708,1.02-5.105,1.337-7.191,0.955c-1.925-0.354-3.248-1.886-3.976-4.6c-0.727-2.716-0.739-6.385-0.037-11.006
			c0.114-0.755,0.367-2.478,0.765-5.168c0.759-5.073,1.218-8.042,1.377-8.91c0.232-1.267,0.836-2.211,1.81-2.832
			S590.915,188.062,592.371,188.329z"/>
		<path fill="#833219" d="M642.535,220.474c-0.419,1.885-1.433,3.528-3.039,4.929c-1.607,1.4-3.592,2.411-5.952,3.033
			c-2.362,0.623-4.484,0.725-6.369,0.304c-3.026-0.673-5.319-1.698-6.882-3.071c-1.562-1.375-2.146-2.945-1.753-4.714
			c0.457-2.048,1.261-3.604,2.414-4.665c1.152-1.062,2.392-1.446,3.718-1.151c0.953,0.214,1.711,0.681,2.27,1.404
			c0.559,0.723,0.77,1.398,0.631,2.027c-0.285,1.28-0.726,1.987-1.316,2.124c-0.673,0.169-1.09,0.613-1.25,1.334
			c-0.089,0.396,0.161,0.782,0.75,1.157c0.587,0.375,1.312,0.658,2.174,0.851c1.86,0.415,3.479,0.279,4.854-0.403
			c1.373-0.684,2.195-1.63,2.463-2.84c0.903-4.05-1.579-6.727-7.442-8.033c-1.979-0.44-3.935-0.815-5.869-1.124
			c-0.563-0.102-0.927-0.17-1.09-0.206c-0.885-0.197-1.598-0.809-2.139-1.833c-0.541-1.023-0.674-2.152-0.399-3.386
			c0.312-1.396,1.535-3.084,3.674-5.063c2.139-1.978,4.41-3.512,6.813-4.601c2.404-1.088,4.421-1.451,6.05-1.089
			c1.188,0.265,2.156,0.828,2.903,1.691c0.748,0.863,1.27,1.98,1.562,3.353c0.292,1.372,0.335,2.523,0.127,3.453
			c-0.145,0.652-0.589,1.22-1.331,1.702c-0.743,0.481-1.555,0.623-2.439,0.427c-1.793-0.399-2.729-1.133-2.808-2.202
			c-0.028-0.421-0.16-0.842-0.397-1.26c-0.237-0.419-0.505-0.662-0.809-0.73c-1.14-0.253-2.289,0.027-3.449,0.845
			c-1.158,0.817-1.844,1.702-2.057,2.656c-0.083,0.372,0.023,0.659,0.322,0.859c0.297,0.201,0.935,0.409,1.911,0.627
			c0.163,0.036,0.55,0.11,1.159,0.222c1.402,0.288,2.499,0.52,3.291,0.695c1.418,0.317,3.097,1.174,5.033,2.569
			c1.936,1.396,3.304,2.953,4.106,4.671C642.771,216.752,642.96,218.565,642.535,220.474z"/>
		<path fill="#833219" d="M668.638,236.146c0.273-0.938,0.951-1.666,2.034-2.182c1.081-0.516,2.148-0.62,3.201-0.313
			c0.961,0.28,1.687,1.094,2.176,2.441c0.486,1.348,0.591,2.502,0.312,3.463c-0.215,0.733-0.791,1.26-1.729,1.582
			c-0.938,0.322-1.924,0.333-2.953,0.032C668.909,240.362,667.895,238.687,668.638,236.146z M679.823,225.516
			c-0.36,1.236-0.937,2.167-1.726,2.793c-0.793,0.625-1.669,0.799-2.63,0.519c-0.939-0.274-1.761-0.837-2.469-1.69
			c-0.708-0.852-0.954-1.644-0.74-2.376c0.119-0.413,0.583-1.916,1.391-4.512c1.465-4.764,2.397-7.832,2.799-9.205
			c0.368-1.258,1.202-4.715,2.506-10.37c0.896-3.837,1.431-6.053,1.604-6.648c0.32-1.098,0.974-1.994,1.958-2.688
			c0.985-0.693,1.98-0.894,2.988-0.6c2.562,0.748,3.394,2.667,2.492,5.757c-0.055,0.184-0.213,0.683-0.476,1.5
			c-0.888,2.871-1.639,5.358-2.253,7.465c-0.935,3.204-2.214,7.885-3.838,14.043C680.594,222.71,680.059,224.715,679.823,225.516z"
			/>
	</g>
	<g>
		<g>
			<path fill="#EAB63A" stroke="#0E8289" stroke-width="5.04" stroke-miterlimit="10" d="M73.931,75.332l21.509,70.587l-3.24,0.84
				c-2.124,0.55-4.833,1.175-8.126,1.877c-3.285,0.737-6.298,1.282-9.04,1.633c-2.743,0.35-4.819,0.427-6.231,0.225L47.6,83.059
				l-32.96,9.043l-4.94-21.046l83.349-27.59l7.296,22.703L73.931,75.332z"/>
			<path fill="#EAB63A" stroke="#0E8289" stroke-width="5.04" stroke-miterlimit="10" d="M108.971,37.015l8.705,37.254l7.534-1.489
				l-9.184-34.866l29.065-3.452l29.455,118.76l-22.149,3.931L131.117,95.88l-8.777-0.558l10.757,56.978l-25.477,5.482L84.165,55.225
				l-9.692-0.376l-3.132-13.585L108.971,37.015z"/>
			<path fill="#EAB63A" stroke="#0E8289" stroke-width="5.04" stroke-miterlimit="10" d="M188.44,119.939l57.332-5.612l2.988,23.624
				l-79.779,7.542l-16.286-81.226l-7.403,2.461l-2.388-25.981l64.367-19.381l4.787,23.416l-36.45,11.613l3.329,16.812l36.007-11.605
				l4.195,19.346l-36.315,12.537L188.44,119.939z"/>
			<path fill="#EAB63A" stroke="#0E8289" stroke-width="5.04" stroke-miterlimit="10" d="M282.935,131.833l-9.347-82.313
				l-7.584,1.825l-0.178-26.091l65.778-13.859l2.786,23.739l-37.303,8.483l1.893,17.033l27.988-6.172l2.542,19.633l-28.375,7.073
				l6.059,49.207c-1.303,0.261-3.498,0.637-6.582,1.132c-3.084,0.496-5.923,0.82-8.514,0.974
				C288.007,132.739,284.954,132.517,282.935,131.833z"/>
			<path fill="#EAB63A" stroke="#0E8289" stroke-width="5.04" stroke-miterlimit="10" d="M370.18,11.545l56.312,128.823
				l-22.883,2.673l-26.717-59.255l-14.412-1.982l-21.552,48.021l-28.33,1.895L370.18,11.545z M363.171,68.733l13.033,1.569
				l-5.765-21.016L363.171,68.733z"/>
			<path fill="#EAB63A" stroke="#0E8289" stroke-width="5.04" stroke-miterlimit="10" d="M439.639,64.38
				c-1.347,1.285-2.805,2.615-4.372,3.986c-1.569,1.371-2.632,2.27-3.19,2.695l6.248,40.147l-18.982,4.494l-9.57-71.665
				c-0.219-0.005-0.638,0.314-1.257,0.958c-0.618,0.643-1.444,1.557-2.478,2.739c-1.035,1.184-1.627,1.848-1.775,1.989
				c-0.109-0.002-0.448-0.796-1.015-2.383c-0.565-1.586-1.319-3.789-2.259-6.61c-0.941-2.82-2.001-5.954-3.183-9.403
				c-1.181-3.447-1.981-5.615-2.399-6.503c4.459-1.357,8.648-2.614,12.571-3.765c3.923-1.152,8.054-2.236,12.396-3.251
				c4.339-1.013,8.481-1.803,12.428-2.369c3.945-0.566,7.818-0.805,11.621-0.715c2.962,0.068,5.68,0.361,8.155,0.876
				c2.476,0.516,4.806,1.328,6.993,2.44c2.188,1.112,4.129,2.575,5.824,4.388c1.693,1.814,3.063,3.94,4.104,6.379
				c0.348,0.74,0.509,1.676,0.482,2.81c-0.041,1.792-0.627,3.743-1.754,5.857c-1.131,2.114-2.608,4.346-4.438,6.699
				c-1.828,2.354-3.853,4.785-6.069,7.294c2.006,0.266,3.9,1.763,5.684,4.494c1.783,2.731,3.072,5.935,3.863,9.61l8.297,48.754
				l-16.701,3.231l-11.08-44.76c-0.203-0.625-0.602-1.577-1.194-2.854c-0.591-1.275-1.403-2.547-2.435-3.814
				c-1.033-1.268-2.15-1.916-3.357-1.945C440.539,64.181,440.154,64.247,439.639,64.38z M427.008,39.063l2.748,16.195
				c2.426-0.455,5.171-2.475,8.235-6.061c3.065-3.586,4.624-6.477,4.675-8.67c0.026-1.133-0.396-1.821-1.268-2.062
				c-3.707-1.037-6.201-1.572-7.48-1.601C431.541,36.81,429.239,37.542,427.008,39.063z"/>
			<path fill="#EAB63A" stroke="#0E8289" stroke-width="5.04" stroke-miterlimit="10" d="M589.035,129.965l-26.971-1.132
				l-5.871-12.397l-8.032,15.401l-17.498-1.475l-10.037-97.834l31.343,6.577l2.265,33.247l7.535-11.371l6.841,16.146l10-50.005
				l31.054,1.138L589.035,129.965z"/>
			<path fill="#EAB63A" stroke="#0E8289" stroke-width="5.04" stroke-miterlimit="10" d="M626.1,123.017l56.384,11.795
				l-4.215,23.435l-78.38-16.668l8.754-82.378l-7.801,0.134l5.494-25.506l67.218,0.759l-2.438,23.776l-38.254,0.179L631.01,75.58
				l37.829-0.302l-1.783,19.716l-38.401,1.099L626.1,123.017z"/>
			<path fill="#EAB63A" stroke="#0E8289" stroke-width="5.04" stroke-miterlimit="10" d="M671.921,51.601
				c5.807-7.669,15.062-10.161,27.764-7.476c6.69,1.415,13.541,3.845,20.55,7.288c7.01,3.443,15.246,7.887,24.713,13.325
				c-1.165,1.623-3.793,5.74-7.882,12.351c-4.089,6.613-6.241,9.895-6.456,9.849c-0.226-0.345-1.664-1.63-4.313-3.855
				c-2.653-2.223-5.581-4.459-8.787-6.707c-3.206-2.246-5.894-3.73-8.06-4.45c-0.979-0.319-3.196-1.367-6.65-3.145
				c-3.457-1.777-6.078-2.854-7.868-3.233c-1.646-0.348-2.965-0.291-3.961,0.171c-1.687,0.729-2.676,1.79-2.971,3.185
				c-0.272,1.289,0.037,2.821,0.935,4.598c0.894,1.78,2.166,3.626,3.816,5.546c1.649,1.918,3.523,3.847,5.618,5.784
				c2.094,1.94,4.183,3.725,6.267,5.363c4.296,3.374,7.886,6.946,10.771,10.715c2.885,3.768,4.994,7.362,6.328,10.783
				c1.331,3.421,2.126,6.776,2.384,10.064c0.259,3.287,0.097,6.309-0.486,9.064c-0.688,3.257-1.905,6.101-3.653,8.536
				c-3.159,4.153-7.071,6.831-11.735,8.031c-4.664,1.201-9.93,1.181-15.797-0.06c-3.364-0.711-7.075-1.86-11.131-3.446
				c-4.057-1.586-7.932-3.322-11.626-5.206c-3.696-1.882-7.57-3.974-11.627-6.27c-4.056-2.297-7.616-4.33-10.681-6.1
				c0.77-0.994,2.103-3.002,3.992-6.023c1.892-3.02,3.511-5.64,4.856-7.86c1.349-2.219,2.563-4.167,3.648-5.845
				c1.083-1.676,1.696-2.501,1.839-2.47c0.829,1.036,3.812,3.544,8.95,7.526c5.138,3.983,9.226,6.483,12.264,7.498
				c1.122,0.351,2.979,1.191,5.578,2.526c2.595,1.335,4.377,2.234,5.344,2.7s2.147,0.847,3.543,1.143
				c1.646,0.348,2.967,0.289,3.96-0.173c1.86-0.839,2.931-1.922,3.212-3.246c0.618-2.933-2.395-7.159-9.04-12.676
				c-4.073-3.365-8.454-7.795-13.141-13.291c-4.689-5.495-8.536-11.522-11.541-18.083c-3.005-6.559-3.909-12.666-2.715-18.32
				C668.744,56.814,670.009,54.11,671.921,51.601z"/>
			<path fill="#EAB63A" stroke="#0E8289" stroke-width="5.04" stroke-miterlimit="10" d="M783.728,90.961l-16.161,72l-3.23-0.87
				c-2.118-0.57-4.783-1.364-7.993-2.381c-3.22-0.98-6.108-1.996-8.667-3.045c-2.558-1.049-4.401-2.009-5.53-2.882l14.869-69.109
				l-33.126-8.414l6.099-20.74l86.101,17.175l-4.869,23.344L783.728,90.961z"/>
		</g>
	</g>
</g>
</svg>
