<?xml version="1.0" encoding="utf-8"?>
<!-- Generator: Adobe Illustrator 27.3.1, SVG Export Plug-In . SVG Version: 6.00 Build 0)  -->
<svg version="1.1" id="Layer_1" xmlns="http://www.w3.org/2000/svg" xmlns:xlink="http://www.w3.org/1999/xlink" x="0px" y="0px"
	 viewBox="0 0 18 18" style="enable-background:new 0 0 18 18;" xml:space="preserve">
<path d="M17.2,17.5c-0.2-0.2-0.3-0.3-0.5-0.5c-1.1-1-2.1-2-3.2-3c-0.2-0.2-0.5-0.4-0.8-0.4c-1.5-0.1-2.9-0.3-4.4-0.7
	c0,0.3,0,0.5,0,0.8c0,0.3-0.1,0.5-0.3,0.7c-0.4,0.4-0.8,0.7-1.2,1.1c-0.1,0.1-0.1,0.1-0.2,0.2c0.3,0,0.6,0,0.9,0.1
	c0.2,0,0.4,0.1,0.3,0.4c0,0.2-0.2,0.3-0.4,0.3c-1.1,0-2.1,0-3.2,0c-0.2,0-0.4-0.1-0.4-0.3c0-0.2,0.1-0.4,0.4-0.4c0.2,0,0.5,0,0.7,0
	c0.3,0,0.5-0.1,0.8-0.3c0.5-0.5,1.1-1,1.6-1.6c0.1-0.1,0.2-0.3,0.2-0.5c0-0.8,0.1-0.7-0.6-0.9C6.3,12.3,5.6,12,5,11.7
	c-1.5-0.8-2.3-2.1-2.6-3.8C2.3,7.1,2.3,6.3,2.4,5.4C2.4,5,2.1,4.4,1.7,4.2C1.2,4,0.8,3.9,0.4,3.8C0.2,3.7,0,3.6,0,3.4
	c0-0.1,0.2-0.3,0.3-0.4c0.3-0.2,0.6-0.3,0.9-0.5c0.5-0.2,0.9-0.5,1.2-1c1.1-1.3,2.8-1.3,3.8-0.7c0.8,0.5,1.3,1.3,1.4,2.2
	C7.8,4,8.2,4.8,8.9,5.3C9.3,5.6,9.8,6,10.3,6.2c1.6,0.7,2.8,1.8,3.9,3.1c0.4,0.4,0.8,0.8,1.1,1.3c0.1,0.1,0.2,0.2,0.2,0.3
	c0.1,0.2,0,0.5-0.2,0.6c-0.3,0-0.5,0-0.8,0c-0.1,0-0.2,0-0.3,0c0.1,0.1,0.1,0.2,0.2,0.2c1.1,1.2,2.1,2.3,3.2,3.5
	c0.3,0.3,0.4,0.6,0.3,1c-0.1,0.2-0.1,0.5-0.1,0.7c-0.1,0.2-0.1,0.5-0.2,0.7C17.5,17.5,17.3,17.5,17.2,17.5z M4.5,2.8
	c0.2,0,0.3-0.1,0.3-0.3c0-0.2-0.1-0.3-0.3-0.3c-0.2,0-0.3,0.1-0.3,0.3C4.2,2.7,4.3,2.8,4.5,2.8z"/>
</svg>
