<?xml version="1.0" encoding="utf-8"?>
<!-- Generator: Adobe Illustrator 27.3.1, SVG Export Plug-In . SVG Version: 6.00 Build 0)  -->
<svg version="1.1" id="Layer_1" xmlns="http://www.w3.org/2000/svg" xmlns:xlink="http://www.w3.org/1999/xlink" x="0px" y="0px"
	 viewBox="0 0 18 18" style="enable-background:new 0 0 18 18;" xml:space="preserve">
<path d="M7.4,18C7,17.8,7,17.4,7,17c-0.2,0.1-0.3,0.2-0.5,0.2c-0.1,0-0.2,0.1-0.4,0.1c-0.3,0-0.4-0.2-0.5-0.5c0-0.2,0.1-0.5,0.3-0.6
	c0.3-0.1,0.6-0.3,0.9-0.4C7,15.8,7,15.7,7,15.6c0-1.6,0-3.2,0-4.9c0-0.4,0.2-0.6,0.5-0.6c0.3,0,0.6,0.2,0.6,0.6c0,0.7,0,1.4,0,2.2
	c0,0.8,0,1.6,0,2.3c0,0,0.1,0,0.1,0c0.5-0.2,1-0.5,1.5-0.7c0.1,0,0.1-0.1,0.1-0.2c0-1.2,0-2.3,0-3.5c0-0.4,0.2-0.6,0.5-0.6
	c0.3,0,0.6,0.2,0.6,0.6c0,1,0,1.9,0,2.9c0,0.1,0,0.1,0,0.2c0.1,0,0.1,0,0.1-0.1c0.5-0.2,0.9-0.5,1.4-0.7c0.1-0.1,0.1-0.1,0.1-0.2
	c0-0.7,0-1.5,0-2.2c0-0.3,0.2-0.5,0.4-0.5c0.3-0.1,0.5,0.1,0.6,0.3c0,0.1,0,0.2,0,0.3c0,0.5,0,1,0,1.5c0,0.1,0,0.1,0,0.2
	c0.1,0,0.1,0,0.1,0c0.5-0.2,1-0.5,1.4-0.7c0.1,0,0.1-0.1,0.1-0.2c0-0.3,0-0.5,0-0.8c0-0.4,0.2-0.6,0.6-0.6c0.3,0,0.5,0.2,0.6,0.6
	c0,0.1,0,0.2,0,0.4c0.2-0.1,0.4-0.2,0.6-0.3c0.3-0.1,0.7,0,0.8,0.4c0.1,0.2-0.1,0.5-0.3,0.6c-0.3,0.1-0.6,0.3-0.8,0.4
	c-0.2,0.1-0.2,0.1-0.2,0.3c0,1.6,0,3.1,0,4.7c0,0.3-0.1,0.6-0.4,0.7c-0.1,0-0.2,0-0.3,0c-0.3-0.1-0.4-0.4-0.4-0.7c0-1.4,0-2.8,0-4.2
	c0-0.1,0-0.1,0-0.2c-0.1,0-0.1,0.1-0.2,0.1c-0.5,0.2-0.9,0.4-1.4,0.7c-0.1,0.1-0.2,0.1-0.2,0.3c0,1.1,0,2.2,0,3.4
	c0,0.3-0.1,0.6-0.4,0.7c-0.1,0-0.2,0-0.3,0c-0.3-0.1-0.4-0.4-0.4-0.7c0-0.9,0-1.9,0-2.8c0-0.1,0-0.1,0-0.2c-0.1,0-0.1,0-0.2,0.1
	c-0.5,0.2-0.9,0.5-1.4,0.7c-0.1,0.1-0.1,0.1-0.1,0.2c0,0.7,0,1.4,0,2c0,0.3-0.1,0.6-0.4,0.7c-0.1,0-0.2,0-0.3,0
	c-0.3-0.1-0.4-0.4-0.4-0.7c0-0.5,0-0.9,0-1.4c0-0.1,0-0.1,0-0.2c-0.6,0.3-1.1,0.5-1.6,0.8c0,0-0.1,0.1-0.1,0.1c0,0.2,0,0.5,0,0.7
	c0,0.3-0.1,0.6-0.4,0.7C7.6,18,7.5,18,7.4,18z"/>
<path d="M0,6.6c0.1-0.2,0.3-0.4,0.5-0.5C0.7,6.1,1,5.9,1.2,5.8c0.1,0,0.1-0.1,0.1-0.2c0-1.6,0-3.2,0-4.8c0-0.1,0-0.2,0-0.3
	C1.5,0.2,1.7,0.1,2,0.1c0.3,0,0.5,0.2,0.5,0.5c0,0.1,0,0.1,0,0.2c0,1.4,0,2.8,0,4.2c0,0.1,0,0.1,0,0.2C2.7,5.1,3,5,3.2,4.9
	C3.5,4.7,3.7,4.6,4,4.5c0.1-0.1,0.2-0.1,0.2-0.3c0-1.2,0-2.3,0-3.5c0-0.3,0.1-0.5,0.3-0.6C4.9,0,5.3,0.2,5.3,0.6c0,0.7,0,1.5,0,2.2
	c0,0.3,0,0.6,0,0.9c0.1,0,0.1,0,0.1-0.1c0.5-0.2,1-0.5,1.4-0.7C7,3,7,2.9,7,2.8c0-0.7,0-1.5,0-2.2c0-0.3,0.2-0.5,0.5-0.5
	C7.7,0,8,0.2,8.1,0.4c0,0.1,0.1,0.2,0.1,0.3c0,0.5,0,1,0,1.5c0,0.1,0,0.1,0,0.2c0.1,0,0.1,0,0.1-0.1c0.5-0.2,0.9-0.5,1.4-0.7
	c0.1,0,0.1-0.1,0.1-0.2c0-0.3,0-0.5,0-0.8c0-0.4,0.2-0.6,0.6-0.6c0.3,0,0.5,0.3,0.5,0.6c0,0.1,0,0.2,0,0.4c0.2-0.1,0.4-0.2,0.6-0.3
	c0.2-0.1,0.5,0,0.6,0.1c0.2,0.2,0.2,0.4,0.1,0.6c-0.1,0.1-0.2,0.2-0.3,0.2c-0.3,0.2-0.6,0.3-0.9,0.4c-0.1,0-0.1,0.1-0.1,0.2
	c0,1.6,0,3.3,0,4.9c0,0.3-0.2,0.6-0.5,0.6c-0.3,0-0.6-0.2-0.6-0.6c0-0.3,0-0.6,0-1c0-1.1,0-2.2,0-3.4c0-0.1,0-0.1,0-0.2
	C9.7,2.9,9.7,2.9,9.6,3C9.2,3.2,8.7,3.4,8.3,3.6C8.2,3.7,8.1,3.7,8.1,3.9c0,1.1,0,2.3,0,3.4c0,0.1,0,0.2,0,0.3C8,7.9,7.7,8,7.5,8
	C7.2,7.9,7,7.7,7,7.4c0-1,0-2,0-3c0-0.1,0-0.1,0-0.2c-0.1,0-0.1,0-0.2,0.1C6.4,4.5,5.9,4.8,5.5,5C5.3,5,5.3,5.1,5.3,5.2
	c0,0.7,0,1.5,0,2.2c0,0.3-0.2,0.5-0.4,0.5C4.6,8,4.4,7.9,4.3,7.7c0-0.1-0.1-0.2-0.1-0.3c0-0.5,0-1,0-1.5c0-0.1,0-0.1,0-0.2
	c-0.1,0-0.1,0-0.1,0c-0.5,0.2-1,0.5-1.4,0.7c-0.1,0-0.1,0.1-0.1,0.2c0,0.3,0,0.5,0,0.8C2.5,7.7,2.3,8,1.9,8C1.6,8,1.4,7.7,1.4,7.4
	c0-0.1,0-0.2,0-0.4C1.2,7.1,1.1,7.1,1,7.2C0.5,7.4,0.3,7.3,0,6.9C0,6.8,0,6.7,0,6.6z"/>
</svg>
