<?xml version="1.0" encoding="utf-8"?>
<!-- Generator: Adobe Illustrator 27.3.1, SVG Export Plug-In . SVG Version: 6.00 Build 0)  -->
<svg version="1.1" id="Layer_1" xmlns="http://www.w3.org/2000/svg" xmlns:xlink="http://www.w3.org/1999/xlink" x="0px" y="0px"
	 viewBox="0 0 595.3 841.9" style="enable-background:new 0 0 595.3 841.9;" xml:space="preserve">
<style type="text/css">
	.st0{fill:#212528;}
</style>
<g>
	<path class="st0" d="M-191.5,503c4.2-18.4,17.7-32.5,23-50.5c1.3-4.5,5.7-8.5,11-11.6c43.5-25.2,92.4-32.5,140.2-42.4
		c28.6-5.9,53.6-18.1,78.2-32.6c38.5-22.6,77.9-43.6,119.2-60.7c28.9-12,59.7-13.7,90.2-15.8c107.2-7.3,214.4-2.8,321.6,0.5
		c26.1,0.8,51.6,4.9,77.4,7.1c2.3,0.2,5.5-0.6,5.9,3c0.3,2.9,1.4,6.6-2.4,8.2c-6.8,3-2.7,5.7-0.1,8.7c32.4,37.3,51.6,81.1,64,128.4
		c3.4,12.9,6.1,25.8,6.8,39.1c0.3,5.3,4.5,8.7,7.5,12.6c8.5,10.8,13.5,22,6.2,35.7c-1.3,2.5-0.6,6.1-1.1,9.1
		c-2.1,13.2-10.2,21-23.6,21.5c-18.9,0.7-37.8,0.9-56.3,5.1c-4.3,1-5.9,0.1-5.7-5c1.4-43.6-30.8-72.6-66.4-78.2
		c-41.9-6.6-79.3,16.1-91.3,54.4c-2.8,9-4,18.4-2.2,27.6c1.5,7.9-1.7,8.5-8.1,8.6c-35.3,0.7-70.7,1.9-106,2.8
		c-106.3,2.7-212.6,5.3-318.9,7.9c-3.7,0.1-7.4,0-11.2,0.1c-4,0.1-5.7-1.2-4.2-5.6c13.4-38.4-11.1-75.9-41.8-89.9
		c-33.2-15.1-74.7-6.4-98.8,22.6c-13.8,16.6-19,36-15.2,57.4c1,5.7,0.8,7.8-6,6.7c-18-3-36.1-5.5-54.3-7.8
		c-9.9-1.3-18.5-6.5-28.5-7.8c-4.6-0.6-8.8-4.9-6.4-10.3c3.4-7.9-0.4-14.2-2.8-21C-191.5,521.6-191.5,512.3-191.5,503z M402.6,402.8
		c0,0.1,0,0.1,0,0.2c25.4-1.3,50.7-2.7,76.1-3.7c5.7-0.2,7.3-1.8,6.6-7.7c-3-25.5-5.7-51.1-8.2-76.7c-0.5-5.6-2.1-8.1-8.3-8.1
		c-43.7,0.1-87.3-0.1-131-0.4c-5.8,0-8.2,1.4-8.1,7.8c0.3,28.2,0.3,56.4,0,84.5c-0.1,6.3,2,7.9,8,7.5
		C359.3,404.9,381,403.9,402.6,402.8z M286.3,358.6c0-14.6-0.1-29.1,0.1-43.7c0-4.5-0.8-7-6.2-6.4c-18.2,1.9-36.5,1.9-54.4,5.9
		c-32.4,7.2-60.9,23.8-90.5,38c-15.4,7.4-20.8,16.9-18.4,33c0.8,5.1,1.2,7.8,7.2,7.8c11.4,0.1,20.3,5.3,25.3,15.8
		c2.2,4.7,5.2,6,10.2,5.7c21.6-1.3,43.3-2.3,65-3.2c16.4-0.7,32.8-1.2,49.2-2c12.6-0.5,12.6-0.6,12.6-12.8
		C286.3,384,286.3,371.3,286.3,358.6z M592.5,393.7c18.6-0.8,37.1-1.6,55.7-2.5c14-0.6,20.9-11.4,15.2-24.4
		c-5.3-12.2-11.4-24.3-20.4-34.1c-10.3-11.2-22.6-20.4-38.8-21.2c-25-1.2-50.1-1.7-75.1-3.1c-7.4-0.4-9,1.8-8.2,8.7
		c2.9,24.3,5.4,48.6,7.8,72.9c0.5,5.5,2.6,7.2,8.2,6.9C555.4,395.4,573.9,394.7,592.5,393.7z M92.6,391.9c0-1.5,0.2-3.1,0-4.6
		c-0.3-2.3,1.4-5.4-1.3-6.7c-2.5-1.2-4.4,1.5-6.4,2.8c-8,5.2-16,10.5-24,15.9c-3.3,2.2-5.5,5.3-4.4,9.4c1.1,4.4,4.6,6.2,8.9,7
		C80.5,418.4,95.4,405.9,92.6,391.9z"/>
	<path class="st0" d="M592.4,493.5c40.1,1.9,69.7,31.7,68.2,68.6c-1.5,35.1-35.6,64.8-72.3,62.9c-38.9-2-70-32.6-68.2-67.1
		C521.9,520.4,554.1,491.7,592.4,493.5z M568.6,569.7c-0.6-5.2-4.6-5.5-8.3-4.8c-4.3,0.9-10.3-3.7-12.6,3
		c-1.2,3.6,5.6,14.6,8.1,14.5C557.6,582.5,568.5,571.6,568.6,569.7z M624,564.7c-4.6,0.9-10.2-2.1-11.9,4.7
		c-0.5,2.2,11.2,14.2,13,13.1c5.1-3,7.5-8.6,7.6-13.9C633,561.6,626.6,566.4,624,564.7z M623.9,553.7c1.7-3.2,8.9,3.9,8.8-4
		c-0.1-5.3-2.4-10.8-7.7-13.8c-1.4-0.8-13,10.5-12.8,12.4C613,555.7,618.9,552.7,623.9,553.7z M563.1,527c8.1,2.6,9.7,15.1,19.2,10
		c4.6-2.5,3.8-13.9,1.1-15.9C577.2,516.5,570.8,522.5,563.1,527z M584.4,590.6c-1-4.3,1.8-11.4-5.2-10.9c-6,0.4-9.8,6.8-13.6,11.4
		c-1.4,1.7,10.7,8.5,15.2,7.9C587,598.3,582.7,593.2,584.4,590.6z M557.1,553.6c4.5-1,10.5,2.2,11.4-5.2
		c0.2-1.9-11.5-13.4-12.8-12.6c-5.2,3-7.6,8.5-7.7,13.9C547.9,557.3,554.8,551.1,557.1,553.6z M596.4,590.4c2.4,1.8-3.4,8.4,3.6,8.3
		c5.6-0.1,11.6-2,15.2-7.1c1-1.4-11.6-12.6-13.8-12.3C595.2,580.4,596.7,585.4,596.4,590.4z M596.4,527.7c0.8,4.5-1.9,10.5,5.7,10.9
		c2.3,0.1,14.2-10.8,13.3-12.1c-3.6-4.7-9-6.5-14.5-7C593,518.8,598.2,525.3,596.4,527.7z"/>
	<path class="st0" d="M-14.8,493.4c39.3,0.9,68.3,27.2,70.5,62.9c2,31.2-20.4,58.6-54.4,66.9c-34.8,8.4-73.5-12.8-83.1-45.7
		c-11.3-38.5,15.6-78.3,56.3-83.1C-21.6,493.8-17.6,493.6-14.8,493.4z M-8.4,590.6c1.8,2.2-3.3,8.8,4.1,8.1
		c5.5-0.5,14.1-2.1,14.1-7.5c0-4.7-7-10.9-12.9-11.6C-9.9,578.8-7.9,585.7-8.4,590.6z M-8.4,527.5c0.6,4.7-1.7,11.6,5.3,10.9
		c6-0.6,12.8-6.7,12.9-11.4c0.1-5.6-8.4-6.8-13.9-7.4C-11.4,518.7-6.8,525.2-8.4,527.5z M-20.4,527.5c-1.8-2.2,3.2-8.8-4.2-8
		c-5.5,0.6-14.1,1.7-14,7.4c0,4.7,6.8,10.8,12.9,11.4C-18.5,539.1-21.1,532.1-20.4,527.5z M-47.5,564.7c-2.6,2.2-9.3-3.4-9.3,4
		c0,5.3,2.6,10.7,7.7,13.8c1.2,0.7,13.1-10.7,12.9-12.5C-37,562.8-42.8,565.4-47.5,564.7z M-20.4,590.7c-0.7-4.7,1.8-11.7-5.3-10.9
		c-6,0.6-12.9,6.9-13,11.5c-0.1,5.5,8.5,7,14.1,7.5C-17.4,599.5-22.1,593-20.4,590.7z M28.3,568.6c-0.2-5.6-4.7-3.9-7.4-3.6
		c-4.7,0.5-11-3.2-13.4,4.2c-0.7,2,10.9,14.2,12.8,13.3C25.7,579.8,26.5,573.9,28.3,568.6z M18.9,553.6c2.7-2,9,3.2,9.1-3.3
		c0.1-5.5-2.1-11.7-8-14.5c-1.5-0.7-12.8,11-12.5,12.8C8.6,555.9,14.5,552.5,18.9,553.6z M-47.5,553.8c4-1.7,11.5,2.1,10.9-5.1
		c-0.5-6-7.3-12.1-12.2-12.2c-5.9-0.2-8,8.2-7.9,13.7C-56.7,556.9-50.3,551.5-47.5,553.8z"/>
</g>
</svg>
