<?xml version="1.0" encoding="utf-8"?>
<!-- Generator: Adobe Illustrator 27.3.1, SVG Export Plug-In . SVG Version: 6.00 Build 0)  -->
<svg version="1.1" id="Layer_1" xmlns="http://www.w3.org/2000/svg" xmlns:xlink="http://www.w3.org/1999/xlink" x="0px" y="0px"
	 viewBox="0 0 18 18" style="enable-background:new 0 0 18 18;" xml:space="preserve">
<style type="text/css">
	.st0{fill-rule:evenodd;clip-rule:evenodd;}
</style>
<g>
	<g>
		<path class="st0" d="M15.5,16.5c0,1.1-0.3,1.4-1.4,1.4c-3.5,0-6.9,0-10.3,0c-0.8,0-1.3-0.2-1.3-1.1c0-3.6,0-7.6,0-11.2
			c0-0.1,0,0,0,0c1.2,0,2.4,0,3.6,0c1.3,0,2.4-0.3,3.2-1.3c0.6-0.6,1.2-0.9,2.1-0.9l4.1,0L15.5,16.5z M9,12.9c1,0,2.1,0,3.2,0
			c0.8,0,1.2-0.3,1.2-1.2c0-1.2,0-2.4,0-3.5c0-0.8-0.4-1.1-1.1-1.1c-2.1,0-4.3,0-6.4,0C5,7.1,4.6,7.5,4.6,8.2c0,1.2,0,2.4,0,3.5
			c0,0.8,0.4,1.1,1.1,1.1C6.8,12.9,7.9,12.9,9,12.9z"/>
		<path class="st0" d="M14.5,0.1c-3.7,0-7.4,0-11,0c-0.3,0-0.9,0.5-0.9,0.7c-0.1,1.1,0,2.3,0,3.6c1.5,0,2.8,0,4.1,0
			c0.9,0,1.5-0.2,2.1-0.9c0.9-1,1.9-1.4,3.2-1.3c1.2,0,3.6,0,3.6,0c0,0,0-1.5,0-1.5C15.5,0.2,15.2,0.1,14.5,0.1z M5.3,3.5
			C4.6,3.5,4,2.9,4,2.2C4,1.5,4.6,1,5.3,1C6,1,6.5,1.5,6.5,2.2C6.5,2.9,6,3.5,5.3,3.5z"/>
	</g>
</g>
</svg>
