<?xml version="1.0" encoding="utf-8"?>
<!-- Generator: Adobe Illustrator 27.3.1, SVG Export Plug-In . SVG Version: 6.00 Build 0)  -->
<svg version="1.1" id="Layer_1" xmlns="http://www.w3.org/2000/svg" xmlns:xlink="http://www.w3.org/1999/xlink" x="0px" y="0px"
	 viewBox="0 0 18 18" style="enable-background:new 0 0 18 18;" xml:space="preserve">
<path d="M9,10.1c-0.6,0-1.1-0.5-1.1-1.1c0-0.6,0.5-1.1,1.1-1.1c0.6,0,1.1,0.5,1.1,1.1C10.1,9.6,9.6,10.1,9,10.1z M9,9.8
	c0.4,0,0.8-0.4,0.8-0.8c0-0.4-0.4-0.8-0.8-0.8C8.6,8.2,8.2,8.6,8.2,9C8.2,9.4,8.6,9.8,9,9.8z"/>
<path d="M9,18c-5,0-9-4-9-9c0-4.9,3.9-9,9-9c5,0,9,4.1,9,9.1C17.9,14.1,13.9,18,9,18z M17,8.6c-0.1-0.5-0.1-0.9-0.2-1.3
	c-1-4.1-4.9-6.8-9-6.2c-3,0.5-5.1,2.2-6.3,5C1.2,6.8,1,7.6,0.9,8.4c0,0.1,0,0.2,0.2,0.2c0.2,0,0.3,0,0.5,0c1.4,0,2.8,0,4.2,0
	c0.3,0,0.3,0,0.4-0.3c0.3-1.2,1.5-2.1,2.7-2c1.3,0,2.4,0.9,2.7,2.1c0.1,0.3,0.1,0.3,0.4,0.3c1.2,0,2.3,0,3.5,0c0.4,0,0.8,0,1.2,0
	C16.8,8.6,16.9,8.6,17,8.6z M17.1,9.5c-0.1,0-0.1,0-0.2,0c-1.6,0-3.3,0-4.9,0c-0.2,0-0.2,0.1-0.3,0.2c-0.3,1.3-1.4,2.1-2.7,2.2
	c-1.3,0-2.4-0.9-2.8-2.2c0-0.1-0.1-0.2-0.3-0.2c-1.6,0-3.2,0-4.9,0C1,9.4,0.9,9.5,1,9.6C1,10,1.1,10.4,1.1,10.7
	c0.9,4.4,5.5,7.3,9.9,6.1c3-0.8,5-2.8,5.8-5.9C17,10.5,17,10,17.1,9.5z M10.9,9c0-1.1-0.8-1.9-1.9-1.9C7.9,7.1,7.1,7.9,7.1,9
	c0,1,0.9,1.9,1.9,1.9C10.1,10.9,10.9,10.1,10.9,9z"/>
</svg>
