<?xml version="1.0" encoding="UTF-8"?>
<svg id="Layer_1" data-name="Layer 1" xmlns="http://www.w3.org/2000/svg" width="202.7178764374mm" height="609.4319656223mm" viewBox="0 0 574.6333591615 1727.5237080239">
  <defs>
    <style>
      .cls-1 {
        fill: none;
        stroke: #000;
        stroke-miterlimit: 10;
      }
    </style>
  </defs>
  <path class="cls-1" d="m503.2713705777,1727.0815935528c-.7113739722-.375750945-.9681352292-1.6902688709-1.3430213155-2.6136542342-9.3847887668-23.1173505383-19.063882341-46.07490316-24.0840960183-70.7489710638-4.0799766636-20.0532346448-9.9144275365-39.7486635652-14.0322529826-59.7954281645-2.8388418288-13.8205055191-4.1073865077-27.9657340771-6.0131642776-41.9747254503-.8302008354-6.1028399102-1.6496269772-12.2141030871-2.2119866298-18.3453867823-1.644560124-17.9306934879,1.4997885308-35.5077318465,3.9305655422-53.161189988,2.5484134693-18.5073820728,10.5565443414-34.5718946976,21.5716388924-49.2211764238,4.6444118946-6.1768181664,10.5983306182-11.3509013548,15.668358177-17.2297311986,10.974437633-12.7249925299,21.7505354362-25.6210139988,32.6413394691-38.418519869,1.5044891054-1.7679094171,3.0375479371-3.5748832599,4.8340220858-5.0200228594,8.7354990072-7.0270798078,16.6652462716-14.7390078291,22.8620076676-24.2054168713,2.5348306401-3.8722612008,5.4811752206-7.712172174,9.0033096668-10.6533572028,8.0130756324-6.6916140518,5.7868346627-15.8108380102.9576352444-22.8396268866-5.0434113181-7.3403276716-4.860149955-10.9718543488,2.1106190437-16.9151404951,1.0117834219-.8625913507,1.9721047089-1.8012362553,2.8592923806-2.7913973713,3.2064633907-3.5791559315,2.756123925-6.4209708272-1.3624951245-8.9210940742-5.5595588283-3.3745560017-6.6967926503-5.9288811393-4.2985228594-11.8692374537,1.9552558961-4.8432563329-1.2977248693-8.2414951427-2.7471501008-12.1006941762-.2958920144-.7880027128-2.6257287646-1.2923000338-3.930535019-1.1461746663-11.2368151609,1.2587290429-22.5407203411,2.2148308627-33.6506199877,4.2232306508-10.0970784354,1.8252852924-19.9370293354,5.0283240498-29.9630497339,7.3029723145-10.6309294083,2.4121062127-20.9904464181,1.1064998589-30.4506275179-4.3139333643-3.0050101934-1.7215204115-5.4303845963-4.8387395087-7.4849019768-7.7639325381-6.7319553902-9.5848230826-7.8519435977-20.3960249806-5.5215574297-31.5407394133,2.9901148661-14.2998992686,5.7645221949-28.6994128229,9.8567081432-42.6980277081,3.5201809607-12.0417313086,7.9650320971-23.965903111,13.4322276867-35.2486858734,7.4585299219-15.3922382732,15.9729187835-30.1507783152,20.1928138495-47.0349114224,2.354316366-9.4194096549,7.3965067557-18.1333401964,10.6170718702-27.3778144698,6.0536685795-17.3764669478,10.007340193-35.2209745464,9.9848751092-53.7503303586-.0156278844-12.877587943-4.8082604951-23.9749367594-12.887449404-33.8162422123-5.0614200131-6.165220915-9.8656514442-12.553597362-15.1580711235-18.51080021-2.0225290547-2.2766625241-4.980533502-3.8110399211-7.6934365593-5.3678793629-5.8993432211-3.3854818333-12.1032470486-6.2703896737-17.8439916616-9.8959346107-11.4949804856-7.259574179-23.7852432524-9.3545260853-37.1262370593-7.3856179902-7.0623081106,1.0423487473-14.2978964942.8844430139-21.3784880086,1.8384695361-4.6858624161.6313177427-9.2326000332,2.2852689054-13.8470381339,3.4601315093-2.7371995338.6968727322-5.5185661549,2.042031817-8.2223732951,1.9104335328-13.926490054-.6774625956-25.6215501924,5.8391550365-37.0096078673,12.1058213821-15.1174447287,8.3189525744-29.7117216087,17.683183728-44.0164858255,27.3585874478-15.9608621148,10.7955761277-31.8050034681,21.8702187467-46.8215689821,33.9179317955-10.3045447055,8.2672532485-19.4466128927,18.0874394961-28.5099311938,27.773219704-15.1134767112,16.1514309721-30.4447975844,32.183471293-44.3969881827,49.3140765113-15.4209064996,18.9336726186-26.7457658647,40.5033394398-35.7961728472,63.2507986969-3.247959697,8.1633662913-7.5428197711,15.9056913189-11.179233122,23.9221997847-1.1575928043,2.5517615347-1.5970660066,5.4198228415-2.6053545208,8.0511781436-1.4373075165,3.7509173284-3.0806924968,7.4235837289-4.6688152024,11.1155381897-.5187572447,1.2059920682-1.6732824662,2.3883013283-1.6290085476,3.5466836276.3276514162,8.5743972958.3820285178,17.2078795355,1.5295486623,25.6865689882.906692004,6.6991827843,2.7456086786,13.3854254775,5.0499585471,19.7595189938,5.1897243335,14.3555660753,14.3496791228,25.667280928,27.4118128675,33.8190499679,5.3402648137,3.332927973,10.0646627846,7.7026502203,15.5390618522,10.7595636102,9.8269480117,5.4873310522,19.9890866729,10.378197154,30.047263275,15.4466843166,14.1913552237,7.1515976648,29.518372324,8.8477261996,45.1148788606,9.5184135589,10.5180545714.4524148805,21.0061048257,1.3002349953,30.9905831331-3.1293046539,6.7207228483-2.9813481414,13.1415856648-6.3456497314,17.173793502-12.9469272986,7.0899621404-11.607017496,14.2688689198-23.1597110249,21.383005444-34.7519572849,6.6731676845-10.8738270555,13.5685443502-21.6233804066,19.8596835169-32.7148695593,2.3764240052-4.1898516184,4.6834309085-8.5793119384,6.3524819942-13.1080956791.6818591694-1.8501487141,1.2572450393-3.7235501737,1.687393018-5.6160939565l5.8189145582-14.8464349999c2.2715374159-5.0214877753,5.324377482-9.8426482925,6.6733508237-15.1008420725,4.7366530404-18.4633125175,8.8821935627-37.078121761,13.2695084451-55.631404534.3440881657-1.4551498586.8979928887-2.8615912613,1.2269720645-4.3193047228,3.4631941244-15.3474362599,5.3307568332-30.8523509861,1.244339772-46.2829212271-3.0967324446-11.6933254616-6.4090808567-23.463436935-15.8894683226-32.1998295212-5.2317700576-4.8210384408-9.9049348177-4.9703377929-13.654436668.9640367813-8.1479577049,12.8957773162-13.9674216809,26.7184802092-15.1117368881,42.1790812274-.7270629031,9.8229940033.3216536051,19.4142871314,1.8479973301,29.182346786,2.8358200308,18.1482335087,2.1835695197,36.8334807949,8.4222392854,54.4689937158,3.1342454718,8.8599338326,6.383319266,17.6793383235,9.5804730771,26.517054264l10.6794918382,29.7076412358c3.7797198299,15.3362052375,7.6127026643,30.6593483077,11.3163891738,46.0137429185.459191197,1.9037803728.317746634,3.9630859906.3687509207,5.9526860238.477352508,18.6141988619.9619695404,37.2281535711,1.3827930603,55.8436952726l1.7288652348,26.310501113c.9853197974,4.3133229826,1.7963215327,9.1393665529,4.3280388052,12.5434650266,9.9856076662,13.4263210482,23.9323651328,20.0033054257,41.2319753135,21.7338594857,14.171286212-.7926416134,27.4147278342-6.5048372662,39.7131402986-14.2381286454,7.9779739389-5.0166047221,14.9723679034-11.5694179862,22.6960834887-17.0254974978,7.9339594676-5.6042801768,14.3698397042-11.6322872964,16.3529938158-22.0336789532,1.8345060705-9.6216901344,1.3834950942-16.1074834931-5.9027618208-18.9651683118-6.9410393905-2.722180092-14.9461789878-5.2788246799-22.0877558792-4.4595704264-20.3002555548,2.328728079-39.5338774762,8.8235550862-56.9940702737,19.8856238432-2.5210341484,1.5971246308-5.2642467549,2.8525576128-7.9416818402,4.1922232628-9.5063016727,4.756460062-19.0733445367,9.3956047705-28.4956463307,14.3123510543l-15.5189470556,9.5152395743c-4.4182348958,2.3250657891-8.9029188235,4.5384317359-13.2169779977,7.044170494-21.6400108866,12.569467285-45.0741761578,17.1225481805-69.9084411504,16.8881616261-22.2318254385-.2096050593-43.471158125-5.5080840284-64.7987639396-10.6960839184-17.455797455-4.2460589245-32.725095162-13.1593401136-47.049134787-23.4478111647-15.7918245684-11.342844317-31.4394574846-23.0484994879-46.0076217569-35.8915398294-18.4908090411-16.3010965531-32.8675927759-35.7631155298-42.8937505289-58.7715739813-6.4161775034-14.7242365932-10.1286546979-29.9516718203-13.4595764844-45.3039911334-5.2873070414-24.368999154-9.7706708401-48.9424761615-13.5875068955-73.585414601-1.5072133021-9.7311926028-.7426602642-19.9018599951-.2464367806-29.8341123141.6634601606-13.279585299,2.0492979114-26.5240126149,3.1663329981-39.7799151058,1.537652575-18.2471153363,3.079524984-36.4942306726,4.6880524566-54.7352421924.8331692178-9.4482196689,1.0476100417-19.0358505071,2.8902658097-28.2921661846,3.6352000533-18.2611541143,7.0483818953-36.6561649249,14.6760638257-53.8583068729,3.1704536317-7.1500717106,6.2586853618-14.3390857707,9.5711253436-21.4231141866,5.0042347759-10.7020046204,12.4107226218-18.6945861255,24.9762284503-19.5588865448,12.739961245-.8763859761,25.516901361-1.2174672432,38.2783814703-1.7760885312,1.3293927014-.0582304096,2.683097141.1453929095,3.9924971388-.0253918767,5.485341639-.7156724871,7.659372655-5.2369524985,3.8998744528-9.2281160452-4.0646234881-4.3151541276-8.6552229604-8.4031852424-13.6952919869-11.4774945094-11.6770209202-7.1226045363-21.5072807005-16.3175768578-30.4804029109-26.3757509116-2.6427454551-2.962365272-3.991520396-7.8128851466-4.3496187159-11.9357080156-.9315378983-10.7244666652-1.3361535928-21.529320594-1.2107489775-32.2935231048.0486845227-4.1789169428,2.1001190589-8.3310991693,3.2158034935-12.5017149216,1.9254957646-7.1978035558,3.688760659-14.4426675371,5.7800127249-21.5917626371,3.4848350815-11.9131238945,1.2764807139-23.1899859549-3.9723518191-33.93807439-5.6030086201-11.4730387233-12.3119647703-22.4282296531-17.5312203112-34.0611273311-7.079294278-15.7787319353-11.7538783673-32.029777193-7.1653239502-49.8004896498,4.1229686073-15.9676450566,7.6022637259-32.1238980437,15.4577632777-46.773912228,4.3863076163-8.1801517867,10.1069221712-15.6520777425,14.3905649649-23.8781912676,3.8235359003-7.3426471219,6.9178875344-15.147597307,9.4647137967-23.0294555804.9567653328-2.9609613942.2648804313-7.0735298515-1.070906883-10.030889994-3.0471627488-6.7462432096-7.7280040965-12.331906746-14.4225227676-16.0645126248-2.576769533-1.4365942563-4.9996562942-3.3637522465-7.0467260111-5.4955101663-6.1985622655-6.4550301234-13.8078768533-10.4290419456-22.2588690041-12.7334768349-9.0449356968-2.4664301797-14.5967568909-9.452309226-21.0012363734-15.3572634045-2.7787874097-2.5620159464-5.1328595901-5.5838934296-7.905794174-8.1530508413-8.3749588304-7.7593546758-18.1283535328-14.5876942176-21.8042944429-25.9756457386-3.3228026121-10.293964486-3.1564740007-16.4325117228,3.987918657-21.7836971476,3.5072620113-2.6269605542,8.4934880923-3.4191443814,12.923886488-4.6247397015,2.8637258771-.7793047743,5.9834194077-.5767801421,8.8970431052-1.2248528612,3.3561263285-.7465272796,5.1085478519-3.0336883681,3.1141840909-6.253146392-1.9040989932-3.0736378472-4.047354981-6.3640832573-6.9042589204-8.4239687376-19.6984522818-14.2031537768-35.1248834827-32.1644273854-45.3505447629-53.9926823936-4.130721503-8.8176954223-5.4483360602-19.134823892-6.9841457962-28.9359662321-1.6168984634-10.3185933857-2.3740496224-20.8202097097-2.7765515845-31.2700046315-.7053799765-18.3132501883,2.026039224-36.0636979743,10.1119241625-52.7842182797,2.4498921727-5.0660456359,4.4623676445-10.3667830171,6.3536888583-15.6745397873,3.3152481172-9.30380337,9.4668885756-16.7037348099,15.6128593473-24.1446838969,2.3325838393-2.8240833088,4.8796085025-5.5342388822,6.7991293484-8.6252420874,8.0702150847-12.9953610827,18.4547458664-23.8918332975,30.3001022993-33.38717443,4.7722812593-3.8255059663,10.0872423305-7.0296434107,15.3700624597-10.1533478129,22.8715766945-13.5239363339,46.2798582822-25.240563115,73.356800994-28.5563851423,15.0641969859-1.8447564671,29.8630251691-.5301012053,44.7938967662-.6457685284,16.4165126193-.1272035363,31.1740886819,4.8630937366,45.545057745,11.4712686166,8.69798598,3.9995562943,16.1270304794,10.1179761962,23.6723684154,16.2773679664,19.4742058761,15.8971001972,34.3293951698,35.5998079187,49.2878750119,55.3162950061,11.2551290879,14.8352039775,17.5250240992,32.0801947174,22.1775856913,49.8413852205,3.9025757571,14.8983479594,9.2686479463,28.9137788591,20.6336911196,39.6876864381,4.3979064368,4.1692118745,10.2091291456,6.809936535,14.889985755,10.728067917,6.4498903908,5.3988867508,13.2874866168,10.6772231254,18.4491143339,17.20140949,10.9190074805,13.8014310925,15.871215442,30.1447050178,16.6118611743,47.6513663719.2869792365,6.783690124.3299253954,13.6857027312-.6017040725,20.3828102179-.9497297325,6.8271187785-2.4513801793,13.7923669249-5.0750028423,20.1330420458-9.2193224361,22.2808835223-12.6090777132,45.0371322752-6.8798098278,68.6701942713,3.5914221368,14.8145120395-2.5833625467,25.6917572323-12.8739276212,35.3136915193-7.6025994812,7.1085657583-16.5825894143,11.1940943083-26.5548279138,14.0191237087-9.56719548,2.7103386879-18.8009553953,6.6352758253-28.1004012622,10.2352457711l-20.0523765524,4.9650885107c-16.3547031156,1.7239009-32.8440135949,4.6645365852-49.134923198,3.9162086798-24.5492697648-1.1276801022-49.2797253144-3.9472160677-71.5276670087-15.9368207832-5.7355098822-3.0909726861-10.9539412963-7.6879400225-15.3701158753-12.5393754695-5.3456674222-5.8724208365-1.2611275384-16.8837668782,7.4715785949-18.3497815302,20.9353672825-3.5145775527,41.9102468627-9.3256550332,63.3563437852-5.4616339847,16.4943773324,2.9718261877,33.0811484267,6.37397144,46.8388451199,17.2489582207,2.5668800124,2.029091726,6.0182921771,2.9056608166,8.7399859194,4.7806311754,3.9041019177,2.6895857117,7.9282211038,5.4148787501,11.1571190551,8.8284991775l18.1546263872,18.7506801993c5.5356286303,5.761758643,11.5729672915,11.091245,16.6695805677,17.2098327568,4.3017277967,5.1642560438,7.8875031394,11.0122616142,11.1930753985,16.8932277938,2.8582452579,5.0851086056,5.0818160876,10.5268376173,8.4257898193,15.7700305076l12.9215950366,41.3350794872c1.6184933012,9.3329185748,3.4065430435,18.6751149508,4.2712961546,28.0915947737,1.5473436947,16.8494634294,2.9471687072,33.7425081087,3.4526941396,50.6459292761.2885053971,9.6468988967,2.6315281748,19.7916250687-2.2918048284,28.9623652386-2.6951995945,5.0203280502-6.0555610186,9.8369717431-9.9222109555,13.9961733586-1.4500051725,1.5597082356-5.4161302564,1.8866286484-7.8382386756,1.254700524-13.8637343307-3.6171827084-21.7438203296-13.3654049593-24.4218048327-26.907210216-3.4119151288-17.2530477777-4.1611684067-34.8024358476-.20413924-52.0427266488,1.8747356636-8.16806623,5.579276823-15.9714294229,8.9426295219-23.7285256865,3.9641715983-9.1426015757,8.4263293958-18.0706540007,12.7322999189-27.0631627282l3.3270305225-34.8415986845c-.2179231231-5.552877862.0816003988-11.2427669297-1.3072790801-16.4854554772-4.3547160922-16.4378830814.0123313775-30.7187994806,9.7214597921-43.6734175881,5.6420325463-7.5279589914,11.9667167226-14.6243171167,18.5934280789-21.3113533061,6.1934343659-6.249819812,17.6993116381-2.491638942,20.6647332259,6.3479081435.8796484384,2.6220164628,1.2992510299,5.3982763692,2.2090869247,9.3032540265,1.9231454773-6.836152427,3.4205837209-12.5217354398,5.1383385066-18.1399323182,1.1814009094-3.8639600103,2.5547622974-8.0584416853,7.4735473421-8.2480872646,5.2024982976-.200632449,8.6551313908,2.7519667166,10.7512824321,7.4806544134,2.3606651941,5.3252747236,2.1581436843,4.8474069282,7.2796944245,1.6360669802,2.24373077-1.406929708,5.8993126979-.8315839628,8.8928156404-.6950415872,2.7275236757.1243347425,5.5489062274.5281632435,8.1062019513,1.4359228365,2.9652689717,1.0524200445,6.8469058056,2.0579627782,8.3008484724,4.3635573926,4.6022898624,7.2978451086,8.3354007481,15.1132938582,8.4314878185,24.1639109189.1408340989,13.2535220025,1.4906926138,26.5747353302.5123015854,39.7323053369-.690435049,9.2861023021-4.1797875659,18.4086833596-6.8042343556,27.4931155639-2.3466855631,8.1228979877-5.1450536132,16.1193248972-7.8783461758,24.1257010275-4.0265610431,11.7948319303-3.1576262519,23.4412190429-.125572493,35.3591039142,3.1902860885,12.5397416985,5.5076083219,25.3055077228,8.0712528739,37.9997370175,3.6082099033,17.8662982236,5.5112711073,36.1402093144,13.2985970658,52.9825923166,1.1481611319,2.4833377515,1.2241639291,5.4855609454,1.665895849,8.2683519354,2.0280842792,12.7755321307,4.4452784614,25.5106569961,5.8531310785,38.3556505588.9162457693,8.3599091832.3702465581,16.8832785729.416947072,25.3337683933l-4.6579642006,18.5367414302c-5.7499015765,16.5778435942-17.7545586513,26.5172373785-33.9506021124,31.6498756527-17.5801490196,5.5711974912-35.7949366571,6.6838622048-53.8757579184,4.0419473001-13.5899105984-1.9858156669-26.812352251-6.3683559288-40.300559508-9.1968034664-16.8991761662-3.5436927575-32.8388856953-9.4659207368-48.0737837427-17.5228975061-3.4865138582-1.8437798564-7.6264075863-2.4514147911-11.1159432425-4.2909830141-12.767493182-6.730495363-25.7887258229-13.114416024-37.9126676091-20.8802407452-7.3096376952-4.682176615-13.2120942838-11.598166962-19.6132085823-17.6516269965-9.0550770339-8.5632273115-18.1610667849-17.0857421669-26.890491673-25.9739977082-3.8094189149-3.8787922845-7.1666974947-8.3636325113-9.9767254116-13.0267041806-5.3549922633-8.8861802437-2.0610798711-18.2899641283,7.549946941-21.9082455237,4.1643428207-1.5677042352,8.6268974199-2.4868169269,13.0322209972-3.2479018089,25.3794400771-4.3843714069,47.8789540823,4.0672171005,69.654640645,15.7759241797,16.4702029487,8.85602739,31.612371479,19.3872472242,45.444727948,32.1249967307,6.3058818779,5.8068658471,14.8724654315,9.1587156513,22.4113324466,13.6279301079,5.283293239,3.1321734477,10.3592117776,6.7029061123,15.8904755886,9.3078929271,8.8274654441,4.1573094323,17.7039816895,8.5472963504,27.021680437,11.2426196497,11.7730164211,3.4057465041,23.9124029524,6.3114073207,36.0743156139,7.3817115476,11.1482673237.9811274676,22.5498467814-.5979909045,33.8038159873-1.4987921467l21.192998451-5.4612067175c11.2656901192-3.7890051435,14.9710859286-13.131811901,17.9813461143-23.2975962401,2.3953395626-8.0890828442,5.0880973001-16.1132821188,8.1225318696-23.9836652171,3.252492394-8.4358406608,6.1726480588-16.8214469115,6.0775377311-26.0533473229-.0371772719-3.6110178537,1.0857716871-7.2182513412,1.3899049687-10.851487087.8455540109-10.1024267236.762225643-20.3487814408,2.4435051907-30.3022750413,4.3308164174-25.6383488377-.5800631154-51.1889247938.1452294413-76.7680055731.2543804464-8.9715726368.8348098404-17.9693916846.4087058049-26.9144127195-.4013191876-8.4252810582-1.7057591635-16.8324337813-3.023263074-25.1828820489-1.5819570168-10.0270445896-3.3043208075-20.0520749197-5.540634437-29.9481316067-1.2709254894-5.6243006949-3.40156776-11.1103499457-5.6433145212-16.4496024091-9.5069426601-22.642107384-18.8250076862-45.3262700637-31.7842476841-66.3956070448-5.6898929423-9.2507001663-8.9005074898-20.0044041127-13.4814921504-29.9631469954-7.9793169602-17.3464361705-16.2385928182-34.5643259651-24.1806409369-51.9275171119-2.2740708424-4.9716195944-4.2797510842-10.146923546-5.6748755221-15.4227878749-2.9702747784-11.2325788715-5.7164786597-22.5387392512-8.0896888938-33.9117059027-4.2757830667-20.4904205031-7.3282568543-41.2845974354-12.6562055521-61.486643127-2.6958711051-10.2219699702-8.4869790174-19.9124806359-14.2638020667-28.9590386586-6.027784896-9.4396132876-12.8895860288-18.6792960651-20.92137239-26.4130757496-7.9307240071-7.6363932919-17.7309336854-13.3502674943-26.8005702913-19.7812485807-13.1271787088-9.3081065607-27.4070359849-16.8000835537-39.3808646158-27.983801374-11.3744748457-10.6238910285-24.9376776339-18.890976422-36.4325055034-29.4033659822-16.5800865109-15.1629789247-27.8688216549-34.1085997641-31.5917377878-56.3999360721-2.0654752136-12.3673851795-1.7650657639-25.217475429-1.6077796539-37.8384894445.1109213514-8.9019738689,1.7145498485-17.7915951391,2.7684858258-26.6728923296.528814643-4.4561980678,1.2750155998-8.8885149535,1.9976831603-13.3194584804,2.3777581926-14.5790420577,5.6780804593-28.8734250021,13.043728248-41.9055196156"/>
</svg>